<svg xmlns="http://www.w3.org/2000/svg" width="204" height="141" viewBox="0 0 204 141" fill="none"><path d="M191.032 126.93H60.1116" stroke="black" stroke-width="1.01117" stroke-linecap="round" stroke-linejoin="round"></path><path d="M15.2371 126.959H7.08887" stroke="black" stroke-width="1.01117" stroke-linecap="round" stroke-linejoin="round"></path><path d="M16.8788 133.747H3.46777" stroke="black" stroke-width="1.01117" stroke-linecap="round" stroke-linejoin="round"></path><path d="M194.127 133.747H58.3672" stroke="black" stroke-width="1.01117" stroke-linecap="round" stroke-linejoin="round"></path><path d="M45.0396 79.5164C49.8414 80.2858 54.3969 82.1632 58.3431 84.999C64.4005 89.558 69.2512 96.3875 71.1807 98.9143C73.1102 101.441 76.1867 104.635 76.1867 104.635C76.1867 104.635 75.5893 100.678 75.8283 100.601C76.0672 100.523 76.6765 99.9095 79.8247 99.9214C82.0101 99.9846 84.1801 100.309 86.2883 100.887C86.2883 100.887 91.8857 110.678 92.5607 114.23C93.2358 117.782 94.0602 121.447 92.5607 123.908C91.0613 126.369 86.7841 126.775 84.7949 126.775C82.8056 126.775 75.3802 124.391 74.1317 123.515C72.8832 122.639 66.0194 118.461 66.0194 118.461C66.0194 118.461 62.6382 123.056 61.4554 124.343C60.2726 125.63 58.3073 129.212 58.3073 133.753L45.0396 79.5164Z" fill="#C0E5B5"></path><path d="M65.8036 118.694C64.6012 120.738 63.1616 122.635 61.5144 124.343C58.7784 127.168 58.4021 130.779 58.4021 133.145" stroke="black" stroke-width="1.01117" stroke-linecap="round" stroke-linejoin="round"></path><path d="M54.3711 48.2711L46.2348 53.4499L42.9194 74.3615C42.3607 75.3637 41.8717 76.4031 41.4558 77.4723C41.4558 77.4723 44.0245 78.0146 45.0401 79.5223C49.6339 79.5223 55.0162 82.8835 55.0162 82.8835L57.7642 75.9824C57.7642 75.9824 60.6734 78.247 63.0091 78.3364C65.3448 78.4258 65.2194 76.9777 65.7749 74.7906C66.3305 72.6034 67.3699 69.7489 67.3699 69.7489L68.0271 68.8371L69.0306 67.7048C69.0306 67.7048 67.9374 66.6083 66.9876 63.9086C66.0378 61.209 67.2624 61.1137 67.2266 57.842C67.1977 55.7382 66.4376 53.7098 65.076 52.103L54.3711 48.2711Z" fill="#FCE7D9"></path><path d="M59.6574 57.8421C59.3647 56.0543 58.6598 55.667 58.6598 55.667C58.6598 55.667 57.7219 59.63 57.2261 61.2211C56.7302 62.8123 55.9716 63.1699 54.5976 62.9494C53.2237 62.7289 52.2918 61.7217 51.4256 63.4023C50.4518 65.2914 52.6621 68.0685 52.6621 68.0685L53.5761 73.3366C53.5761 73.3366 51.091 74.4511 45.5593 75.0172C41.822 75.3865 38.0542 74.7378 34.6572 73.14C34.2271 70.9648 34.484 68.7717 34.2809 66.5846C33.9523 62.9553 35.3562 55.4703 37.1124 51.4477C38.5678 48.1794 41.0963 45.5035 44.281 43.8613C46.1388 42.9138 49.4303 44.058 49.4303 44.058C50.0916 43.913 50.7305 43.6805 51.33 43.3667C52.6621 42.7708 55.3264 42.9972 58.5463 43.5336C61.7661 44.0699 64.1257 45.0294 65.9955 47.0317C68.3313 49.5347 68.0386 53.1282 66.2285 55.9053C64.4185 58.6824 59.7052 60.363 59.7171 60.4643C59.6813 60.4464 60.0158 60.059 59.6574 57.8421Z" fill="black"></path><path d="M54.526 67.7943C54.247 67.9321 53.943 68.0122 53.6323 68.0299C53.3215 68.0476 53.0104 68.0025 52.7175 67.8973C52.4246 67.7921 52.1561 67.629 51.9279 67.4178C51.6998 67.2065 51.5167 66.9515 51.3898 66.668C50.667 65.2497 51.0015 62.997 52.4173 62.4964C53.612 62.0733 54.066 62.9553 54.7291 63.1639C55.5893 63.438 56.3838 63.0626 56.9872 61.6204C57.7497 59.5773 58.3314 57.4715 58.7255 55.3272C59.4166 55.9745 59.8315 56.8622 59.8845 57.8063C59.9796 58.6124 59.8814 59.4294 59.5977 60.1901C59.5977 60.1901 66.5571 57.854 67.3636 53.3189C68.4389 47.4548 64.2214 44.3142 57.5726 43.3667C52.477 42.6396 49.3647 44.0401 49.3647 44.0401C47.6774 43.5198 45.87 43.5344 44.1914 44.0818C41.1209 45.1902 36.0791 49.1771 34.723 59.0817C33.4267 68.3903 34.5319 73.283 34.5319 73.283C34.5319 73.283 38.9584 75.3211 45.5594 74.9754C52.4471 74.6179 53.6479 73.3664 53.6479 73.3664C53.1336 71.5967 52.8151 69.7762 52.698 67.9374" stroke="black" stroke-width="1.01117" stroke-linecap="round" stroke-linejoin="round"></path><path d="M65.2253 62.7882C65.1596 61.9956 64.7474 61.3818 64.2934 61.4175C63.8394 61.4533 63.5287 62.1267 63.5945 62.9193C63.6602 63.7119 64.0783 64.3317 64.5264 64.2959C64.9744 64.2602 65.291 63.5868 65.2253 62.7882Z" fill="black"></path><path d="M65.494 60.7082C64.8801 60.5563 64.2382 60.5563 63.6242 60.7082C62.5131 60.9585 61.8321 61.4651 61.7186 61.3817C61.6051 61.2982 61.9994 60.4222 63.1762 59.8918C63.9712 59.5567 64.8536 59.4877 65.6912 59.6951C65.7714 59.7079 65.8482 59.7368 65.9169 59.7802C65.9856 59.8236 66.0446 59.8805 66.0905 59.9475C66.1363 60.0144 66.168 60.09 66.1836 60.1695C66.1991 60.2491 66.1983 60.331 66.181 60.4103C66.1272 60.6546 65.8584 60.8155 65.494 60.7082Z" fill="black"></path><path d="M66.3247 73.3011C66.4531 73.2287 66.5619 73.1264 66.642 73.0029C66.7221 72.8794 66.7711 72.7384 66.7847 72.5919C66.7847 72.288 66.7071 72.2523 66.5039 72.3118C66.3008 72.3714 66.0977 72.3893 65.3809 72.1807C64.4848 71.9185 63.9293 71.5371 63.756 71.7636C63.5828 71.99 64.0786 72.8542 65.0404 73.2415C65.2355 73.3492 65.4528 73.4106 65.6756 73.4209C65.8983 73.4312 66.1204 73.3903 66.3247 73.3011Z" fill="black"></path><path d="M66.7552 55.1837C67.9978 58.8488 66.582 60.5889 66.8807 63.1813C67.1794 65.7736 68.9655 67.0311 68.9536 67.8475C68.9058 68.9559 67.0121 69.6949 67.0121 69.6949C67.0121 69.6949 65.668 77.3051 63.7922 78.3301C62.3167 79.1346 57.3944 76.8939 56.0264 72.7104" stroke="black" stroke-width="1.01117" stroke-linecap="round" stroke-linejoin="round"></path><path d="M57.5612 75.6902L55.0403 82.8773" stroke="black" stroke-width="1.01117" stroke-linecap="round" stroke-linejoin="round"></path><path d="M45.0396 79.5164C49.9858 79.7249 53.7732 82.1683 55.7923 83.3244C63.9405 87.9549 71.3898 99.5281 78.2058 106.936C85.0219 114.343 86.2764 114.909 86.2764 114.909" stroke="black" stroke-width="1.01117" stroke-linecap="round" stroke-linejoin="round"></path><path d="M44.025 71.4414L41.7371 76.6202" stroke="black" stroke-width="1.01117" stroke-linecap="round" stroke-linejoin="round"></path><path d="M59.6458 140.404L46.4199 82.3886C45.4999 78.509 42.513 77.1086 39.4007 77.1086H8.82707C5.71475 77.1086 3.94054 80.2552 4.8605 84.1347L18.4926 140.404" stroke="black" stroke-width="1.01117" stroke-linecap="round" stroke-linejoin="round"></path><path d="M65.8229 73.8965C65.8229 73.8965 65.8229 75.446 64.7774 76.03C63.732 76.614 63.5827 76.7749 63.7081 77.8536C63.8336 78.9322 64.3055 84.3553 64.9029 85.4161C65.5003 86.4769 66.5457 88.0978 69.7416 90.0763C72.9376 92.0549 73.7679 92.6031 74.4071 94.677C75.0463 96.7509 75.7333 100.213 75.8229 100.636C75.9125 101.06 76.9519 100.327 79.0547 100.041C80.8909 99.8273 82.7433 99.7914 84.5864 99.9332C85.3032 100.011 85.9783 99.9928 85.5721 99.3075C85.1659 98.6222 82.8839 95.0525 81.7847 93.1395C80.6855 91.2265 80.59 90.9643 80.59 89.8737C80.59 88.7832 80.9305 83.6461 80.4346 82.3708C79.6515 80.7054 78.4522 79.2688 76.9519 78.1992C76.1414 77.7801 75.2253 77.6081 74.3175 77.7046C73.7437 77.4895 73.1381 77.3706 72.5254 77.353C72.0981 77.4198 71.6905 77.5784 71.3306 77.8178C70.8085 77.6554 70.2755 77.5299 69.7357 77.4424C69.0128 77.347 69.1383 76.8881 68.6186 76.1909C68.0988 75.4936 67.7822 73.825 65.8229 73.8965Z" fill="#FCE7D9"></path><path d="M65.4348 76.4177C66.1397 76.7991 66.5758 80.2675 66.8864 81.3938C67.6093 83.9861 67.442 84.4748 67.442 84.4748" stroke="black" stroke-width="1.01117" stroke-linecap="round" stroke-linejoin="round"></path><path d="M66.2712 74.1115C68.2246 74.1771 69.1565 77.5143 69.1565 77.5143C69.1565 77.5143 71.1279 77.6872 71.4803 78.003C71.7018 77.761 72.0071 77.6119 72.3346 77.5859C72.9903 77.5748 73.6418 77.6922 74.2522 77.9315C74.2522 77.9315 74.4314 77.7646 75.5843 77.7229C76.7372 77.6812 77.9738 78.7837 79.6226 80.5834C81.2713 82.3832 80.5664 86.5429 80.6202 89.8265C80.6739 93.1102 85.4709 96.221 91.4327 111.167C97.7947 127.121 87.251 126.876 82.9619 126.846C77.7528 126.799 62.6511 115.017 57.0657 112.365" stroke="black" stroke-width="1.01117" stroke-linecap="round" stroke-linejoin="round"></path><path d="M76.2102 104.635C76.0668 103.622 75.4694 98.9143 75.2663 97.776C74.43 93.1337 74.0716 92.9728 71.6283 91.2207C69.7645 89.8977 66.5327 88.5151 64.9317 85.3745C64.424 84.3733 64.3881 83.3662 64.3344 81.4353C64.1967 80.0135 63.9773 78.6008 63.6772 77.2041C63.8853 77.028 64.1409 76.9171 64.4119 76.8853C64.6828 76.8535 64.9572 76.9022 65.2006 77.0253C65.8278 77.3293 65.9951 77.9073 66.246 78.4496" stroke="black" stroke-width="1.01117" stroke-linecap="round" stroke-linejoin="round"></path><path d="M74.3113 77.9429C75.0396 78.4999 75.6922 79.149 76.2527 79.8738" stroke="black" stroke-width="1.01117" stroke-linecap="round" stroke-linejoin="round"></path><path d="M71.533 77.9969C72.1231 78.4184 72.6749 78.891 73.1817 79.4093C73.4762 79.6948 73.7295 80.0197 73.9344 80.3747" stroke="black" stroke-width="1.01117" stroke-linecap="round" stroke-linejoin="round"></path><path d="M69.1548 77.5143C69.4617 78.4609 69.9152 79.3537 70.4989 80.1603" stroke="black" stroke-width="1.01117" stroke-linecap="round" stroke-linejoin="round"></path><path d="M66.7542 55.1837C67.9968 58.8488 66.581 60.5889 66.8797 63.1813C67.1784 65.7736 68.9645 67.0311 68.9526 67.8475C68.9048 68.9559 67.0111 69.6949 67.0111 69.6949C67.0111 69.6949 66.5213 73.8665 64.9263 76.8879" stroke="black" stroke-width="1.01117" stroke-linecap="round" stroke-linejoin="round"></path><path d="M75.8162 100.768C78.2057 99.8262 83.1161 100.118 86.312 100.887" stroke="black" stroke-width="1.01117" stroke-linecap="round" stroke-linejoin="round"></path><path d="M155.266 42.899C156.743 57.5329 156.66 44.1333 154.641 46.2369C152.621 48.3404 148.039 48.6307 148.039 48.6307C148.039 48.6307 135.33 52.6165 132.42 55.2135C129.511 57.8105 128.111 60.2729 126.721 66.5424C126.721 66.5424 126.242 73.7843 125.524 79.9636C124.806 86.143 125.847 87.2254 125.847 87.2254C125.847 87.2254 140.184 86.6923 138.208 86.1546C136.233 85.6168 134.169 85.1692 134.169 85.1692L130.354 81.5868C130.354 81.5868 129.468 84.6161 127.89 86.4371C126.313 88.2581 125.847 87.2254 125.847 87.2254L138.141 87.7095C138.141 87.7095 139.597 90.9369 139.112 90.9369C139.112 94.6485 137.656 101.749 137.656 101.749C138.788 104.492 135.717 108.49 137.332 108.042L136.685 111.431C136.389 114.287 135.715 117.563 135.157 120.048C135.247 124.885 135.334 126.5 135.334 126.5H135.157H189.334L187.269 113.742C187.269 113.742 192.477 112.185 195.081 111.108C197.684 110.031 197.907 111.014 198.311 107.074C198.715 103.134 199.448 95.1326 199.448 95.1326L202.036 93.6803C202.036 93.6803 198.022 67.3766 194.047 61.5731C192.206 58.8859 185.428 54.9461 185.428 54.9461L175.868 50.1096C175.868 50.1096 169.719 48.9512 167.743 47.2051C165.768 45.459 166.126 56.726 166.126 56.726L155.266 42.899Z" fill="#FCE000"></path><path d="M125.686 87.3867C128.921 97.8759 123.906 92.8734 115.009 85.8423C105.951 79.8022 104.723 80.076 104.723 78.0382C105.462 78.9595 99.0517 76.4395 98.6275 74.617C98.2033 72.7946 97.7448 73.9022 97.2012 72.15C96.6575 70.3978 96.8005 71.2853 96.2262 71.3571C89.6151 81.1737 95.3027 76.082 95.3027 76.082L95.672 73.6157L92.5414 74.617C92.5414 74.617 103.818 85.5298 96.2262 71.3571C95.3656 71.5725 95.8298 73.7524 96.2264 74.617C96.623 75.4817 95.8722 75.2741 95.8722 75.2741C95.8722 75.2741 97.2072 72.186 97.2424 73.3302C97.2707 74.0622 99.7815 75.786 99.9204 76.5053C99.9204 76.5053 97.3511 74.7683 97.2424 75.8774C97.1336 76.9865 91.8967 74.617 91.8967 74.617C91.8967 74.617 95.6258 74.9378 95.3027 76.082C94.9796 77.2263 95.65 76.3577 96.7617 78.0382C97.8735 79.7186 96.0894 84.6629 97.2012 85.057C98.3129 85.4511 99.3145 85.8423 99.3145 85.8423L101.593 87.2651C101.593 87.2651 123.083 109.543 124.23 108.105C142.023 116.658 136.127 109.333 137.979 98.5214C142.347 73.0246 125.686 87.3867 125.686 87.3867Z" fill="#FEE9DB"></path><path fill-rule="evenodd" clip-rule="evenodd" d="M168.814 78.5865C168.905 76.5493 169.02 74.6475 169.168 73.1479C169.714 67.6208 170.25 61.0947 170.344 56.3101C170.439 51.5255 169.965 50.1537 169.965 50.1537L168.893 48.0836C168.893 48.0836 166.51 54.8344 159.893 53.93C154.051 53.1311 153.013 47.0815 153.013 47.0815C153.013 47.0815 151.682 49.3013 151.587 52.8531C151.518 55.4349 151.851 61.1955 152.256 68.2244C152.409 70.865 152.571 73.6847 152.727 76.5821C152.755 77.1154 152.782 77.6335 152.806 78.1366C152.776 84.0062 152.762 91.1148 152.794 98.5708C152.836 107.869 153.073 116.268 153.288 122.149C156.232 122.539 159.468 122.711 162.944 122.5C165.544 122.352 167.976 122.082 170.246 121.734C169.871 114.231 169.376 103.232 169.264 95.5956C169.122 85.9309 168.907 80.5748 168.814 78.5865Z" fill="#FCE000"></path><path d="M156.503 94.5973C156.503 94.4935 154.254 93.1812 153.422 92.2829C152.591 91.3846 151.069 89.6584 150.135 89.1742C149.201 88.6899 146.049 87.341 145.322 86.6536C144.594 85.9661 143.21 83.8565 142.587 84.0979C141.964 84.3392 141.12 85.0374 141.916 86.9378C142.712 88.8382 145.046 90.3138 145.046 90.3138C145.046 90.3138 135.664 90.0388 134.798 90.1412C133.933 90.2435 132.895 89.9349 132.825 91.0394C132.754 92.1439 132.86 92.4908 134.625 92.6283C136.391 92.7657 142.311 93.4913 142.311 93.4913C142.311 93.4913 141.271 95.08 141.653 95.9355C142.034 96.791 142.418 96.6612 142.518 97.7687C142.617 98.8763 142.138 101.36 143.283 102.465C144.429 103.569 149.168 105.089 150.94 104.813C152.712 104.536 154.471 104.226 154.471 104.226C154.471 104.226 181.441 113.295 191.845 112.561C202.25 111.826 199.471 103.038 199.61 101.749C199.66 101.279 198.437 80.0535 194.595 79.3181C181.655 75.9293 186.346 99.4896 186.346 99.4896C173.936 97.5757 156.503 94.5973 156.503 94.5973Z" fill="#FEE9DB"></path><path d="M187.46 114.183C187.929 118.387 188.763 122.623 189.334 127" stroke="black" stroke-width="0.927649" stroke-linecap="round" stroke-linejoin="round"></path><path d="M126.656 93.6802C124.553 83.8365 125.095 68.1205 127.303 62.5354C129.217 57.6928 132.208 54.9887 137.502 52.7583C142.096 50.8197 153.023 47.3665 153.023 47.3665" stroke="black" stroke-width="0.927649" stroke-linecap="round" stroke-linejoin="round"></path><path d="M169.243 43.7729C169.066 45.661 168.937 48.0748 168.937 48.0748C167.357 52.7066 163.816 54.4603 160 53.9241C156.631 53.4506 153.763 51.5212 153.172 47.2499C153.172 47.2499 153.437 45.5909 153.668 44.2526" stroke="black" stroke-width="0.927649" stroke-linecap="round" stroke-linejoin="round"></path><path d="M98.5559 85.2552C99.0065 85.3929 111.882 97.4381 118.273 103.435C120.62 105.637 123.18 107.629 126.084 109.017C130.135 110.953 134.068 112.157 136.362 111.108" stroke="black" stroke-width="0.927649" stroke-linecap="round" stroke-linejoin="round"></path><path d="M105.725 78.6748C105.909 79.129 106.168 79.5497 106.49 79.9199L132.318 98.0373" stroke="black" stroke-width="0.927649" stroke-linecap="round" stroke-linejoin="round"></path><path d="M101.792 82.0854C101.792 82.0854 101.462 83.361 100.155 83.7414" stroke="black" stroke-width="0.927649" stroke-linecap="round" stroke-linejoin="round"></path><path d="M146.065 90.5634C144.889 89.8668 143.321 88.993 142.465 87.7816C141.248 86.0584 141.413 84.4131 142.372 84.1519C143.33 83.8907 143.932 85.5145 145.646 86.8084C146.944 87.7922 149.662 88.8158 151.232 90.0272C153.03 91.4159 154.527 94.0893 156.518 94.6866C166.299 95.9649 186.637 98.8764 189.743 100.296" stroke="black" stroke-width="0.927649" stroke-linecap="round" stroke-linejoin="round"></path><path d="M148.388 90.8898C148.388 90.8898 144.763 90.3153 142.987 90.2313C140.273 90.0999 134.506 89.8097 133.174 90.2741C132.232 90.6026 132.102 92.2203 133.399 92.4357C134.318 92.5884 142.168 93.2515 142.452 93.5968C142.737 93.942 141.717 94.857 141.763 95.7186C141.818 96.7223 142.606 97.2647 142.745 98.1401C142.887 99.0444 142.4 100.667 143.071 102.112C143.754 103.589 148.61 104.837 150.472 104.888C152.287 104.937 153.308 104.295 154.53 104.451C165.243 107.907 187.995 114.4 193.301 112.722C199.933 110.624 200.419 110.14 199.61 94.8099" stroke="black" stroke-width="0.927649" stroke-linecap="round" stroke-linejoin="round"></path><path d="M184.728 94.4871L182.949 69.7972L196.537 77.3817L200.742 94.4871L190.713 95.7781L184.728 94.4871Z" fill="#FCE000"></path><path d="M135.921 64.411C135.921 64.411 137.126 70.7492 138.198 81.5986C138.691 86.5803 138.832 90.0511 138.832 90.0511" stroke="black" stroke-width="0.927649" stroke-linecap="round" stroke-linejoin="round"></path><path d="M138.626 93.1961C138.32 99.3067 135.238 122.883 135.334 127" stroke="black" stroke-width="0.927649" stroke-linecap="round" stroke-linejoin="round"></path><path d="M126.008 88.5163C124.876 70.2813 125.038 60.1148 132.317 55.2737L138.464 88.5163C136.393 87.0963 138.626 91.421 126.008 88.5163Z" fill="#FCE000"></path><path d="M132.613 55.1887C127.626 59.2426 123.455 63.5582 125.522 88.5709C131.543 90.8301 132.477 89.3778 138.301 88.5709" stroke="black" stroke-width="0.96729" stroke-linecap="round"></path><path d="M169.037 47.8506C174.698 49.1953 194.595 57.5006 197.183 68.3448C199.771 79.189 201.389 89.7535 201.874 93.6802C199.933 95.0788 193.786 97.2304 184.727 94.6485C183.811 88.5701 182.139 75.0902 182.786 69.7972" stroke="black" stroke-width="0.96729"></path><path d="M185.698 95.1326L186.183 99.0055" stroke="black" stroke-width="0.96729"></path><path d="M145.545 28.6287C145.545 28.6287 145.198 28.4588 144.333 26.8226C143.469 25.1864 143.873 21.8447 143.873 21.8447C143.341 20.7952 143.05 19.6408 143.021 18.4653C142.977 17.3534 143.234 16.2501 143.764 15.2712C144.295 14.2923 145.08 13.474 146.037 12.9021C147.929 11.6435 151.298 11.7253 151.197 11.8575C152.558 10.9017 154.044 10.1353 155.613 9.57933C158.06 8.83044 162.728 9.09475 165.851 10.0891C168.974 11.0834 170.898 15.0103 170.898 15.0103C172.102 15.4112 173.199 16.083 174.102 16.9738C175.667 18.4904 176.26 21.0581 176.146 23.7641C176.033 26.4702 173.061 31.9452 173.061 31.9452C173.294 33.2249 173.241 34.5402 172.904 35.7966C172.323 37.3951 169.327 38.7859 169.302 38.8614C169.276 38.9369 168.04 37.1811 167.762 37.1811L145.545 28.6287Z" fill="black"></path><path d="M167.757 37.2124C168.523 36.8036 169.116 36.1335 169.428 35.3245C170.059 33.9022 169.605 32.845 168.293 32.0206C166.981 31.1962 166.274 32.0206 165.505 32.0206C164.735 32.0206 164.117 31.5045 163.442 29.8494C162.87 28.2627 162.771 26.5445 163.158 24.903C159.811 25.7679 156.393 26.3302 152.945 26.5833C150.869 26.6777 148.308 26.835 147.949 26.1742C147.715 25.7526 149.463 24.022 149.027 23.8772C148.249 24.4665 147.32 24.8262 146.346 24.9156C146.071 25.9381 145.871 26.9792 145.747 28.0307C145.848 29.1635 145.564 32.159 146.107 35.6706C146.649 39.1822 147.715 43.0336 149.261 44.909C150.806 46.7843 153.563 47.2249 153.563 47.2249C153.563 47.2249 154.503 52.058 154.61 52.2594C155.425 53.0009 156.393 53.5545 157.446 53.8808C158.499 54.2071 159.612 54.2981 160.704 54.1473C164.521 53.6754 166.299 52.1147 166.299 52.1147C166.299 52.1147 169.769 49.5974 170.04 48.0807C170.312 46.5641 170.129 45.6956 169.409 43.279C168.987 41.7648 168.867 40.1825 169.056 38.6221L167.757 37.2124Z" fill="#F9E4D6"></path><path d="M162.955 42.0265C162.207 43.1429 161.292 44.1383 160.242 44.978C158.274 46.5513 155.36 47.9043 152.268 47.0422C147.853 45.7835 146.389 39.2198 145.828 34.9971C145.295 31.3414 145.471 27.6177 146.345 24.0281" stroke="black" stroke-width="1.01117" stroke-linecap="round" stroke-linejoin="round"></path><path d="M157.397 28.9495C156.538 28.7797 155.656 28.7669 154.792 28.9117C154.71 28.9311 154.624 28.9336 154.54 28.9193C154.457 28.9049 154.377 28.8739 154.306 28.828C154.235 28.7822 154.173 28.7225 154.126 28.6526C154.078 28.5826 154.045 28.5038 154.029 28.4208C153.993 28.2466 154.027 28.0653 154.124 27.9159C154.221 27.7665 154.372 27.6608 154.546 27.6216C155.505 27.4284 156.495 27.4434 157.448 27.6657C159.454 28.0999 160.69 29.8242 160.394 30.0193C160.097 30.2144 159.416 29.3208 157.397 28.9495Z" fill="black"></path><path d="M146.452 30.0702C146.269 29.8877 146.54 28.8116 147.777 28.2389C148.516 27.8458 149.379 27.7512 150.187 27.9746C150.343 28.0269 150.476 28.1343 150.559 28.2767C150.646 28.4174 150.68 28.5851 150.653 28.7486C150.649 28.8183 150.632 28.8866 150.603 28.95C150.572 29.0125 150.529 29.0681 150.477 29.1136C150.424 29.1565 150.364 29.1905 150.3 29.2143C150.232 29.23 150.16 29.23 150.092 29.2143C149.53 29.1208 148.954 29.1444 148.401 29.2836C147.241 29.5605 146.603 30.2275 146.452 30.0702Z" fill="black"></path><path d="M151.58 37.9802C151.274 37.795 151.015 37.542 150.822 37.2409C150.63 36.9397 150.509 36.5983 150.47 36.2432C150.47 35.1042 152.363 34.0721 152.514 34.2861C152.666 34.5 151.7 35.2867 151.744 35.9789C151.764 36.179 151.832 36.3714 151.942 36.54C152.052 36.7086 152.2 36.8485 152.375 36.9481C152.516 37.0442 152.615 37.1887 152.655 37.3538C152.694 37.5188 152.671 37.6927 152.59 37.8417C152.541 37.9249 152.474 37.996 152.394 38.0494C152.312 38.1023 152.22 38.1367 152.123 38.1501C151.928 38.1592 151.735 38.099 151.58 37.9802Z" fill="black"></path><path d="M156.3 33.5373C156.88 33.4555 157.246 32.7507 157.139 31.964C157.031 31.1774 156.476 30.611 155.877 30.7054C155.278 30.7998 154.924 31.4921 155.038 32.2787C155.152 33.0653 155.719 33.6191 156.3 33.5373Z" fill="black"></path><path d="M149.386 33.4615C149.966 33.3796 150.332 32.6811 150.225 31.8945C150.118 31.1078 149.563 30.5351 148.963 30.6358C148.647 30.7401 148.384 30.9617 148.228 31.2547C148.071 31.5477 148.034 31.8896 148.124 32.2091C148.238 32.9769 148.806 33.5433 149.386 33.4615Z" fill="black"></path><path d="M153.398 47.4198C153.896 49.0371 153.909 49.3769 154.18 50.4279C154.64 52.234 155.732 53.1402 156.703 53.4046C160.368 54.3863 165.365 54.2227 169.004 49.5594C169.414 49.0308 170.417 47.382 170.216 46.7464C170.216 46.7464 169.547 43.9711 169.313 42.7125C169.089 41.4392 168.988 40.1474 169.011 38.8548C169.803 38.7643 170.557 38.4687 171.199 37.9973C171.841 37.5258 172.348 36.8951 172.67 36.1676C173.314 34.8067 173.4 33.2485 172.909 31.8253C172.909 31.8253 178.139 24.7707 174.934 18.0999C174.536 17.3194 173.965 16.6395 173.264 16.1118C172.564 15.5841 171.752 15.2224 170.891 15.054C170.891 15.054 169.787 10.6488 162.62 9.39018C155.454 8.13155 151.183 11.6998 151.183 11.6998C151.183 11.6998 146.03 11.5739 143.885 14.7771C143.235 15.8003 142.891 16.9864 142.891 18.1975C142.891 19.4085 143.235 20.5946 143.885 21.6178C143.627 23.1815 143.707 24.7819 144.118 26.3125C144.348 27.2877 144.844 28.1807 145.55 28.8927" stroke="black" stroke-width="1.01117" stroke-linecap="round" stroke-linejoin="round"></path><path d="M153.821 42.9334C153.09 42.9721 152.369 42.7475 151.79 42.3005C151.211 41.8534 150.812 41.2137 150.667 40.4979C152.687 40.8469 154.762 40.7153 156.722 40.114C156.722 40.114 156.439 42.8012 153.821 42.9334Z" fill="white" stroke="black" stroke-width="1.01117" stroke-linecap="round" stroke-linejoin="round"></path><path d="M98.2127 85.2295C96.5159 83.1263 92.1539 82.1268 89.319 80.5515C86.9449 79.2406 83.4729 76.4991 80.7107 71.0118C79.5966 68.8095 81.562 68.8097 81.562 68.8097C81.0441 68.1405 80.6347 67.3945 80.3486 66.5987C79.9839 65.4529 80.8594 65.1023 81.8348 65.4815C82.3848 65.9438 82.8719 66.476 83.2835 67.0644C82.6452 65.8101 82.0963 64.5125 81.641 63.1811C81.3784 62.1524 82.2713 61.6642 83.133 62.0382C83.9948 62.4123 85.0754 64.4926 85.0754 64.4926C85.0754 64.4926 85.5623 63.2536 86.7358 63.6231C88.1015 64.0691 88.3208 65.9237 91.0883 67.74C93.8557 69.5563 95.4838 70.0069 96.1936 70.0641C95.8524 69.2264 95.2863 68.4987 94.5575 67.961C93.7891 67.4386 93.1648 66.7317 92.742 65.9055C91.8594 63.8154 93.1487 63.0652 93.8916 63.5476C94.7988 64.1406 100.341 67.9231 101.937 69.8421C103.533 71.7612 104.806 76.5997 105.69 78.8653C105.668 78.8472 104.063 80.8497 101.937 82.7032C100.792 83.7016 99.4949 84.6568 98.2127 85.2295Z" fill="#FAE5D7" stroke="black" stroke-width="1.01117" stroke-linecap="round" stroke-linejoin="round"></path><path d="M105.334 91C105.334 91 92.1539 82.1268 89.319 80.5515C86.9449 79.2406 83.4729 76.4991 80.7107 71.0118C79.5966 68.8095 81.562 68.8097 81.562 68.8097C81.0441 68.1405 80.6347 67.3945 80.3486 66.5987C79.9839 65.4529 80.8594 65.1023 81.8348 65.4815C82.3848 65.9438 82.8719 66.476 83.2835 67.0644C82.6452 65.8101 82.0963 64.5125 81.641 63.1811C81.3784 62.1524 82.2713 61.6642 83.133 62.0382C83.9948 62.4123 85.0754 64.4926 85.0754 64.4926C85.0754 64.4926 85.5623 63.2536 86.7358 63.6231C88.1015 64.0691 88.3208 65.9237 91.0883 67.74C93.8557 69.5563 95.4838 70.0069 96.1936 70.0641C95.8524 69.2264 95.2863 68.4987 94.5575 67.961C93.7891 67.4386 93.1648 66.7317 92.742 65.9055C91.8594 63.8154 93.1487 63.0652 93.8916 63.5476C94.7988 64.1406 100.341 67.9231 101.937 69.8421C103.533 71.7612 105.45 77.7345 106.334 80C106.311 79.9819 104.063 80.8497 101.937 82.7032C100.792 83.7016 105.334 91 105.334 91Z" fill="#FEE9DB" stroke="black" stroke-width="1.01117" stroke-linecap="round" stroke-linejoin="round"></path><path d="M89.1906 76.5683C87.511 75.5682 86.0372 74.2587 84.8478 72.7096C83.0346 70.4929 82.4208 68.4694 81.0169 68.8572" stroke="black" stroke-width="1.01117" stroke-linecap="round" stroke-linejoin="round"></path><path d="M91.3736 74.6363C88.0297 72.893 85.2218 70.2785 83.2483 67.0706" stroke="black" stroke-width="1.01117" stroke-linecap="round" stroke-linejoin="round"></path><path d="M93.5199 72.4398C93.5199 72.4398 89.1137 70.1907 87.7524 68.4588C86.7676 67.1783 85.8658 65.8363 85.0527 64.4409" stroke="black" stroke-width="1.01117" stroke-linecap="round" stroke-linejoin="round"></path><path d="M93.2261 77.7645C93.2261 77.7645 94.3067 78.066 97.1789 77.2443C100.051 76.4226 100.907 76.7617 100.907 76.7617" stroke="black" stroke-width="1.01117" stroke-linecap="round" stroke-linejoin="round"></path><path d="M96.871 73.1262C96.5613 72.115 96.3253 71.0829 96.1648 70.0378" stroke="black" stroke-width="1.01117" stroke-linecap="round" stroke-linejoin="round"></path><path d="M106.833 92L100.333 87L99.7344 82.0921C101.397 80.4951 104.759 77.4853 104.906 78.2224C105.054 78.9595 106.569 80.4951 107.308 81.1707L106.833 92Z" fill="#FEE9DB"></path><path fill-rule="evenodd" clip-rule="evenodd" d="M176.847 65.332L176.847 65.3316L177.417 65.3154L177.397 65.3796C177.305 65.6653 177.197 65.9066 177.072 66.1036C176.948 66.3009 176.81 66.4013 176.66 66.4055C176.51 66.4098 176.432 66.2826 176.424 66.0231C176.415 65.712 176.505 65.2567 176.693 64.6569C176.89 64.0334 177.062 63.6017 177.208 63.3617C177.354 63.1216 177.506 62.9994 177.666 62.9948C177.756 62.9923 177.829 63.0446 177.885 63.1514C177.94 63.2583 177.982 63.4481 178.01 63.7209L179.057 63.3584C179.021 62.9683 178.896 62.6546 178.681 62.4176C178.467 62.1807 178.157 62.068 177.752 62.0794C176.757 62.1077 176.01 62.9167 175.51 64.5062C175.322 65.1151 175.235 65.6462 175.248 66.0985C175.259 66.4755 175.341 66.7694 175.495 66.9794C175.648 67.1899 175.88 67.2906 176.19 67.2818C176.369 67.2767 176.527 67.2381 176.663 67.1659C176.798 67.0938 176.931 66.978 177.062 66.8186L176.998 67.2239L177.846 67.1999L178.769 64.3292L177.149 64.3751L176.847 65.3316L176.847 65.3316L176.847 65.332ZM174.01 65.1367C173.976 65.2556 173.955 65.3316 173.946 65.3649L173.973 64.7549L174.06 62.2832L172.77 62.3198L171.144 67.3898L172.232 67.3589L173.071 64.7102C173.113 64.5911 173.151 64.4721 173.185 64.3531C173.219 64.2342 173.241 64.1582 173.25 64.125C173.246 64.158 173.24 64.2257 173.233 64.3272C173.226 64.429 173.22 64.5646 173.215 64.7347L173.124 67.334L174.384 67.2983L176.01 62.2283L174.922 62.2591L174.124 64.7796C174.082 64.8988 174.044 65.0178 174.01 65.1367ZM169.914 67.8486L172.471 67.7761L172.168 68.733L170.795 68.7719L170.472 69.7786L171.731 69.7429L171.421 70.7L170.162 70.7357L169.776 71.9284L171.178 71.8887L170.875 72.8456L168.288 72.9189L169.914 67.8486ZM164.952 73.0133L164.952 73.0129L166.737 72.9623C167.067 72.953 167.36 72.8704 167.615 72.7146C167.871 72.5589 168.105 72.3092 168.318 71.966C168.531 71.6228 168.727 71.163 168.905 70.5873C169.075 70.04 169.154 69.5755 169.143 69.1938C169.13 68.7463 169.002 68.4171 168.758 68.2072C168.515 67.9969 168.186 67.8978 167.771 67.9096L166.578 67.9434L164.952 73.0129L164.952 73.0129L164.952 73.0133ZM166.689 72.0511C166.799 72.048 166.904 72.0109 167.004 71.9397C167.105 71.8686 167.216 71.7181 167.337 71.4879C167.458 71.2577 167.584 70.9198 167.717 70.4725C167.886 69.9113 167.966 69.496 167.959 69.2274C167.954 69.0623 167.921 68.9537 167.859 68.901C167.798 68.8488 167.717 68.8237 167.617 68.8265L167.467 68.8307L166.434 72.0584L166.689 72.0511ZM173.892 67.7357L172.707 67.7693L171.081 72.8392L173.481 72.7711L173.783 71.8142L172.568 71.8487L173.892 67.7357ZM175.314 67.6952L176.499 67.6616L174.873 72.7315L173.688 72.7651L175.314 67.6952ZM178.639 65.9319C178.651 66.347 178.76 66.6703 178.967 66.9027C179.174 67.1351 179.494 67.2451 179.93 67.2328C180.4 67.2194 180.824 67.0093 181.203 66.6022C181.581 66.1952 181.892 65.599 182.134 64.8138C182.318 64.2332 182.404 63.7261 182.391 63.2924C182.379 62.8777 182.27 62.554 182.063 62.3216C181.856 62.0892 181.535 61.9792 181.101 61.9915C180.63 62.0048 180.206 62.215 179.828 62.6221C179.449 63.0291 179.138 63.6253 178.896 64.4105C178.712 64.9911 178.627 65.4982 178.639 65.9319ZM180.952 64.6635C180.759 65.2821 180.59 65.7138 180.445 65.9586C180.299 66.2033 180.159 66.3276 180.023 66.3315C179.864 66.336 179.78 66.218 179.773 65.9776C179.765 65.6899 179.866 65.2177 180.078 64.5608C180.271 63.9422 180.44 63.5105 180.585 63.2657C180.731 63.021 180.871 62.8967 181.006 62.8928C181.166 62.8883 181.25 63.0063 181.256 63.2467C181.264 63.5249 181.163 63.9971 180.952 64.6635ZM167.45 67.4952L170.345 62.3893L171.943 62.344L171.035 67.3936L169.895 67.4259L170.085 66.5147L169.132 66.5417L168.658 67.461L167.45 67.4952ZM170.625 63.9805L170.761 63.375C170.655 63.6092 170.562 63.798 170.483 63.942L169.638 65.5791L170.29 65.5606L170.625 63.9805ZM167.726 64.1017C167.656 64.2217 167.597 64.3228 167.563 64.4045C167.569 64.3611 167.568 64.2917 167.566 64.1962C167.564 64.0932 167.562 63.9599 167.568 63.796L167.586 62.4679L166.416 62.5011L166.529 65.8066L165.975 67.5375L167.159 67.5039L167.687 65.8588L169.97 62.4003L168.643 62.438L167.869 63.851C167.82 63.942 167.771 64.0256 167.726 64.1017Z" fill="black"></path></svg>