<svg xmlns="http://www.w3.org/2000/svg" width="415" height="172" viewBox="0 0 415 172" fill="none"><path d="M75.3433 2.03358L75.317 24.8016L95.0479 13.4403L75.3433 2.03358Z" fill="white" stroke="black" stroke-miterlimit="10" stroke-linecap="round" stroke-linejoin="round"></path><path d="M179.478 109.961L116.494 146.228C115.034 147.069 113.171 146.567 112.33 145.107L52.611 41.3945C51.7704 39.9347 52.272 38.0713 53.7318 37.2307L116.716 0.96372C118.176 0.123149 120.039 0.624755 120.88 2.08455L180.599 105.797C181.439 107.257 180.938 109.121 179.478 109.961Z" fill="#FFE500" stroke="black" stroke-miterlimit="10" stroke-linecap="round" stroke-linejoin="round"></path><path d="M182.302 105.684L116.407 143.627C116.407 143.627 104.81 130.642 92.8753 109.915C80.9405 89.1878 70.9273 72.6263 70.9273 72.6263L136.823 34.6824C136.823 34.6824 148.12 53.6921 157.987 70.8267C167.853 87.9613 182.302 105.684 182.302 105.684Z" fill="#C9C9C9" stroke="black" stroke-miterlimit="10" stroke-linecap="round" stroke-linejoin="round"></path><path d="M182.728 102.015L116.667 140.054C116.667 140.054 105.708 127.408 94.2009 107.425C82.6942 87.4413 73.029 71.484 73.029 71.484L138.924 33.5409C138.924 33.5409 149.825 51.8629 159.337 68.382C168.849 84.9011 182.728 102.015 182.728 102.015Z" fill="white" stroke="black" stroke-miterlimit="10" stroke-linecap="round" stroke-linejoin="round"></path><path d="M121.426 52.1117L113.676 56.5744L116.93 62.2259L124.68 57.7631L121.426 52.1117Z" fill="white" stroke="black" stroke-miterlimit="10" stroke-linecap="round" stroke-linejoin="round"></path><path d="M129.177 47.6487L121.427 52.1115L124.681 57.7629L132.431 53.3001L129.177 47.6487Z" fill="white" stroke="black" stroke-miterlimit="10" stroke-linecap="round" stroke-linejoin="round"></path><path d="M136.925 43.1873L129.175 47.6501L132.429 53.3015L140.179 48.8388L136.925 43.1873Z" fill="white" stroke="black" stroke-miterlimit="10" stroke-linecap="round" stroke-linejoin="round"></path><path d="M93.6802 75.6135L85.9298 80.0763L89.184 85.7277L96.9343 81.2649L93.6802 75.6135Z" fill="white" stroke="black" stroke-miterlimit="10" stroke-linecap="round" stroke-linejoin="round"></path><path d="M101.431 71.1505L93.6806 75.6133L96.9347 81.2647L104.685 76.8019L101.431 71.1505Z" fill="white" stroke="black" stroke-miterlimit="10" stroke-linecap="round" stroke-linejoin="round"></path><path d="M109.18 66.6883L101.43 71.1511L104.684 76.8025L112.434 72.3397L109.18 66.6883Z" fill="white" stroke="black" stroke-miterlimit="10" stroke-linecap="round" stroke-linejoin="round"></path><path d="M124.68 57.7631L116.93 62.2259L120.184 67.8773L127.935 63.4146L124.68 57.7631Z" fill="white" stroke="black" stroke-miterlimit="10" stroke-linecap="round" stroke-linejoin="round"></path><path d="M104.684 76.8007L96.934 81.2634L100.188 86.9149L107.939 82.4521L104.684 76.8007Z" fill="white" stroke="black" stroke-miterlimit="10" stroke-linecap="round" stroke-linejoin="round"></path><path d="M112.434 72.3385L104.683 76.8012L107.938 82.4527L115.688 77.9899L112.434 72.3385Z" fill="white" stroke="black" stroke-miterlimit="10" stroke-linecap="round" stroke-linejoin="round"></path><path d="M120.183 67.8763L112.433 72.3391L115.687 77.9905L123.437 73.5278L120.183 67.8763Z" fill="white" stroke="black" stroke-miterlimit="10" stroke-linecap="round" stroke-linejoin="round"></path><path d="M127.934 63.4133L120.184 67.8761L123.438 73.5275L131.188 69.0647L127.934 63.4133Z" fill="white" stroke="black" stroke-miterlimit="10" stroke-linecap="round" stroke-linejoin="round"></path><path d="M135.685 58.9503L127.934 63.4131L131.188 69.0645L138.939 64.6017L135.685 58.9503Z" fill="white" stroke="black" stroke-miterlimit="10" stroke-linecap="round" stroke-linejoin="round"></path><path d="M143.433 54.489L135.682 58.9517L138.936 64.6032L146.687 60.1404L143.433 54.489Z" fill="white" stroke="black" stroke-miterlimit="10" stroke-linecap="round" stroke-linejoin="round"></path><path d="M100.188 86.9151L92.4374 91.3779L95.6916 97.0293L103.442 92.5665L100.188 86.9151Z" fill="white" stroke="black" stroke-miterlimit="10" stroke-linecap="round" stroke-linejoin="round"></path><path d="M107.939 82.4521L100.188 86.9149L103.442 92.5663L111.193 88.1036L107.939 82.4521Z" fill="white" stroke="black" stroke-miterlimit="10" stroke-linecap="round" stroke-linejoin="round"></path><path d="M115.688 77.9899L107.938 82.4527L111.192 88.1041L118.942 83.6414L115.688 77.9899Z" fill="#C9C9C9" stroke="black" stroke-miterlimit="10" stroke-linecap="round" stroke-linejoin="round"></path><path d="M123.437 73.5278L115.687 77.9905L118.941 83.6419L126.691 79.1792L123.437 73.5278Z" fill="#FFE500" stroke="black" stroke-miterlimit="10" stroke-linecap="round" stroke-linejoin="round"></path><path d="M131.188 69.0648L123.438 73.5275L126.692 79.179L134.442 74.7162L131.188 69.0648Z" fill="#C9C9C9" stroke="black" stroke-miterlimit="10" stroke-linecap="round" stroke-linejoin="round"></path><path d="M138.939 64.6018L131.189 69.0645L134.443 74.716L142.193 70.2532L138.939 64.6018Z" fill="white" stroke="black" stroke-miterlimit="10" stroke-linecap="round" stroke-linejoin="round"></path><path d="M146.687 60.1404L138.936 64.6031L142.191 70.2546L149.941 65.7918L146.687 60.1404Z" fill="white" stroke="black" stroke-miterlimit="10" stroke-linecap="round" stroke-linejoin="round"></path><path d="M103.442 92.5666L95.6916 97.0293L98.9458 102.681L106.696 98.218L103.442 92.5666Z" fill="white" stroke="black" stroke-miterlimit="10" stroke-linecap="round" stroke-linejoin="round"></path><path d="M111.193 88.1036L103.442 92.5663L106.697 98.2178L114.447 93.755L111.193 88.1036Z" fill="white" stroke="black" stroke-miterlimit="10" stroke-linecap="round" stroke-linejoin="round"></path><path d="M118.942 83.6414L111.192 88.1041L114.446 93.7556L122.196 89.2928L118.942 83.6414Z" fill="white" stroke="black" stroke-miterlimit="10" stroke-linecap="round" stroke-linejoin="round"></path><path d="M126.691 79.1792L118.941 83.642L122.195 89.2934L129.946 84.8306L126.691 79.1792Z" fill="white" stroke="black" stroke-miterlimit="10" stroke-linecap="round" stroke-linejoin="round"></path><path d="M134.442 74.7162L126.692 79.179L129.946 84.8304L137.696 80.3676L134.442 74.7162Z" fill="white" stroke="black" stroke-miterlimit="10" stroke-linecap="round" stroke-linejoin="round"></path><path d="M149.941 65.7918L142.191 70.2546L145.445 75.906L153.195 71.4433L149.941 65.7918Z" fill="white" stroke="black" stroke-miterlimit="10" stroke-linecap="round" stroke-linejoin="round"></path><path d="M106.695 98.2167L98.945 102.68L102.199 108.331L109.95 103.868L106.695 98.2167Z" fill="white" stroke="black" stroke-miterlimit="10" stroke-linecap="round" stroke-linejoin="round"></path><path d="M114.446 93.7537L106.696 98.2165L109.95 103.868L117.7 99.4052L114.446 93.7537Z" fill="white" stroke="black" stroke-miterlimit="10" stroke-linecap="round" stroke-linejoin="round"></path><path d="M129.945 84.8294L122.195 89.2921L125.449 94.9436L133.199 90.4808L129.945 84.8294Z" fill="white" stroke="black" stroke-miterlimit="10" stroke-linecap="round" stroke-linejoin="round"></path><path d="M116.93 62.2261L109.179 66.6889L112.433 72.3403L120.184 67.8776L116.93 62.2261Z" fill="white" stroke="black" stroke-miterlimit="10" stroke-linecap="round" stroke-linejoin="round"></path><path d="M122.196 89.2915L114.445 93.7543L117.699 99.4057L125.45 94.943L122.196 89.2915Z" fill="#FF8204" stroke="black" stroke-miterlimit="10" stroke-linecap="round" stroke-linejoin="round"></path><path d="M140.179 48.8389L132.429 53.3017L135.683 58.9531L143.433 54.4903L140.179 48.8389Z" fill="#FF8204" stroke="black" stroke-miterlimit="10" stroke-linecap="round" stroke-linejoin="round"></path><path d="M132.431 53.3001L124.681 57.7629L127.935 63.4143L135.685 58.9516L132.431 53.3001Z" fill="#FF8204" stroke="black" stroke-miterlimit="10" stroke-linecap="round" stroke-linejoin="round"></path><path d="M142.193 70.2532L134.443 74.7159L137.697 80.3674L145.447 75.9046L142.193 70.2532Z" fill="#C9C9C9" stroke="black" stroke-miterlimit="10" stroke-linecap="round" stroke-linejoin="round"></path><path d="M105.926 61.0369L98.1758 65.4996L101.43 71.1511L109.18 66.6883L105.926 61.0369Z" fill="#FFE500" stroke="black" stroke-miterlimit="10" stroke-linecap="round" stroke-linejoin="round"></path><path d="M113.675 56.5747L105.925 61.0374L109.179 66.6889L116.93 62.2261L113.675 56.5747Z" fill="#FFE500" stroke="black" stroke-miterlimit="10" stroke-linecap="round" stroke-linejoin="round"></path><path d="M96.9336 81.2637L89.1832 85.7264L92.4374 91.3779L100.188 86.9151L96.9336 81.2637Z" fill="#FFE500" stroke="black" stroke-miterlimit="10" stroke-linecap="round" stroke-linejoin="round"></path><path d="M98.1768 65.499L90.4264 69.9618L93.6806 75.6132L101.431 71.1505L98.1768 65.499Z" fill="#FFE500" stroke="black" stroke-miterlimit="10" stroke-linecap="round" stroke-linejoin="round"></path><path d="M106.418 114.697L127.154 102.757" stroke="#C9C9C9" stroke-miterlimit="10" stroke-linecap="round" stroke-linejoin="round"></path><path d="M107.971 117.394L128.707 105.454" stroke="#C9C9C9" stroke-miterlimit="10" stroke-linecap="round" stroke-linejoin="round"></path><path d="M109.814 119.924L130.552 107.983" stroke="#C9C9C9" stroke-miterlimit="10" stroke-linecap="round" stroke-linejoin="round"></path><path d="M111.762 122.445L132.5 110.503" stroke="#C9C9C9" stroke-miterlimit="10" stroke-linecap="round" stroke-linejoin="round"></path><path d="M147.798 104.612L168.535 92.6715" stroke="#C9C9C9" stroke-miterlimit="10" stroke-linecap="round" stroke-linejoin="round"></path><path d="M149.351 107.309L170.088 95.3685" stroke="#C9C9C9" stroke-miterlimit="10" stroke-linecap="round" stroke-linejoin="round"></path><path d="M151.194 109.839L171.932 97.8979" stroke="#C9C9C9" stroke-miterlimit="10" stroke-linecap="round" stroke-linejoin="round"></path><path d="M153.143 112.36L173.881 100.418" stroke="#C9C9C9" stroke-miterlimit="10" stroke-linecap="round" stroke-linejoin="round"></path><path d="M76.2118 3.5203C77.0359 3.04579 77.3193 1.99307 76.8448 1.16899C76.3703 0.344909 75.3176 0.0615314 74.4935 0.536047C73.6694 1.01056 73.386 2.06328 73.8605 2.88736C74.335 3.71144 75.3878 3.99482 76.2118 3.5203Z" fill="black"></path><path d="M70.9273 72.6263L138.947 33.5277L124.724 8.76178" stroke="black" stroke-miterlimit="10" stroke-linecap="round" stroke-linejoin="round"></path><path d="M73.3529 137.151C62.2654 135.985 54.6311 127.939 53.1389 117" stroke="black" stroke-miterlimit="10" stroke-linecap="round" stroke-linejoin="round"></path><path d="M73.3529 137.182C62.2654 138.348 54.6311 146.394 53.1389 157.333" stroke="black" stroke-miterlimit="10" stroke-linecap="round" stroke-linejoin="round"></path><path d="M33 137.151C44.0875 135.985 51.7218 127.939 53.2141 117" stroke="black" stroke-miterlimit="10" stroke-linecap="round" stroke-linejoin="round"></path><path d="M33.0002 137.182C44.0878 138.348 51.7221 146.394 53.2144 157.333" stroke="black" stroke-miterlimit="10" stroke-linecap="round" stroke-linejoin="round"></path><path d="M216.005 87.4957C212.981 87.1778 210.899 84.9835 210.492 82" stroke="black" stroke-miterlimit="10" stroke-linecap="round" stroke-linejoin="round"></path><path d="M216.005 87.5043C212.981 87.8222 210.899 90.0165 210.492 93" stroke="black" stroke-miterlimit="10" stroke-linecap="round" stroke-linejoin="round"></path><path d="M205 87.4957C208.024 87.1778 210.106 84.9835 210.513 82" stroke="black" stroke-miterlimit="10" stroke-linecap="round" stroke-linejoin="round"></path><path d="M205 87.5043C208.024 87.8222 210.106 90.0165 210.513 93" stroke="black" stroke-miterlimit="10" stroke-linecap="round" stroke-linejoin="round"></path><path d="M395.008 88.9937C390.609 88.5313 387.581 85.3396 386.989 81" stroke="black" stroke-miterlimit="10" stroke-linecap="round" stroke-linejoin="round"></path><path d="M395.008 89.0063C390.609 89.4687 387.581 92.6604 386.989 97" stroke="black" stroke-miterlimit="10" stroke-linecap="round" stroke-linejoin="round"></path><path d="M379 88.9937C383.398 88.5313 386.427 85.3396 387.019 81" stroke="black" stroke-miterlimit="10" stroke-linecap="round" stroke-linejoin="round"></path><path d="M379 89.0063C383.398 89.4687 386.427 92.6604 387.019 97" stroke="black" stroke-miterlimit="10" stroke-linecap="round" stroke-linejoin="round"></path><path d="M215.005 142.487C208.134 141.764 203.404 136.779 202.479 130" stroke="black" stroke-miterlimit="10" stroke-linecap="round" stroke-linejoin="round"></path><path d="M215.005 142.506C208.134 143.228 203.404 148.214 202.479 154.993" stroke="black" stroke-miterlimit="10" stroke-linecap="round" stroke-linejoin="round"></path><path d="M190 142.487C196.87 141.764 201.601 136.779 202.526 130" stroke="black" stroke-miterlimit="10" stroke-linecap="round" stroke-linejoin="round"></path><path d="M190 142.506C196.87 143.228 201.601 148.214 202.526 154.993" stroke="black" stroke-miterlimit="10" stroke-linecap="round" stroke-linejoin="round"></path><path d="M348.148 134.134C341.99 126.914 342.851 116.072 350.072 109.914C353.548 107.071 358.009 105.707 362.486 106.106C366.966 106.508 371.101 108.652 374.015 112.069C376.932 115.488 378.392 119.914 378.083 124.394C377.777 128.878 375.719 133.061 372.359 136.048C365.144 142.213 354.303 141.352 348.148 134.134Z" stroke="black" stroke-linecap="round" stroke-linejoin="round"></path><path d="M351.093 131.622C349.384 129.618 348.31 127.154 348.003 124.543C347.694 121.928 348.172 119.282 349.367 116.936C350.563 114.59 352.429 112.652 354.723 111.371C357.02 110.087 359.646 109.514 362.27 109.722C364.894 109.931 367.397 110.911 369.462 112.542C371.525 114.169 373.062 116.377 373.875 118.879C374.688 121.382 374.736 124.07 374.025 126.603C373.306 129.137 371.856 131.4 369.856 133.106C367.171 135.396 363.687 136.527 360.169 136.245C356.645 135.974 353.383 134.307 351.093 131.622Z" stroke="black" stroke-linecap="round" stroke-linejoin="round"></path><path d="M369.169 116.207L361.217 122.989L354.862 122.484" stroke="black" stroke-linecap="round" stroke-linejoin="round"></path><path d="M21.854 81.8626C27.3359 76.6887 35.971 76.9383 41.145 82.4202C43.5399 85.0644 44.8006 88.5489 44.663 92.1163C44.5228 95.6861 42.9876 99.0527 40.3937 101.501C37.7972 103.951 34.3451 105.287 30.7781 105.221C27.2086 105.157 23.8078 103.693 21.304 101.146C16.125 95.6693 16.3746 87.0342 21.854 81.8626Z" stroke="black" stroke-linecap="round" stroke-linejoin="round"></path><path d="M23.9646 84.0988C25.486 82.6629 27.3978 81.7119 29.4574 81.3645C31.5196 81.0146 33.6377 81.288 35.5467 82.1423C37.4557 82.9966 39.0676 84.3997 40.1757 86.1681C41.2862 87.939 41.8457 89.9998 41.7853 92.0896C41.7249 94.1794 41.0473 96.2044 39.8364 97.9082C38.628 99.6097 36.9377 100.917 34.985 101.662C33.0322 102.408 30.902 102.553 28.8633 102.09C26.8248 101.621 24.9711 100.562 23.5376 99.0428C21.6135 97.0042 20.5773 94.2858 20.6607 91.4839C20.7345 88.6768 21.926 86.0229 23.9646 84.0988Z" stroke="black" stroke-linecap="round" stroke-linejoin="round"></path><path d="M36.9165 97.8217L31.2184 91.7844L31.3647 86.7226" stroke="black" stroke-linecap="round" stroke-linejoin="round"></path><path d="M213.627 62.5093C212.884 70.0106 206.203 75.4872 198.702 74.7441C195.16 74.3196 191.922 72.5169 189.686 69.7341C187.45 66.948 186.4 63.3999 186.751 59.8505C187.103 56.2976 188.832 53.0248 191.568 50.7346C194.304 48.441 197.831 47.3154 201.391 47.5945C208.893 48.3306 214.37 55.0115 213.627 62.5093Z" stroke="black" stroke-linecap="round" stroke-linejoin="round"></path><path d="M210.567 62.2063C210.361 64.288 209.542 66.26 208.215 67.8735C206.888 69.4903 205.11 70.6736 203.109 71.2812C201.108 71.8888 198.971 71.8873 196.975 71.2796C194.975 70.6716 193.2 69.4833 191.875 67.8664C190.55 66.2496 189.733 64.2767 189.529 62.1964C189.324 60.1195 189.742 58.0236 190.727 56.1802C191.712 54.3368 193.224 52.8293 195.067 51.8417C196.913 50.8578 199.007 50.4416 201.086 50.6475C203.875 50.9238 206.441 52.2956 208.216 54.465C210.002 56.632 210.843 59.4167 210.567 62.2063Z" stroke="black" stroke-linecap="round" stroke-linejoin="round"></path><path d="M191.789 60.3461L200.05 61.1644L203.261 65.0807" stroke="black" stroke-linecap="round" stroke-linejoin="round"></path><path d="M331.168 16.4793L311.471 27.8976L331.208 39.2473L331.168 16.4793Z" fill="white" stroke="black" stroke-miterlimit="10" stroke-linecap="round" stroke-linejoin="round"></path><path d="M290.186 160.746L227.18 124.516C225.72 123.676 225.217 121.813 226.057 120.353L285.715 16.6047C286.555 15.1444 288.418 14.6417 289.879 15.4814L352.884 51.7114C354.344 52.5512 354.847 54.4143 354.007 55.8746L294.349 159.622C293.509 161.083 291.646 161.585 290.186 160.746Z" fill="#C0E5B5" stroke="black" stroke-miterlimit="10" stroke-linecap="round" stroke-linejoin="round"></path><path d="M295.302 161.038L229.385 123.134C229.385 123.134 234.785 106.582 246.707 85.848C258.63 65.1141 267.917 48.1346 267.917 48.1346L333.835 86.0398C333.835 86.0398 323.077 105.359 313.221 122.5C303.364 139.64 295.302 161.038 295.302 161.038Z" fill="#C9C9C9" stroke="black" stroke-miterlimit="10" stroke-linecap="round" stroke-linejoin="round"></path><path d="M298.688 159.563L232.605 121.562C232.605 121.562 238.031 105.733 249.526 85.7426C261.021 65.7525 269.96 49.3776 269.96 49.3776L335.877 87.282C335.877 87.282 325.515 105.914 316.012 122.438C306.51 138.963 298.688 159.563 298.688 159.563Z" fill="white" stroke="black" stroke-miterlimit="10" stroke-linecap="round" stroke-linejoin="round"></path><path d="M311.029 81.486L303.276 77.0278L300.025 82.6812L307.778 87.1394L311.029 81.486Z" fill="white" stroke="black" stroke-miterlimit="10" stroke-linecap="round" stroke-linejoin="round"></path><path d="M318.783 85.9445L311.03 81.4863L307.779 87.1396L315.532 91.5979L318.783 85.9445Z" fill="white" stroke="black" stroke-miterlimit="10" stroke-linecap="round" stroke-linejoin="round"></path><path d="M326.533 90.4013L318.78 85.9431L315.529 91.5964L323.282 96.0546L326.533 90.4013Z" fill="white" stroke="black" stroke-miterlimit="10" stroke-linecap="round" stroke-linejoin="round"></path><path d="M276.768 69.3072L269.015 64.849L265.764 70.5023L273.517 74.9606L276.768 69.3072Z" fill="white" stroke="black" stroke-miterlimit="10" stroke-linecap="round" stroke-linejoin="round"></path><path d="M284.521 73.7657L276.768 69.3075L273.517 74.9608L281.27 79.419L284.521 73.7657Z" fill="white" stroke="black" stroke-miterlimit="10" stroke-linecap="round" stroke-linejoin="round"></path><path d="M292.273 78.2233L284.52 73.765L281.269 79.4184L289.022 83.8766L292.273 78.2233Z" fill="white" stroke="black" stroke-miterlimit="10" stroke-linecap="round" stroke-linejoin="round"></path><path d="M307.778 87.1394L300.025 82.6812L296.774 88.3345L304.527 92.7927L307.778 87.1394Z" fill="white" stroke="black" stroke-miterlimit="10" stroke-linecap="round" stroke-linejoin="round"></path><path d="M281.271 79.4178L273.518 74.9596L270.267 80.6129L278.02 85.0711L281.271 79.4178Z" fill="white" stroke="black" stroke-miterlimit="10" stroke-linecap="round" stroke-linejoin="round"></path><path d="M289.023 83.8754L281.27 79.4172L278.019 85.0705L285.772 89.5287L289.023 83.8754Z" fill="white" stroke="black" stroke-miterlimit="10" stroke-linecap="round" stroke-linejoin="round"></path><path d="M296.775 88.333L289.022 83.8748L285.771 89.5281L293.524 93.9863L296.775 88.333Z" fill="white" stroke="black" stroke-miterlimit="10" stroke-linecap="round" stroke-linejoin="round"></path><path d="M304.528 92.7915L296.775 88.3333L293.524 93.9866L301.277 98.4448L304.528 92.7915Z" fill="white" stroke="black" stroke-miterlimit="10" stroke-linecap="round" stroke-linejoin="round"></path><path d="M312.282 97.2499L304.529 92.7917L301.278 98.4451L309.031 102.903L312.282 97.2499Z" fill="white" stroke="black" stroke-miterlimit="10" stroke-linecap="round" stroke-linejoin="round"></path><path d="M320.032 101.707L312.279 97.2485L309.028 102.902L316.781 107.36L320.032 101.707Z" fill="white" stroke="black" stroke-miterlimit="10" stroke-linecap="round" stroke-linejoin="round"></path><path d="M270.267 80.6126L262.514 76.1544L259.263 81.8078L267.016 86.266L270.267 80.6126Z" fill="white" stroke="black" stroke-miterlimit="10" stroke-linecap="round" stroke-linejoin="round"></path><path d="M278.02 85.0711L270.267 80.6129L267.016 86.2662L274.769 90.7244L278.02 85.0711Z" fill="white" stroke="black" stroke-miterlimit="10" stroke-linecap="round" stroke-linejoin="round"></path><path d="M285.772 89.5287L278.019 85.0705L274.768 90.7239L282.521 95.1821L285.772 89.5287Z" fill="#C9C9C9" stroke="black" stroke-miterlimit="10" stroke-linecap="round" stroke-linejoin="round"></path><path d="M293.524 93.9864L285.771 89.5281L282.52 95.1815L290.273 99.6397L293.524 93.9864Z" fill="#FFE500" stroke="black" stroke-miterlimit="10" stroke-linecap="round" stroke-linejoin="round"></path><path d="M301.277 98.4448L293.524 93.9866L290.273 99.6399L298.026 104.098L301.277 98.4448Z" fill="#C9C9C9" stroke="black" stroke-miterlimit="10" stroke-linecap="round" stroke-linejoin="round"></path><path d="M309.031 102.903L301.278 98.4451L298.027 104.098L305.78 108.557L309.031 102.903Z" fill="white" stroke="black" stroke-miterlimit="10" stroke-linecap="round" stroke-linejoin="round"></path><path d="M316.781 107.36L309.028 102.902L305.777 108.555L313.53 113.013L316.781 107.36Z" fill="white" stroke="black" stroke-miterlimit="10" stroke-linecap="round" stroke-linejoin="round"></path><path d="M267.016 86.266L259.263 81.8078L256.012 87.4611L263.765 91.9193L267.016 86.266Z" fill="white" stroke="black" stroke-miterlimit="10" stroke-linecap="round" stroke-linejoin="round"></path><path d="M274.769 90.7244L267.016 86.2662L263.765 91.9196L271.518 96.3778L274.769 90.7244Z" fill="white" stroke="black" stroke-miterlimit="10" stroke-linecap="round" stroke-linejoin="round"></path><path d="M282.521 95.182L274.768 90.7238L271.517 96.3771L279.27 100.835L282.521 95.182Z" fill="white" stroke="black" stroke-miterlimit="10" stroke-linecap="round" stroke-linejoin="round"></path><path d="M290.273 99.6397L282.52 95.1815L279.269 100.835L287.022 105.293L290.273 99.6397Z" fill="white" stroke="black" stroke-miterlimit="10" stroke-linecap="round" stroke-linejoin="round"></path><path d="M298.026 104.098L290.273 99.64L287.023 105.293L294.776 109.752L298.026 104.098Z" fill="white" stroke="black" stroke-miterlimit="10" stroke-linecap="round" stroke-linejoin="round"></path><path d="M313.53 113.013L305.777 108.555L302.527 114.209L310.28 118.667L313.53 113.013Z" fill="white" stroke="black" stroke-miterlimit="10" stroke-linecap="round" stroke-linejoin="round"></path><path d="M263.766 91.9181L256.013 87.4599L252.762 93.1132L260.515 97.5715L263.766 91.9181Z" fill="white" stroke="black" stroke-miterlimit="10" stroke-linecap="round" stroke-linejoin="round"></path><path d="M271.519 96.3765L263.766 91.9183L260.515 97.5717L268.268 102.03L271.519 96.3765Z" fill="white" stroke="black" stroke-miterlimit="10" stroke-linecap="round" stroke-linejoin="round"></path><path d="M287.023 105.292L279.27 100.834L276.019 106.487L283.772 110.945L287.023 105.292Z" fill="white" stroke="black" stroke-miterlimit="10" stroke-linecap="round" stroke-linejoin="round"></path><path d="M300.025 82.6809L292.272 78.2227L289.021 83.8761L296.774 88.3343L300.025 82.6809Z" fill="white" stroke="black" stroke-miterlimit="10" stroke-linecap="round" stroke-linejoin="round"></path><path d="M279.271 100.834L271.518 96.376L268.267 102.029L276.02 106.488L279.271 100.834Z" fill="#FF8204" stroke="black" stroke-miterlimit="10" stroke-linecap="round" stroke-linejoin="round"></path><path d="M323.282 96.0545L315.529 91.5963L312.278 97.2497L320.031 101.708L323.282 96.0545Z" fill="#FF8204" stroke="black" stroke-miterlimit="10" stroke-linecap="round" stroke-linejoin="round"></path><path d="M315.532 91.5979L307.779 87.1396L304.528 92.793L312.281 97.2512L315.532 91.5979Z" fill="#FF8204" stroke="black" stroke-miterlimit="10" stroke-linecap="round" stroke-linejoin="round"></path><path d="M305.78 108.557L298.027 104.098L294.776 109.752L302.529 114.21L305.78 108.557Z" fill="#C9C9C9" stroke="black" stroke-miterlimit="10" stroke-linecap="round" stroke-linejoin="round"></path><path d="M295.524 72.57L287.771 68.1118L284.52 73.7651L292.273 78.2233L295.524 72.57Z" fill="#FFE500" stroke="black" stroke-miterlimit="10" stroke-linecap="round" stroke-linejoin="round"></path><path d="M303.276 77.0276L295.523 72.5694L292.272 78.2227L300.025 82.6809L303.276 77.0276Z" fill="#FFE500" stroke="black" stroke-miterlimit="10" stroke-linecap="round" stroke-linejoin="round"></path><path d="M273.517 74.9593L265.764 70.501L262.513 76.1544L270.266 80.6126L273.517 74.9593Z" fill="#FFE500" stroke="black" stroke-miterlimit="10" stroke-linecap="round" stroke-linejoin="round"></path><path d="M287.772 68.1123L280.019 63.6541L276.768 69.3075L284.521 73.7657L287.772 68.1123Z" fill="#FFE500" stroke="black" stroke-miterlimit="10" stroke-linecap="round" stroke-linejoin="round"></path><path d="M249.377 99.9594L270.121 111.888" stroke="#C9C9C9" stroke-miterlimit="10" stroke-linecap="round" stroke-linejoin="round"></path><path d="M247.826 102.657L268.57 114.586" stroke="#C9C9C9" stroke-miterlimit="10" stroke-linecap="round" stroke-linejoin="round"></path><path d="M246.565 105.522L267.31 117.451" stroke="#C9C9C9" stroke-miterlimit="10" stroke-linecap="round" stroke-linejoin="round"></path><path d="M245.365 108.473L266.11 120.402" stroke="#C9C9C9" stroke-miterlimit="10" stroke-linecap="round" stroke-linejoin="round"></path><path d="M278.891 130.668L299.635 142.597" stroke="#C9C9C9" stroke-miterlimit="10" stroke-linecap="round" stroke-linejoin="round"></path><path d="M277.339 133.366L298.083 145.295" stroke="#C9C9C9" stroke-miterlimit="10" stroke-linecap="round" stroke-linejoin="round"></path><path d="M276.078 136.231L296.823 148.16" stroke="#C9C9C9" stroke-miterlimit="10" stroke-linecap="round" stroke-linejoin="round"></path><path d="M274.878 139.182L295.623 151.111" stroke="#C9C9C9" stroke-miterlimit="10" stroke-linecap="round" stroke-linejoin="round"></path><path d="M330.32 17.9774C331.144 18.4514 332.196 18.1674 332.671 17.3431C333.145 16.5187 332.861 15.4662 332.036 14.9921C331.212 14.5181 330.159 14.8021 329.685 15.6265C329.211 16.4508 329.495 17.5034 330.32 17.9774Z" fill="black"></path><path d="M267.917 48.1346L335.901 87.2952L350.166 62.5539" stroke="black" stroke-miterlimit="10" stroke-linecap="round" stroke-linejoin="round"></path></svg>