<svg xmlns="http://www.w3.org/2000/svg" width="35" height="49" viewBox="0 0 35 49" fill="none"><path d="M18 47L11 39L7 32.5L3 23.5L1.5 16L3.5 10L7.5 5L12.5 2.5L17 1.5L22.5 2.5L27.5 5L32 10L34 14.5L33.5 19.5L32 25L27 33.5L18 47Z" fill="#FFE600" stroke="black"></path><path d="M17.4521 49L16.3781 47.7918C15.7069 47.1205 0 28.5945 0 17.4521C0 7.7863 7.7863 0 17.4521 0C27.1178 0 34.9041 7.7863 34.9041 17.4521C34.9041 28.5945 19.1973 47.1205 18.526 47.926L17.4521 49ZM17.4521 2.68493C9.26301 2.68493 2.68493 9.26301 2.68493 17.4521C2.68493 26.0438 13.9616 40.5425 17.4521 44.8384C20.9425 40.5425 32.2192 26.0438 32.2192 17.4521C32.2192 9.26301 25.6411 2.68493 17.4521 2.68493Z" fill="black"></path><path d="M17.4521 24.1644C13.6931 24.1644 10.7397 21.211 10.7397 17.4521C10.7397 13.6932 13.6931 10.7397 17.4521 10.7397C21.211 10.7397 24.1644 13.6932 24.1644 17.4521C24.1644 21.211 21.211 24.1644 17.4521 24.1644ZM17.4521 13.4247C15.1699 13.4247 13.4247 15.1699 13.4247 17.4521C13.4247 19.7342 15.1699 21.4795 17.4521 21.4795C19.7342 21.4795 21.4794 19.7342 21.4794 17.4521C21.4794 15.1699 19.7342 13.4247 17.4521 13.4247Z" fill="black"></path><circle cx="17.5" cy="17.5" r="4.5" fill="white"></circle></svg>