<svg xmlns="http://www.w3.org/2000/svg" width="67" height="51" viewBox="0 0 67 51" fill="none"><path d="M5 5L1.5 8L2 23.5L5 33.5L11.5 42L17.5 47L24 50H33L40.5 47L45.5 41.5H48L56 44L62 41.5L66 33.5L64.5 27.5L60.5 22.5L54 21.5L56 7.5L51 5L38 2L27 1L13.5 2L5 5Z" fill="#FFE600"></path><path d="M52.5 27.5L49 35L53 36.5L57 35L58.5 32.5V30.5L56 28.5L52.5 27.5Z" fill="white" stroke="black"></path><path d="M45.6279 41.4757C45.6279 41.4757 51.6 44.5159 58.1693 42.2628C63.8699 40.3083 66.3673 35.0693 65.4443 29.7758C64.0599 21.8221 57.4473 21.4457 53.9998 21.5M52.6858 27.5C52.6858 27.5 57.8706 27.6312 58.6579 31.0516C59.1736 33.3319 57.8164 35.2322 55.4004 35.9108C52.4687 36.7523 49.5369 35.395 49.5369 35.395" stroke="black" stroke-width="2" stroke-linecap="round" stroke-linejoin="round"></path><path d="M21 11L10 13L13 15L21.5 16.5L35 17L45.5 15L48 13L38.5 11L30 10L21 11Z" fill="white"></path><path d="M45.5464 41.4218C43.7548 43.7021 41.7461 45.6294 39.5472 47.041C36.4255 49.0227 32.245 50 28.146 50" stroke="black" stroke-width="2" stroke-linecap="round" stroke-linejoin="round"></path><path d="M52.5229 27.467C51.6543 30.2359 50.5956 32.8962 49.374 35.3122" stroke="black" stroke-width="2" stroke-linecap="round" stroke-linejoin="round"></path><path d="M28.2 49.9968C24.101 49.9968 19.9206 49.0194 16.7989 47.0378C6.97209 40.7671 1 24.4253 1 8.97939M55.3458 8.97939C55.3458 13.0784 54.9386 17.2318 54.1243 21.2493" stroke="black" stroke-width="2" stroke-linecap="round" stroke-linejoin="round"></path><path d="M28.1187 16.9075C21.1694 16.9075 14.2472 16.1202 8.95381 14.5729C-1.63304 11.4783 -1.63304 6.42928 8.95381 3.33466C14.2472 1.78735 21.1965 1 28.1187 1C35.068 1 41.963 1.78735 47.2836 3.33466C57.8705 6.42928 57.8705 11.4511 47.2836 14.5729C41.9902 16.1202 35.068 16.9075 28.1187 16.9075Z" stroke="black" stroke-width="2" stroke-linecap="round" stroke-linejoin="round"></path><path d="M48.4509 14.219C47.2294 13.6218 45.9806 13.1331 44.6776 12.7802C40.1171 11.45 34.1179 10.7714 28.1187 10.7714C22.1195 10.7714 11.6318 12.219 8.13184 14.219" stroke="black" stroke-width="2" stroke-linecap="round" stroke-linejoin="round"></path></svg>