<svg xmlns="http://www.w3.org/2000/svg" width="51" height="53" viewBox="0 0 51 53" fill="none"><path d="M39.1176 27.9782C38.3881 34.0534 34.409 36.4809 32.6905 38.2431C30.9694 40.0104 31.2777 40.3623 31.3933 42.9542C31.4125 43.2749 31.366 43.5962 31.2564 43.8982C31.1468 44.2001 30.9765 44.4765 30.7561 44.7102C30.5356 44.9439 30.2697 45.1299 29.9746 45.2569C29.6795 45.3839 29.3615 45.4491 29.0402 45.4485H22.2124C21.8911 45.4487 21.5732 45.3833 21.2782 45.2562C20.9831 45.1291 20.7172 44.9431 20.4966 44.7095C20.276 44.4759 20.1055 44.1998 19.9955 43.8979C19.8854 43.5961 19.8383 43.275 19.8568 42.9542C19.8568 40.4111 20.0931 39.8203 18.5621 38.2431C16.6099 36.2908 12.0169 33.5345 12.0169 25.954C12.0051 24.0711 12.3836 22.2061 13.1284 20.4767C13.8732 18.7473 14.9682 17.191 16.3444 15.9058C17.7205 14.6206 19.348 13.6344 21.1242 13.0094C22.9004 12.3844 24.7869 12.1341 26.6646 12.2744C28.5423 12.4146 30.3706 12.9424 32.0343 13.8243C33.698 14.7062 35.1609 15.9232 36.3308 17.3986C37.5008 18.874 38.3524 20.5757 38.8321 22.3966C39.3117 24.2174 39.4089 26.1179 39.1176 27.9782Z" fill="#FFE600" stroke="black" stroke-width="2.5" stroke-linecap="round" stroke-linejoin="round"></path><path d="M21.67 45.3073V49.1913C21.67 50.2522 22.2609 51.123 22.9878 51.123H28.2616C28.9937 51.123 29.5819 50.2496 29.5819 49.1913V45.3073M23.6223 18.2322C22.1055 18.2329 20.6511 18.8359 19.5788 19.9087C18.5066 20.9814 17.9042 22.4361 17.9042 23.9529M44.4604 26.4729H49.1715M39.7184 11.0293L43.0604 7.6873M42.2872 39.5634L45.6292 42.9029M25.626 2V5.80952M8.26095 7.68474L11.5798 11.0293M5.69216 42.9029L9.01104 39.5634M6.7916 26.4729H2.08301" stroke="black" stroke-width="2.5" stroke-linecap="round" stroke-linejoin="round"></path></svg>