<svg xmlns="http://www.w3.org/2000/svg" width="287" height="181" viewBox="0 0 287 181" fill="none"><path d="M1 43.8191H148.934V47.0446H1" stroke="black" stroke-linecap="round" stroke-linejoin="round"></path><path d="M142.626 99.2349H1" stroke="black" stroke-linecap="round" stroke-linejoin="round"></path><path d="M1 96.009H140.999" stroke="black" stroke-linecap="round" stroke-linejoin="round"></path><path d="M120.979 99.2349V134.505" stroke="black" stroke-linecap="round" stroke-linejoin="round"></path><path d="M120.979 47.0449V64.231" stroke="black" stroke-linecap="round" stroke-linejoin="round"></path><path d="M109.199 79.7534L107.142 83.2442H131.551L129.493 79.7534H109.199Z" stroke="black" stroke-linecap="round" stroke-linejoin="round"></path><path d="M129.192 83.2443L127.601 95.3781" stroke="black" stroke-linecap="round" stroke-linejoin="round"></path><path d="M109.49 83.2443L111.079 95.3781" stroke="black" stroke-linecap="round" stroke-linejoin="round"></path><path d="M84.9291 79.7534L82.8718 83.2442H107.281L105.224 79.7534H84.9291Z" stroke="black" stroke-linecap="round" stroke-linejoin="round"></path><path d="M104.931 83.2443L103.34 95.3781" stroke="black" stroke-linecap="round" stroke-linejoin="round"></path><path d="M85.3154 83.2443L86.9066 95.3781" stroke="black" stroke-linecap="round" stroke-linejoin="round"></path><path d="M109.199 64.131L107.142 67.6217H131.551L129.493 64.131H109.199Z" stroke="black" stroke-linecap="round" stroke-linejoin="round"></path><path d="M129.192 67.6212L127.601 79.7551" stroke="black" stroke-linecap="round" stroke-linejoin="round"></path><path d="M109.49 67.6212L111.079 79.7551" stroke="black" stroke-linecap="round" stroke-linejoin="round"></path><path d="M84.9291 64.131L82.8718 67.6217H107.281L105.224 64.131H84.9291Z" stroke="black" stroke-linecap="round" stroke-linejoin="round"></path><path d="M104.931 67.6212L103.34 79.7551" stroke="black" stroke-linecap="round" stroke-linejoin="round"></path><path d="M85.3154 67.6212L86.9066 79.7551" stroke="black" stroke-linecap="round" stroke-linejoin="round"></path><path d="M128.63 71.1007H120.188C119.347 71.1007 118.542 71.4235 117.948 71.994C117.354 72.5646 117.021 73.3403 117.021 74.1486C117.021 74.9568 117.354 75.73 117.948 76.3006C118.542 76.8711 119.349 77.1914 120.188 77.1914H127.927" stroke="black" stroke-linecap="round" stroke-linejoin="round"></path><path d="M104.138 71.1007H95.698C94.8569 71.1007 94.0496 71.421 93.4558 71.994C92.8621 72.5646 92.5261 73.3403 92.5261 74.1486C92.5261 74.5489 92.6069 74.9443 92.7683 75.3147C92.9272 75.685 93.1615 76.0203 93.4558 76.3031C93.7501 76.5858 94.0991 76.811 94.4845 76.9637C94.8699 77.1163 95.2814 77.1964 95.698 77.1939H103.435" stroke="black" stroke-linecap="round" stroke-linejoin="round"></path><path d="M110.459 86.8601H118.902C119.319 86.8601 119.73 86.9377 120.116 87.0903C120.501 87.243 120.85 87.4682 121.144 87.7509C121.439 88.0337 121.673 88.369 121.832 88.7394C121.991 89.1097 122.074 89.5051 122.072 89.9055C122.072 90.3058 121.991 90.7012 121.832 91.0715C121.673 91.4419 121.439 91.7772 121.144 92.06C120.85 92.3427 120.501 92.568 120.116 92.7206C119.73 92.8732 119.319 92.9533 118.902 92.9533H111.163" stroke="black" stroke-linecap="round" stroke-linejoin="round"></path><path d="M36.6974 75.3258L34.812 77.7456H57.1846L55.2992 75.3258H36.6974Z" stroke="black" stroke-linecap="round" stroke-linejoin="round"></path><path d="M55.0296 77.7437L53.5713 95.3601" stroke="black" stroke-linecap="round" stroke-linejoin="round"></path><path d="M36.9658 77.7437L38.4216 95.3601" stroke="black" stroke-linecap="round" stroke-linejoin="round"></path><path d="M77.5404 75.3258L79.4259 77.7456H57.0532L58.9387 75.3258H77.5404Z" stroke="black" stroke-linecap="round" stroke-linejoin="round"></path><path d="M59.2029 77.7437L60.6612 95.3601" stroke="black" stroke-linecap="round" stroke-linejoin="round"></path><path d="M77.1932 77.7437L75.7349 95.3601" stroke="black" stroke-linecap="round" stroke-linejoin="round"></path><path d="M69.2098 55.3074L71.0953 57.7271H48.7227L50.6081 55.3074H69.2098Z" stroke="black" stroke-linecap="round" stroke-linejoin="round"></path><path d="M50.8765 57.7252L52.3348 75.3417" stroke="black" stroke-linecap="round" stroke-linejoin="round"></path><path d="M68.858 57.7252L67.3997 75.3417" stroke="black" stroke-linecap="round" stroke-linejoin="round"></path><path d="M49.7719 25.004L49.7693 40.461" stroke="black" stroke-linecap="round" stroke-linejoin="round"></path><path d="M40.0865 43.7792C39.722 43.1411 39.5344 42.4004 39.5397 41.6422V40.4561H50.1544V41.6422C50.1622 42.3979 49.9721 43.1411 49.6075 43.7792" stroke="black" stroke-linecap="round" stroke-linejoin="round"></path><path d="M39.8984 25.004L39.901 40.461" stroke="black" stroke-linecap="round" stroke-linejoin="round"></path><path d="M41.8928 9.0127H47.7809V11.7427H41.8928V9.0127Z" stroke="black" stroke-linecap="round" stroke-linejoin="round"></path><path d="M42.7719 11.9954V12.4458C42.7719 14.8355 41.5583 15.864 40.3526 19.4473C39.527 21.9096 39.5609 24.5721 39.6468 25.0075H50.0298C50.1157 24.5696 50.1495 21.9096 49.324 19.4473C48.1235 15.859 46.9047 14.8355 46.9047 12.4458V11.9954" stroke="black" stroke-linecap="round" stroke-linejoin="round"></path><path d="M36.7195 25.004V40.461" stroke="black" stroke-linecap="round" stroke-linejoin="round"></path><path d="M27.024 43.7792C26.6595 43.1411 26.4719 42.4004 26.4772 41.6422V40.4561H37.0919V41.6422C37.0997 42.3979 36.9096 43.1411 36.545 43.7792" stroke="black" stroke-linecap="round" stroke-linejoin="round"></path><path d="M26.8533 25.004L26.8559 40.461" stroke="black" stroke-linecap="round" stroke-linejoin="round"></path><path d="M28.843 9.0127H34.7311V11.7427H28.843V9.0127Z" stroke="black" stroke-linecap="round" stroke-linejoin="round"></path><path d="M29.7174 11.9954V12.4458C29.7174 14.8355 28.5013 15.864 27.2981 19.4473C26.4726 21.9096 26.5064 24.5721 26.5924 25.0075H36.9727C37.0586 24.5696 37.0925 21.9096 36.2696 19.4473C35.069 15.859 33.8503 14.8355 33.8503 12.4458V11.9954" stroke="black" stroke-linecap="round" stroke-linejoin="round"></path><path d="M62.8434 25.004L62.8408 40.461" stroke="black" stroke-linecap="round" stroke-linejoin="round"></path><path d="M53.1449 43.7792C52.7803 43.1411 52.5928 42.4004 52.598 41.6422V40.4561H63.2127V41.6422C63.2205 42.3979 63.0304 43.1411 62.6658 43.7792" stroke="black" stroke-linecap="round" stroke-linejoin="round"></path><path d="M52.9656 25.004L52.9682 40.461" stroke="black" stroke-linecap="round" stroke-linejoin="round"></path><path d="M54.9512 9.0127H60.8393V11.7427H54.9512V9.0127Z" stroke="black" stroke-linecap="round" stroke-linejoin="round"></path><path d="M55.8217 11.9954V12.4458C55.8217 14.8355 54.6081 15.864 53.4024 19.4473C52.5768 21.9096 52.6107 24.5721 52.6966 25.0075H63.0795C63.1655 24.5696 63.1993 21.9096 62.3738 19.4473C61.1733 15.859 59.9545 14.8355 59.9545 12.4458V11.9954" stroke="black" stroke-linecap="round" stroke-linejoin="round"></path><path d="M77.7534 43.8113C77.7534 43.8113 78.0529 42.2673 78.0789 40.8085C78.105 39.3496 78.1076 34.1973 78.092 33.0787C78.0763 31.9602 77.9175 31.6374 77.9175 31.6374C77.9175 31.6374 77.9045 25.4941 77.9097 23.6249C78.1076 23.0068 78.0242 22.2536 78.0242 22.2536C78.0242 19.3609 75.2352 18.6853 74.8393 17.7219C74.4435 16.7585 74.6779 14.7566 74.6779 14.7566H70.8809C70.8809 14.7566 71.1153 16.7585 70.7195 17.7219C70.3236 18.6828 67.5346 19.3609 67.5346 22.2536C67.5346 22.2536 67.4512 23.0043 67.6491 23.6249C67.6543 25.4941 67.6413 31.6374 67.6413 31.6374C67.6413 31.6374 67.4851 31.9602 67.4668 33.0787C67.4486 34.1973 67.4538 39.3521 67.4799 40.8085C67.5059 42.2673 67.8054 43.8113 67.8054 43.8113H77.7534Z" fill="#E2F2FF" stroke="black" stroke-linecap="round" stroke-linejoin="round"></path><path d="M74.1741 16.97H71.398C70.8225 16.97 70.3538 16.5221 70.3538 15.9666V15.4861C70.3538 14.9331 70.8199 14.4827 71.398 14.4827H74.1741C74.7496 14.4827 75.2184 14.9306 75.2184 15.4861V15.9666C75.2184 16.5221 74.7522 16.97 74.1741 16.97Z" fill="#F8F8F6" stroke="black" stroke-linecap="round" stroke-linejoin="round"></path><path d="M77.9093 23.6263H67.6982V31.6388H77.9093V23.6263Z" fill="#E2F2FF" stroke="black" stroke-linecap="round" stroke-linejoin="round"></path><path d="M90.5522 43.8113C90.5522 43.8113 90.8517 42.2673 90.8778 40.8085C90.9038 39.3496 90.9064 34.1973 90.8908 33.0787C90.8752 31.9602 90.7163 31.6374 90.7163 31.6374C90.7163 31.6374 90.7033 25.4941 90.7085 23.6249C90.9064 23.0068 90.8231 22.2536 90.8231 22.2536C90.8231 19.3609 88.034 18.6853 87.6381 17.7219C87.2423 16.761 87.4767 14.7566 87.4767 14.7566H83.6798C83.6798 14.7566 83.9142 16.7585 83.5183 17.7219C83.1225 18.6828 80.3334 19.3609 80.3334 22.2536C80.3334 22.2536 80.2501 23.0043 80.448 23.6249C80.4532 25.4941 80.4402 31.6374 80.4402 31.6374C80.4402 31.6374 80.2839 31.9602 80.2657 33.0787C80.2474 34.1973 80.2527 39.3521 80.2787 40.8085C80.3047 42.2648 80.6042 43.8113 80.6042 43.8113H90.5522Z" fill="#E2F2FF" stroke="black" stroke-linecap="round" stroke-linejoin="round"></path><path d="M86.9776 16.97H84.2015C83.626 16.97 83.1572 16.5221 83.1572 15.9666V15.4861C83.1572 14.9331 83.6234 14.4827 84.2015 14.4827H86.9776C87.5531 14.4827 88.0219 14.9306 88.0219 15.4861V15.9666C88.0219 16.5221 87.5557 16.97 86.9776 16.97Z" fill="#F8F8F6" stroke="black" stroke-linecap="round" stroke-linejoin="round"></path><path d="M90.7081 23.6263H80.4971V31.6388H90.7081V23.6263Z" fill="#E2F2FF" stroke="black" stroke-linecap="round" stroke-linejoin="round"></path><path d="M103.355 43.8113C103.355 43.8113 103.655 42.2673 103.681 40.8085C103.707 39.3496 103.71 34.1973 103.694 33.0787C103.678 31.9602 103.52 31.6374 103.52 31.6374C103.52 31.6374 103.507 25.4941 103.512 23.6249C103.71 23.0068 103.626 22.2536 103.626 22.2536C103.626 19.3609 100.837 18.6853 100.441 17.7219C100.046 16.761 100.28 14.7566 100.28 14.7566H96.483C96.483 14.7566 96.7174 16.7585 96.3215 17.7219C95.9257 18.6828 93.1366 19.3609 93.1366 22.2536C93.1366 22.2536 93.0533 23.0043 93.2512 23.6249C93.2564 25.4941 93.2434 31.6374 93.2434 31.6374C93.2434 31.6374 93.0871 31.9602 93.0689 33.0787C93.0507 34.1973 93.0559 39.3521 93.0819 40.8085C93.108 42.2673 93.4074 43.8113 93.4074 43.8113H103.355Z" fill="#E2F2FF" stroke="black" stroke-linecap="round" stroke-linejoin="round"></path><path d="M99.7852 16.97H97.0091C96.4336 16.97 95.9648 16.5221 95.9648 15.9666V15.4861C95.9648 14.9331 96.431 14.4827 97.0091 14.4827H99.7852C100.361 14.4827 100.829 14.9306 100.829 15.4861V15.9666C100.827 16.5221 100.361 16.97 99.7852 16.97Z" fill="#F8F8F6" stroke="black" stroke-linecap="round" stroke-linejoin="round"></path><path d="M103.507 23.6263H93.2961V31.6388H103.507V23.6263Z" fill="#E2F2FF" stroke="black" stroke-linecap="round" stroke-linejoin="round"></path><path d="M125.834 43.5614C125.834 43.5614 126.134 42.0175 126.16 40.5586C126.186 39.0997 126.189 33.9474 126.173 32.8289C126.157 31.7103 125.999 31.3875 125.999 31.3875C125.999 31.3875 125.986 25.2443 125.991 23.375C126.189 22.7569 126.105 22.0037 126.105 22.0037C126.105 19.111 123.316 18.4354 122.92 17.472C122.525 16.5111 122.759 14.5067 122.759 14.5067H118.962C118.962 14.5067 119.196 16.5086 118.801 17.472C118.405 18.4354 115.616 19.111 115.616 22.0037C115.616 22.0037 115.532 22.7544 115.73 23.375C115.735 25.2443 115.722 31.3875 115.722 31.3875C115.722 31.3875 115.566 31.7103 115.548 32.8289C115.53 33.9474 115.535 39.1022 115.561 40.5586C115.587 42.015 115.886 43.5614 115.886 43.5614H125.834Z" fill="#E2F2FF" stroke="black" stroke-linecap="round" stroke-linejoin="round"></path><path d="M122.26 16.7188H119.484C118.908 16.7188 118.439 16.2709 118.439 15.7153V15.2349C118.439 14.6819 118.906 14.2314 119.484 14.2314H122.26C122.835 14.2314 123.304 14.6794 123.304 15.2349V15.7153C123.301 16.2709 122.835 16.7188 122.26 16.7188Z" fill="#F8F8F6" stroke="black" stroke-linecap="round" stroke-linejoin="round"></path><path d="M125.991 23.3765H115.78V31.389H125.991V23.3765Z" fill="#E2F2FF" stroke="black" stroke-linecap="round" stroke-linejoin="round"></path><path d="M58.4124 125.562C49.3629 125.562 42.0269 131.037 42.0269 140.018V142.288C42.0269 142.571 42.092 142.853 42.2144 143.109L43.8159 144.022L42.1649 144.703C42.0737 144.928 42.0269 145.168 42.0269 145.408V148.156C42.0269 148.426 42.0763 148.694 42.1753 148.947L43.5607 150.133L42.6909 150.763C42.2743 151.066 42.0295 151.539 42.0295 152.04V153.914C42.0295 154.409 42.2404 154.882 42.6128 155.222L43.7847 156.298L42.8133 157.012C42.3185 157.374 42.0295 157.938 42.0295 158.536V160.202C42.0295 160.818 42.3315 161.396 42.8446 161.766L43.7847 162.439L42.9878 162.902C42.3914 163.247 42.0295 163.868 42.0295 164.539V165.745C42.0295 166.508 42.3498 167.239 42.9201 167.769L43.7873 168.58L43.1258 168.965C42.4461 169.361 42.0321 170.069 42.0321 170.83V170.917C42.0321 175.677 46.3394 179.57 51.6051 179.57H65.1391C70.4048 179.57 74.7121 175.677 74.7121 170.917V170.83C74.7121 170.066 74.298 169.358 73.6183 168.965L72.9569 168.58L73.8241 167.769C74.3918 167.236 74.7147 166.508 74.7147 165.745V164.539C74.7147 163.871 74.3501 163.25 73.7564 162.902L72.9595 162.439L73.8996 161.766C74.4126 161.398 74.7147 160.818 74.7147 160.202V158.536C74.7147 157.938 74.4256 157.374 73.9308 157.012L72.9595 156.298L74.1314 155.222C74.5038 154.88 74.7147 154.407 74.7147 153.914V152.04C74.7147 151.537 74.4699 151.064 74.0532 150.763L73.1834 150.133L74.5689 148.947C74.6678 148.694 74.7173 148.426 74.7173 148.156V145.408C74.7173 145.166 74.6704 144.928 74.5793 144.703L72.9282 144.022L74.5298 143.109C74.6548 142.851 74.7173 142.571 74.7173 142.288V140.018C74.7173 131.035 67.3813 125.562 58.3317 125.562H58.4124Z" fill="#E2F2FF" stroke="black" stroke-linecap="round" stroke-linejoin="round"></path><path d="M68.3945 144.67C70.6446 144.517 72.3138 144.307 72.918 144.034" stroke="black" stroke-linecap="round" stroke-linejoin="round"></path><path d="M48.4153 144.702C51.6497 144.91 56.1367 144.99 60.405 144.945" stroke="black" stroke-linecap="round" stroke-linejoin="round"></path><path d="M62.6763 151.049C67.619 150.939 71.8691 150.646 72.9212 150.175" stroke="black" stroke-linecap="round" stroke-linejoin="round"></path><path d="M44.0552 150.253C44.5239 150.451 45.5969 150.613 47.0656 150.741" stroke="black" stroke-linecap="round" stroke-linejoin="round"></path><path d="M67.6633 156.995C70.2805 156.839 72.2493 156.614 72.9186 156.314" stroke="black" stroke-linecap="round" stroke-linejoin="round"></path><path d="M44.0552 156.393C45.0786 156.826 48.9953 157.092 53.636 157.192" stroke="black" stroke-linecap="round" stroke-linejoin="round"></path><path d="M52.1785 163.294C54.1212 163.354 56.2436 163.382 58.3712 163.377" stroke="black" stroke-linecap="round" stroke-linejoin="round"></path><path d="M44.0552 162.534C44.4458 162.699 45.2609 162.839 46.3755 162.957" stroke="black" stroke-linecap="round" stroke-linejoin="round"></path><path d="M44.0552 168.671C45.0161 169.077 48.5188 169.334 52.7792 169.449" stroke="black" stroke-linecap="round" stroke-linejoin="round"></path><path d="M53.4805 121.505C53.4805 120.987 63.5301 120.987 63.5301 121.505V125.574C63.5301 126.092 53.4805 126.092 53.4805 125.574V121.505Z" fill="#E2F2FF" stroke="black" stroke-linecap="round" stroke-linejoin="round"></path><path d="M20.6556 125.562C11.606 125.562 4.27002 131.037 4.27002 140.018V142.288C4.27002 142.571 4.33512 142.853 4.45752 143.109L6.0591 144.022L4.40804 144.703C4.31689 144.928 4.27002 145.168 4.27002 145.408V148.156C4.27002 148.426 4.3195 148.694 4.41846 148.947L5.80389 150.133L4.93409 150.763C4.51742 151.066 4.27263 151.539 4.27263 152.04V153.914C4.27263 154.409 4.48356 154.882 4.85596 155.222L6.02785 156.298L5.05649 157.012C4.56169 157.374 4.27263 157.938 4.27263 158.536V160.202C4.27263 160.818 4.57471 161.396 5.08774 161.766L6.02785 162.439L5.23097 162.902C4.63461 163.247 4.27263 163.868 4.27263 164.539V165.745C4.27263 166.508 4.59294 167.239 5.16326 167.769L6.03046 168.58L5.36899 168.965C4.6893 169.361 4.27523 170.069 4.27523 170.83V170.917C4.27523 175.677 8.58257 179.57 13.8482 179.57H27.3822C32.6479 179.57 36.9553 175.677 36.9553 170.917V170.83C36.9553 170.066 36.5412 169.358 35.8615 168.965L35.2 168.58L36.0672 167.769C36.635 167.236 36.9579 166.508 36.9579 165.745V164.539C36.9579 163.871 36.5933 163.25 35.9995 162.902L35.2027 162.439L36.1428 161.766C36.6558 161.398 36.9579 160.818 36.9579 160.202V158.536C36.9579 157.938 36.6688 157.374 36.174 157.012L35.2027 156.298L36.3745 155.222C36.7469 154.88 36.9579 154.407 36.9579 153.914V152.04C36.9579 151.537 36.7131 151.064 36.2964 150.763L35.4266 150.133L36.812 148.947C36.911 148.694 36.9605 148.426 36.9605 148.156V145.408C36.9605 145.166 36.9136 144.928 36.8225 144.703L35.1714 144.022L36.773 143.109C36.898 142.851 36.9605 142.571 36.9605 142.288V140.018C36.9605 131.035 29.6245 125.562 20.5749 125.562H20.6556Z" fill="#E2F2FF" stroke="black" stroke-linecap="round" stroke-linejoin="round"></path><path d="M30.6335 144.67C32.8836 144.517 34.5529 144.307 35.157 144.034" stroke="black" stroke-linecap="round" stroke-linejoin="round"></path><path d="M6.29883 144.114C7.80405 144.75 15.5333 145.025 22.6506 144.945" stroke="black" stroke-linecap="round" stroke-linejoin="round"></path><path d="M24.9109 151.049C29.8536 150.939 34.1037 150.646 35.1558 150.175" stroke="black" stroke-linecap="round" stroke-linejoin="round"></path><path d="M6.29883 150.253C6.76758 150.451 7.84051 150.613 9.30928 150.741" stroke="black" stroke-linecap="round" stroke-linejoin="round"></path><path d="M6.29883 156.393C9.04104 157.549 32.4814 157.514 35.1611 156.313" stroke="black" stroke-linecap="round" stroke-linejoin="round"></path><path d="M6.29883 162.534C7.66082 163.107 14.1218 163.39 20.6115 163.38" stroke="black" stroke-linecap="round" stroke-linejoin="round"></path><path d="M27.2986 169.397C31.1762 169.254 34.283 168.987 35.1606 168.594" stroke="black" stroke-linecap="round" stroke-linejoin="round"></path><path d="M6.29883 168.671C7.25978 169.077 10.7624 169.334 15.0229 169.449" stroke="black" stroke-linecap="round" stroke-linejoin="round"></path><path d="M15.7236 121.505C15.7236 120.987 25.7732 120.987 25.7732 121.505V125.574C25.7732 126.092 15.7236 126.092 15.7236 125.574V121.505Z" fill="#E2F2FF" stroke="black" stroke-linecap="round" stroke-linejoin="round"></path><path d="M11.5385 43.6707H16.1609C19.0542 43.6707 21.4006 41.416 21.4006 38.6359V30.7336C21.4006 27.9535 19.0542 25.6989 16.1609 25.6989H11.5385C8.64521 25.6989 6.29883 27.9535 6.29883 30.7336V38.6359C6.29883 41.416 8.64521 43.6707 11.5385 43.6707Z" stroke="black" stroke-linecap="round" stroke-linejoin="round"></path><path d="M16.4517 23.2764H10.9829V25.5235H16.4517V23.2764Z" stroke="black" stroke-linecap="round" stroke-linejoin="round"></path><path d="M21.4007 31.0529H12.0256V36.2377H21.4007V31.0529Z" stroke="black" stroke-linecap="round" stroke-linejoin="round"></path><path d="M51.6077 62.1895H68.2745" stroke="black" stroke-linecap="round" stroke-linejoin="round"></path><path d="M37.5413 82.2067H54.2081" stroke="black" stroke-linecap="round" stroke-linejoin="round"></path><path d="M59.9382 82.2067H76.6051" stroke="black" stroke-linecap="round" stroke-linejoin="round"></path><path d="M202.578 98.9039C201.521 104.784 212.727 107.544 217.62 102.665C222.516 97.7828 221.079 81.4951 221.079 81.4951C221.079 81.4951 221.667 79.9387 221.558 79.3006C214.894 78.7876 211.763 79.193 205.237 78.222C205.75 86.3947 202.909 97.5651 202.578 98.9039Z" fill="#FCE000" stroke="black" stroke-linecap="round" stroke-linejoin="round"></path><path d="M209.539 41.4674C200.214 47.8058 203.268 59.8871 203.386 64.1161C203.591 71.5831 203.599 80.8592 203.599 80.8592C203.599 80.8592 214.873 83.5668 221.537 84.0797C220.36 77.1182 218.287 45.316 209.539 41.4674Z" fill="#FCE000" stroke="black" stroke-linecap="round" stroke-linejoin="round"></path><path d="M206.003 104.176C199.498 101.113 194.477 92.1047 182.667 82.796C182.667 82.796 177.505 78.8623 181.292 75.0838C181.958 74.841 181.289 70.7222 188.188 75.2014C194.373 79.2176 210.383 84.7428 210.383 84.7428" fill="#FCE000"></path><path d="M206.003 104.176C199.498 101.113 194.477 92.1047 182.667 82.796C182.667 82.796 177.505 78.8623 181.292 75.0838C181.958 74.841 181.289 70.7222 188.188 75.2014C194.373 79.2176 210.383 84.7428 210.383 84.7428" stroke="black" stroke-linecap="round" stroke-linejoin="round"></path><path d="M185.142 73.2719C184.175 73.0492 183.873 72.2209 183.467 71.718C183.061 71.215 182.347 70.6119 181.595 69.7987C180.839 68.9854 178.181 67.1437 177.378 66.8659C176.576 66.5882 173.308 65.1218 172.399 64.6388C171.49 64.1584 170.009 62.8021 170.009 62.8021L169.136 63.2551L159.808 70.9898L158.311 70.9623C158.311 70.9623 157.154 71.0699 156.704 71.5528C156.253 72.0383 156.61 72.6063 157.285 73.0993C157.959 73.5922 159.219 73.5772 159.219 73.5772C159.219 73.5772 159.529 75.0211 159.954 75.5691C160.378 76.1196 161.36 76.2772 161.36 76.2772C161.36 76.2772 161.167 76.4449 161.029 76.8378C160.894 77.2306 161.415 78.0689 161.93 78.8396C162.449 79.6129 164.238 80.2584 164.238 80.2584C164.277 80.5988 164.342 80.9366 164.43 81.2694C164.566 81.7323 165.808 82.1077 166.493 82.3904C167.175 82.6732 168.22 82.2778 168.22 82.2778L171.279 82.2954C171.279 82.2954 176.009 83.3363 177.678 83.4214C179.345 83.5065 181.16 82.6982 181.595 82.5531C181.845 82.4705 182.363 82.468 182.97 82.508C183.772 79.4427 186.444 77.6961 187.194 74.6207C187.126 74.6132 185.191 73.2819 185.142 73.2719Z" fill="#EFC9B4"></path><path d="M162.505 74.8007L161.888 73.985" stroke="black" stroke-linecap="round" stroke-linejoin="round"></path><path d="M164.957 78.0362L164.28 77.1404" stroke="black" stroke-linecap="round" stroke-linejoin="round"></path><path d="M188.222 75.2866C187.084 74.7911 183.943 72.0661 182.826 71.0251C181.792 70.0642 178.594 67.4668 177.357 66.8988C176.346 66.4333 174.393 65.7076 172.568 64.7392C171.143 63.981 170.378 62.7298 169.828 62.8374C169.039 62.9976 168.651 64.2763 169.667 65.7201C170.682 67.164 172.206 67.3191 173.026 68.4502" stroke="black" stroke-linecap="round" stroke-linejoin="round"></path><path d="M182.649 82.8581C181.644 82.9507 179.803 83.4036 177.425 83.2485C174.956 83.0883 171.646 82.4277 171.646 82.4277" stroke="black" stroke-linecap="round" stroke-linejoin="round"></path><path d="M159.143 73.616C159.143 73.616 156.442 73.4283 156.572 72.1271C156.718 70.6633 159.614 71.0436 159.614 71.0436" stroke="black" stroke-linecap="round" stroke-linejoin="round"></path><path d="M154.201 63.5068L159.589 57.5213C159.589 57.5213 159.982 57.0858 160.636 57.4412C161.289 57.794 179.063 73.814 179.401 74.4471C179.743 75.0827 179.888 75.6257 179.638 76.0711C179.388 76.5165 174.151 82.0667 174.151 82.0667C174.151 82.0667 173.732 82.3795 173.222 82.2394C172.711 82.1017 171.985 81.5037 171.985 81.5037L154.409 65.4236C154.409 65.4236 154.083 65.0383 153.951 64.4252C153.914 64.2425 153.917 64.0674 153.958 63.9072C154.003 63.7521 154.083 63.6144 154.201 63.5068Z" fill="black" stroke="black" stroke-linecap="round" stroke-linejoin="round"></path><path d="M152.512 63.2531C152.512 63.2531 156.166 59.0717 157.595 57.6679C159.025 56.264 159.9 57.1199 160.551 57.4727C161.202 57.8255 177.374 73.5577 177.713 74.1908C178.054 74.8264 178.2 75.3694 177.95 75.8148C177.7 76.2602 172.463 81.8104 172.463 81.8104C172.463 81.8104 172.043 82.1232 171.533 81.9831C171.023 81.8455 170.296 81.2474 170.296 81.2474C170.296 81.2474 163.306 74.6462 160.903 72.5543C158.499 70.4623 156.931 70.8577 154.59 68.4855C150.767 64.6143 152.397 63.3582 152.512 63.2531Z" fill="black" stroke="black" stroke-linecap="round" stroke-linejoin="round"></path><path d="M171.039 69.7742L167.195 74.0157C166.903 74.336 166.322 74.2809 165.895 73.8906L156.432 65.265C156.005 64.8746 155.895 64.3016 156.184 63.9813L160.028 59.7398C160.32 59.4195 160.901 59.4746 161.328 59.8649L170.791 68.4905C171.218 68.8784 171.328 69.4539 171.039 69.7742Z" fill="white"></path><path d="M158.523 64.9266L161.247 62.094" stroke="#FF8484" stroke-miterlimit="10" stroke-linecap="round" stroke-linejoin="round"></path><path d="M160.314 66.5L163.04 63.6674" stroke="#A3E8FE" stroke-linecap="round" stroke-linejoin="round"></path><path d="M162.104 68.0726L164.831 65.24" stroke="black" stroke-linecap="round" stroke-linejoin="round"></path><path d="M166.991 80.4072C167.139 79.9668 167.184 79.4988 167.124 79.0409C166.968 77.7898 166.145 77.487 165.621 77.7022C165.098 77.9174 164.642 80.1495 164.973 80.8051C165.324 81.5082 166.389 81.9612 167.264 82.0287C167.869 82.0813 168.647 81.9036 168.647 81.9036L172.866 82.6518" fill="#EFC9B4"></path><path d="M166.991 80.4072C167.139 79.9668 167.184 79.4988 167.124 79.0409C166.968 77.7898 166.145 77.487 165.621 77.7022C165.098 77.9174 164.642 80.1495 164.973 80.8051C165.324 81.5082 166.389 81.9612 167.264 82.0287C167.869 82.0813 168.647 81.9036 168.647 81.9036L172.866 82.6518" stroke="black" stroke-linecap="round" stroke-linejoin="round"></path><path d="M164.738 79.9095C164.738 79.9095 163.154 79.369 162.456 78.5758C161.73 77.745 161.623 76.7641 161.81 76.3512C162.06 75.7957 163.274 74.0415 163.784 74.0015C164.295 73.959 165.225 74.4344 165.183 75.6931C165.144 76.8717 164.162 77.8526 164.162 77.8526" fill="#EFC9B4"></path><path d="M164.738 79.9095C164.738 79.9095 163.154 79.369 162.456 78.5758C161.73 77.745 161.623 76.7641 161.81 76.3512C162.06 75.7957 163.274 74.0415 163.784 74.0015C164.295 73.959 165.225 74.4344 165.183 75.6931C165.144 76.8717 164.162 77.8526 164.162 77.8526" stroke="black" stroke-linecap="round" stroke-linejoin="round"></path><path d="M162.381 74.1948C162.381 74.1948 162.751 73.1438 161.969 72.293C161.128 71.3822 159.868 71.9252 159.735 72.3105C159.547 72.856 159.883 74.8454 160.506 75.3609C160.865 75.6587 161.482 75.8588 162.014 75.984" fill="#EFC9B4"></path><path d="M162.381 74.1948C162.381 74.1948 162.751 73.1438 161.969 72.293C161.128 71.3822 159.868 71.9252 159.735 72.3105C159.547 72.856 159.883 74.8454 160.506 75.3609C160.865 75.6587 161.482 75.8588 162.014 75.984" stroke="black" stroke-linecap="round" stroke-linejoin="round"></path><path d="M270.471 166.016C270.471 166.016 271.773 167.895 272.364 168.831C272.565 169.119 272.682 169.449 272.711 169.789C272.737 170.13 272.669 170.467 272.515 170.77C272.122 171.618 271.396 172.277 270.492 172.607C267.299 174.196 265.5 175.029 266.185 178.953C270.026 179.243 272.815 179.065 276.219 179.093C281.75 179.133 286.276 176.113 286.2 172.289L286.198 172.176C286.117 169.089 284.727 165.087 284.7 161.607C284.669 158.334 285.516 150.319 284.031 148.149C283.172 146.893 279.935 146.65 276.776 146.838C275.247 146.923 268.523 147.581 267.375 147.674" fill="#FFF28C"></path><path d="M270.471 166.016C270.471 166.016 271.773 167.895 272.364 168.831C272.565 169.119 272.682 169.449 272.711 169.789C272.737 170.13 272.669 170.467 272.515 170.77C272.122 171.618 271.396 172.277 270.492 172.607C267.299 174.196 265.5 175.029 266.185 178.953C270.026 179.243 272.815 179.065 276.219 179.093C281.75 179.133 286.276 176.113 286.2 172.289L286.198 172.176C286.117 169.089 284.727 165.087 284.7 161.607C284.669 158.334 285.516 150.319 284.031 148.149C283.172 146.893 279.935 146.65 276.776 146.838C275.247 146.923 268.523 147.581 267.375 147.674" stroke="black" stroke-linecap="round" stroke-linejoin="round"></path><path d="M276.672 176.69C281.456 175.937 282.26 173.424 282.19 170.657C282.115 167.646 281.471 164.566 281.448 161.16C281.425 158.438 282.031 151.791 281.307 149.167" stroke="black" stroke-linecap="round" stroke-linejoin="round"></path><path d="M270.273 164.272C270.179 163.742 270.533 163.279 271.408 163.111C271.825 163.014 272.192 162.781 272.447 162.453C272.702 162.125 272.83 161.72 272.812 161.302C272.538 157.491 270.629 151.56 269.835 151.097C267.715 149.861 267.377 147.667 267.377 147.667" fill="white"></path><path d="M270.273 164.272C270.179 163.742 270.533 163.279 271.408 163.111C271.825 163.014 272.192 162.781 272.447 162.453C272.702 162.125 272.83 161.72 272.812 161.302C272.538 157.491 270.629 151.56 269.835 151.097C267.715 149.861 267.377 147.667 267.377 147.667" stroke="black" stroke-linecap="round" stroke-linejoin="round"></path><path d="M267.109 146.421C263.765 146.491 261.659 146.773 259.159 147.712C245.023 149.326 240.031 152.912 240.031 152.912C240.031 152.912 238.45 154.571 238.408 153.807C240.804 151.478 248.028 130.551 250.557 123.294C248.552 124.077 246.481 124.665 244.229 124.755C235.578 125.218 227.124 125.273 218.525 125.819L217.507 132.042C217.507 132.042 214.835 154.391 214.593 156.55C214.351 158.71 213.275 164.893 216.718 172.53C220.163 180.17 227.645 179.667 227.645 179.667L236.585 177.755L254.909 171.009L270.474 166.014C270.482 166.014 268.026 149.866 267.109 146.421Z" fill="white"></path><path d="M250.982 122.612C244.907 139.375 242.654 147.958 237.961 154.457C243.136 149.865 253.339 148.529 259.381 147.312C263.235 146.537 267.115 146.419 267.115 146.419C267.115 146.419 271.115 165.952 270.274 166.405C268.641 167.236 266.842 167.739 264.98 167.877C254.792 170.111 240.058 177.761 230.555 178.992" stroke="black" stroke-linecap="round" stroke-linejoin="round"></path><path d="M218.553 125.642C218.553 125.642 213.74 155.082 214.206 163.866C214.62 171.701 218.365 180.957 230.55 178.992" stroke="black" stroke-linecap="round" stroke-linejoin="round"></path><path d="M227.834 161.93C233.219 160.652 238.428 153.938 238.428 153.938" stroke="black" stroke-linecap="round" stroke-linejoin="round"></path><path d="M192.258 166.013C192.258 166.013 188.576 167.75 187.427 168.266C181.873 170.735 175.695 171.939 174.201 172.955C172.344 174.219 172.727 178.15 174.667 178.996C175.776 179.499 179.75 179.701 184.44 179.664C188.271 179.634 192.177 179.116 196.508 179.133C200.576 179.146 207.808 180.007 210.493 178.743C212.047 178.01 211.779 175.65 211.316 172.922C211.12 171.759 210.774 167.094 210.649 166.093" fill="#FFF28C"></path><path d="M192.258 166.013C192.258 166.013 188.576 167.75 187.427 168.266C181.873 170.735 175.695 171.939 174.201 172.955C172.344 174.219 172.727 178.15 174.667 178.996C175.776 179.499 179.75 179.701 184.44 179.664C188.271 179.634 192.177 179.116 196.508 179.133C200.576 179.146 207.808 180.007 210.493 178.743C212.047 178.01 211.779 175.65 211.316 172.922C211.12 171.759 210.774 167.094 210.649 166.093" stroke="black" stroke-linecap="round" stroke-linejoin="round"></path><path d="M174.13 175.593C175.934 175.856 179.046 175.966 182.567 175.941C188.252 175.898 192.156 175.406 194.64 175.406C198.106 175.418 204.013 176.049 207.344 175.448" stroke="black" stroke-linecap="round" stroke-linejoin="round"></path><path d="M254.973 93.4983C254.931 93.1805 254.871 92.8477 254.804 92.5049C246.572 95.1949 238.001 97.2418 228.986 99.0335C225.191 99.7291 221.397 99.9593 217.762 99.5064C217.707 99.5039 198.29 98.2252 187.394 100.953C183.54 101.914 181.98 103.986 179.511 107.219C176.938 110.592 178.154 118.271 178.154 118.271C178.154 118.271 188.191 149.874 189.605 161.527C188.144 166.754 189.415 167.135 189.415 167.135L200.806 168.961L211.347 169.424C211.347 169.424 211.678 165.391 210.15 162.193C209.845 159 209.084 152.741 209.084 152.741C209.084 152.741 208.626 142.682 207.498 136.701C206.373 130.721 202.483 124.102 202.483 124.102L218.949 125.14L218.816 125.816C227.434 125.271 235.887 125.215 244.556 124.753C246.809 124.662 248.9 124.077 250.931 123.291C251.113 122.816 251.272 122.398 251.408 122.05C259.754 118.419 258.908 107.579 258.908 107.579C258.426 102.707 257.098 97.945 254.973 93.4983Z" fill="white"></path><path d="M226.849 99.6769C208.943 98.9187 197.49 99.5143 190.081 100.403C180.12 101.599 175.414 110.547 179.005 121.627C183.143 134.392 188.474 155.224 189.542 162.871C188.589 164.325 188.547 167.165 189.427 167.405C194.466 168.789 207.417 170.143 210.974 169.229C211.18 169.177 211.365 169.062 211.498 168.902C211.631 168.741 211.706 168.544 211.711 168.336C211.745 166.857 210.865 163.266 210.146 162.193C208.985 137.705 205.055 127.598 202.005 123.494C207.701 124.663 222.855 125.704 232.287 125.331C233.758 125.273 237.386 125.401 238.86 125.378C265.451 124.996 259.933 100.338 254.811 93.5037" stroke="black" stroke-linecap="round" stroke-linejoin="round"></path><path d="M202.001 123.487C200.128 119.671 196.899 118.895 196.899 118.895" stroke="black" stroke-linecap="round" stroke-linejoin="round"></path><path d="M185.51 16.0693C185.76 15.8792 186.109 19.0171 187.046 21.3217C187.981 23.6289 189.63 25.7033 189.484 27.0146C189.343 28.3258 188.786 30.5904 188.786 30.5904C188.786 30.5904 189.268 32.1018 190.372 32.332C191.474 32.5648 192.041 32.262 192.041 32.262C192.041 32.262 197.632 39.5037 199.231 39.4862C201.505 39.4662 203.685 36.3608 203.802 36.2832C203.924 36.2057 205.294 37.5294 205.333 37.5669C205.333 37.5669 208.333 33.0977 211.815 31.7039C215.299 30.3101 218.654 28.6686 218.654 28.6686L214.739 23.8391C214.739 23.8391 210.062 13.9348 204.885 11.0471C199.708 8.15943 190.065 9.9361 190.065 9.9361C190.065 9.9361 185.333 16.2045 185.51 16.0693Z" fill="#EFC9B4"></path><path d="M218.432 28.5989C216.973 26.8397 215.606 25.0381 215.085 24.4475C215.085 24.4475 216.478 22.8285 216.39 20.0609C216.294 16.993 214.674 15.4616 214.674 15.4616C214.986 13.0543 214.721 10.6096 213.903 8.31241C212.825 5.33713 210.697 2.73469 207.731 1.89891C205.385 1.24079 203.189 2.27426 203.189 2.27426C203.189 2.27426 197.851 0.00714481 190.999 3.75565C185.434 6.801 184.965 11.1025 184.965 11.1025C184.965 11.1025 180.522 12.3187 181.71 17.4835C182.095 19.1651 182.598 20.664 184.202 21.815C185.746 22.5808 188.15 20.9342 188.827 19.9933C187.679 17.7988 187.301 15.3014 187.212 13.3521C189.252 15.3965 191.197 17.4785 192.455 18.3118C195.051 17.9489 196.793 18.0991 198.137 16.7353C199.963 17.7738 199.379 19.0174 201.179 18.602C202.509 18.3017 202.543 17.1432 204.179 17.0656C206.999 16.9029 208.2 20.7015 207.03 22.7509C205.903 24.7303 203.744 24.3149 203.744 24.3149" stroke="black" stroke-linecap="round" stroke-linejoin="round"></path><path d="M216.39 20.0604C216.479 22.828 215.086 24.447 215.086 24.447L207.031 22.7404C208.198 20.691 207 16.8924 204.179 17.0551C202.544 17.1326 202.51 18.2912 201.177 18.5915C199.38 19.0069 199.963 17.7632 198.138 16.7222C196.791 18.086 195.632 17.8958 192.656 18.2712C191.395 17.4404 188.963 14.8355 186.924 12.7911C186.815 14.7679 187.679 17.7882 188.828 19.9803C188.153 20.9212 185.747 22.5677 184.203 21.802C182.598 20.6534 182.098 19.152 181.71 17.4729C180.523 12.3106 183.505 9.41792 183.505 9.41792C183.505 9.41792 185.434 6.79546 190.999 3.74761C200.354 -1.04937 207.731 1.89338 207.731 1.89338C210.698 2.72916 212.825 5.33159 213.903 8.30688C214.721 10.6015 214.987 13.0463 214.674 15.4561C214.674 15.4611 216.294 16.9925 216.39 20.0604Z" fill="black"></path><path d="M218.999 29.1734C217.546 27.4143 215.603 25.0396 215.083 24.449M207.03 22.7474C208.197 20.698 206.999 16.8994 204.179 17.0621C202.543 17.1397 202.512 18.2982 201.176 18.5985C199.379 19.0114 199.963 17.7678 198.137 16.7293C196.793 18.0931 195.634 17.9004 192.655 18.2782C191.395 17.4475 188.963 14.8425 186.923 12.7981C186.814 14.775 187.679 17.7928 188.827 19.9873C188.153 20.9282 185.746 22.5747 184.202 21.809C182.598 20.6605 182.095 19.1616 181.71 17.48C180.522 12.3177 183.504 9.42495 183.504 9.42495C183.504 9.42495 185.434 6.79999 190.999 3.75465C200.353 -1.03984 207.731 1.90041 207.731 1.90041C210.697 2.73619 212.825 5.33863 213.903 8.31391C214.721 10.6111 214.986 13.0558 214.674 15.4631C214.674 15.4631 216.294 16.9945 216.39 20.0624C216.478 22.83 215.085 24.449 215.085 24.449L207.03 22.7424C205.903 24.7218 203.744 24.3064 203.744 24.3064" stroke="black" stroke-linecap="round" stroke-linejoin="round"></path><path d="M207.188 22.729C207.188 22.729 208.274 24.318 211.425 24.7834C212.654 24.9686 213.912 24.8535 215.084 24.4456" stroke="black" stroke-linecap="round" stroke-linejoin="round"></path><path d="M192.646 26.156C193.097 25.9984 193.238 25.2377 192.946 24.4569C192.654 23.6787 192.04 23.1782 191.584 23.3359C191.126 23.496 190.99 24.2568 191.282 25.035C191.573 25.8157 192.188 26.3162 192.646 26.156Z" fill="black"></path><path d="M189.625 23.3236C189.544 23.3211 189.466 23.301 189.399 23.2635C189.331 23.226 189.271 23.1709 189.232 23.1059C189.047 22.8431 188.969 22.4427 189.276 22.185C189.938 21.6145 190.779 21.2841 191.667 21.2491C193.229 21.1515 194.266 22.4202 194.102 22.688C193.938 22.9557 193.055 22.2175 191.706 22.3877C191.042 22.4703 190.427 22.748 189.933 23.1809C189.849 23.2585 189.74 23.3085 189.625 23.3236Z" fill="black"></path><path d="M196.179 35.2259C196.956 34.4501 197.044 33.4142 196.778 33.279C196.508 33.1439 196.135 33.737 195.372 34.3726C194.76 34.8805 194.554 34.9531 194.333 34.9806C194.112 35.0082 194.052 35.0782 194.177 35.361C194.299 35.6463 194.664 35.7889 194.945 35.8339C195.143 35.8514 195.599 35.8039 196.179 35.2259Z" fill="black"></path><path d="M204.74 29.8823C206.185 35.8129 200.997 39.8942 199.234 39.4838C196.568 38.8657 192.372 32.4247 192.372 32.4247C192.372 32.4247 189.755 32.7725 188.979 31.2912C188.362 30.1151 189.758 28.6537 189.448 26.4191C189.174 24.4372 186.87 23.056 186.526 19.6403" stroke="black" stroke-linecap="round" stroke-linejoin="round"></path><path d="M207.24 43.6611C205.907 41.0612 204.537 37.6305 204.537 37.6305C204.537 37.6305 205.006 35.4134 209.175 31.2595C213.344 27.1056 216.813 25.3065 218.086 26.2198C219.36 27.1332 223.902 32.7734 223.902 32.7734L207.24 43.6611Z" fill="#FFF28C" stroke="black" stroke-linecap="round"></path><path d="M203.836 47.2886C205.274 38.7231 211.688 29.4394 220.883 29.0265C229.188 28.6537 238.563 35.1597 241.271 42.8419C249.758 53.677 249.269 63.8666 249.269 63.8666C257.31 73.6932 255.019 84.8662 255.019 84.8662C259.915 91.7126 260.956 101.722 259.063 107.8C255.047 106.031 251.68 108.686 239.493 104.209C229.716 100.618 222.167 99.0369 213.36 99.2697C208.362 98.0811 209.586 86.25 209.586 86.25C205.089 74.484 202.398 55.8541 203.836 47.2886Z" fill="#FFF28C" stroke="black" stroke-linecap="round" stroke-linejoin="round"></path><path d="M229.675 53.8769C229.035 62.2648 223.522 68.9235 217.212 67.6898C210.902 66.4562 206.183 57.7931 206.824 49.4052C207.464 41.0174 213.102 35.2195 219.412 36.4556C225.722 37.6893 230.319 45.4916 229.675 53.8769Z" fill="#FCE000" stroke="black" stroke-linecap="round" stroke-linejoin="round"></path><path d="M229.206 71.7448C229.206 71.7448 232.021 78.471 235.471 93.5526L229.206 71.7448Z" fill="#FFF28C"></path><path d="M229.206 71.7448C229.206 71.7448 232.021 78.471 235.471 93.5526" stroke="black" stroke-linecap="round" stroke-linejoin="round"></path><path d="M161.997 109.144C162.841 108.285 163.26 107.62 163.305 107.024C163.341 106.514 162.448 105.59 161.435 104.404C160.422 103.218 156.765 99.0868 155.961 98.201C155.156 97.3151 154.799 97.16 154.799 97.16C154.799 97.16 150.429 92.2454 149.106 90.744C148.825 90.1184 148.226 89.5704 148.226 89.5704C146.174 87.2532 143.458 88.5369 142.458 88.0265C141.458 87.516 140.224 85.7568 140.224 85.7568L137.182 88.2442C137.182 88.2442 138.791 89.6955 139.156 90.7265C139.52 91.7574 137.765 94.1272 139.817 96.4443C139.817 96.4443 140.283 97.0999 140.882 97.4678C142.213 98.9642 146.562 103.896 146.562 103.896C146.562 103.896 146.664 104.257 147.445 105.165C148.226 106.073 151.885 110.2 152.94 111.353C153.995 112.507 154.802 113.5 155.331 113.548C155.95 113.603 156.7 113.31 157.716 112.649C157.716 112.649 158.669 112.064 159.956 111.013C161.242 109.962 161.997 109.144 161.997 109.144Z" fill="#FF8484" stroke="black" stroke-linecap="round" stroke-linejoin="round"></path><path d="M141.438 87.8189L139.131 89.7056C138.691 90.0634 138.035 90.0134 137.66 89.5905L137.248 89.1276C136.876 88.7047 136.928 88.0741 137.368 87.7138L139.675 85.827C140.115 85.4692 140.772 85.5192 141.147 85.9421L141.558 86.405C141.931 86.8279 141.878 87.461 141.438 87.8189Z" fill="white" stroke="black" stroke-linecap="round" stroke-linejoin="round"></path><path d="M149.121 90.7431L140.936 97.4335L146.623 103.857L154.808 97.1664L149.121 90.7431Z" fill="#C0E5B5" stroke="black" stroke-linecap="round" stroke-linejoin="round"></path><path d="M159.034 96.121C157.058 94.3118 155.542 93.0156 151.693 92.5126C151.237 92.4526 151.948 92.5752 151.56 92.8004C152.532 93.6187 153.506 94.4344 153.719 95.2527C153.909 96.7216 151.599 97.5999 150.274 98.268L149.584 109.761L150.534 110.332C151.178 110.935 152.144 111.09 152.954 110.72L155.209 109.906C157.803 108.938 159.748 106.743 162.626 105.322L171.204 102.419L167.753 93.5786L159.034 96.121Z" fill="#EFC9B4"></path><path d="M168.415 102.994L163.227 104.828C160.349 106.252 157.797 108.94 155.204 109.908L153.256 110.704C152.711 110.927 152.097 110.924 151.555 110.696L149.597 109.873" stroke="black" stroke-linecap="round" stroke-linejoin="round"></path><path d="M151.045 92.6573C151.493 92.5372 151.142 92.4421 151.686 92.5121C155.519 93.0076 157.207 94.6842 159.184 96.4959C160.335 96.2231 161.704 95.2997 163.908 93.971" stroke="black" stroke-linecap="round" stroke-linejoin="round"></path><path d="M144.004 101.064C146.243 100.451 151.592 97.1056 154.027 95.1913L159.806 102.506C155.548 110.666 150.09 109.517 148.853 109.953C147.897 110.288 146.871 109.745 146.566 108.814L146.202 107.695C145.233 107.748 144.332 107.215 143.946 106.359L143.321 104.97L143.11 104.93C142.449 104.803 141.845 104.46 141.467 103.924C139.905 101.687 140.467 101.004 142.491 99.2601L144.004 101.064Z" fill="#EFC9B4"></path><path d="M152.92 94.699C153.058 95.0243 153.207 96.0327 151.433 97.3289C148.931 99.1632 147.426 99.8188 145.186 100.434L144.079 101.062M144.134 101.11L142.321 99.0631C140.295 100.807 139.905 101.686 141.47 103.923C141.845 104.461 142.452 104.803 143.113 104.929L143.324 104.969M147.86 103.662C146.397 104.273 145.459 105.081 143.321 104.969L144.126 106.447C144.532 107.193 145.327 107.671 146.204 107.694L147.277 109.087C147.743 109.69 148.548 109.956 149.306 109.771C150.314 109.523 150.777 109.39 152.108 108.557M149.457 106.422C148.152 107.336 147.699 107.356 146.204 107.696" stroke="black" stroke-linecap="round" stroke-linejoin="round"></path><path d="M211.029 39.28C207.292 43.7017 201.391 53.7586 199.55 57.2443C197.245 61.6109 194.566 65.6847 192.232 69.6109C189.461 73.2643 187.162 76.3872 186.157 77.1755C185.151 77.9637 174.768 84.3397 169.623 88.1857C167.034 90.1201 167.034 91.5013 167.034 91.5013L161.284 94.2239L166.172 105.104L171.636 103.382C171.636 103.382 177.532 104.591 182.849 102.829C188.17 101.068 196.92 96.3559 202.115 90.9483C208.282 84.5323 211.235 80.7663 211.316 80.7238C214.436 77.1254 216.93 72.2684 219.522 68.3022C221.352 65.497 222.243 63.868 224.253 62.4867" fill="#FCE000"></path><path d="M211.029 39.28C207.292 43.7017 201.391 53.7586 199.55 57.2443C197.245 61.6109 194.566 65.6847 192.232 69.6109C189.461 73.2643 187.162 76.3872 186.157 77.1755C185.151 77.9637 174.768 84.3397 169.623 88.1857C167.034 90.1201 167.034 91.5013 167.034 91.5013L161.284 94.2239L166.172 105.104L171.636 103.382C171.636 103.382 177.532 104.591 182.849 102.829C188.17 101.068 196.92 96.3559 202.115 90.9483C208.282 84.5323 211.235 80.7663 211.316 80.7238C214.436 77.1254 216.93 72.2684 219.522 68.3022C221.352 65.497 222.243 63.868 224.253 62.4867" stroke="black" stroke-linecap="round" stroke-linejoin="round"></path><path d="M167.032 91.5033L169.91 98.9628" stroke="black" stroke-linecap="round" stroke-linejoin="round"></path></svg>