<svg xmlns="http://www.w3.org/2000/svg" width="301" height="160" viewBox="0 0 301 160" fill="none"><path d="M79.3037 75.271C75.7133 75.5688 72.1652 76.2711 68.7227 77.3654C65.7708 78.2932 62.9532 79.6269 60.3458 81.3305C59.113 82.137 58.1468 83.3113 57.5752 84.6976C57.0036 86.084 56.8536 87.617 57.1451 89.0933C57.2778 89.76 57.41 90.4277 57.5417 91.0964C57.6095 91.4444 57.7528 91.772 57.9609 92.0546C58.1689 92.3372 58.4362 92.5675 58.7428 92.7282C59.0494 92.8889 59.3872 92.9758 59.731 92.9824C60.0747 92.9889 60.4155 92.915 60.7276 92.7662C61.8274 92.238 62.9965 91.7175 64.232 91.2182C67.1639 90.0372 70.1806 89.0942 73.2546 88.3977" stroke="black" stroke-width="1.20829" stroke-linecap="round" stroke-linejoin="round"></path><path d="M62.6748 91.8726L66.2441 123.032" stroke="black" stroke-width="1.20829" stroke-linecap="round" stroke-linejoin="round"></path><path d="M67.0522 90.2239L69.2637 111.762" stroke="black" stroke-width="1.20829" stroke-linecap="round" stroke-linejoin="round"></path><path d="M137.5 138.5C127.369 140.154 117.57 136.299 107.462 134.5C107.594 104.159 107.332 85.0487 107.462 54.7373L127.908 56.6563C127.908 56.6563 140.078 79.9329 140.527 113.254C140.977 146.574 137.5 138.5 137.5 138.5Z" fill="#FCE000"></path><path d="M114.688 55.0495L114.706 48.4268C114.483 48.3324 116.484 51.2188 115.214 53.4533C114.399 54.9647 113.817 52.541 113.343 54.2016C113.343 54.2016 97.8164 55.6447 87.6526 67.4746C82.6577 73.2891 72.438 95.3489 74.99 104.342C75.9336 107.664 83.2158 118.065 91.0797 119.309C95.532 120.013 115.673 122.437 120.111 117.19C120.111 65.9768 114.688 55.0495 114.688 55.0495Z" fill="#FCE000"></path><path d="M144.603 67.8816C142.917 65.4128 140.983 61.6581 138.198 60.7722C135.579 58.9014 124.8 56.2821 124.8 56.2821C124.8 56.2821 123.497 53.9171 121.921 54.5153C121.184 54.6067 124.529 53.0008 124.54 54.5153C125.631 64.0773 135.074 69.015 132 138.449L143 136L144.603 145.555L145.407 144.602C146.511 142.756 147.071 140.618 147.02 138.449C147.208 136.294 148.862 110.164 146.991 100.435C150.359 98.3772 154.849 100.061 158.029 95.3838C155.036 84.9068 147.11 72.2536 144.603 67.8816Z" fill="#FCE000"></path><path d="M139.549 144.869C139.549 144.869 143.281 144.565 146.577 144.169" stroke="black" stroke-width="1.20829" stroke-linecap="round" stroke-linejoin="round"></path><path d="M109.715 44.0425C107.418 42.7959 107.807 39.2068 109.637 38.2767C109.989 38.0988 110.378 38.0135 110.77 38.0287C111.161 38.0438 111.543 38.1588 111.881 38.3635C112.122 38.4895 112.384 38.5646 112.653 38.5842C112.922 38.6055 113.193 38.5703 113.448 38.4807C113.703 38.3929 113.939 38.2534 114.142 38.0705C114.344 37.8876 114.509 37.6648 114.628 37.4152C114.848 36.9534 115.021 36.4687 115.144 35.9692C115.91 32.9448 115.089 30.8519 115.089 30.8519C115.089 30.8519 118.086 31.3572 122.27 28.7026L119.68 32.7119C119.68 32.7119 127.906 34.6754 133.507 31.587C133.914 34.1746 134.152 38.3666 133.009 43.5965C132.017 48.1446 128.776 54.8343 124.837 56.1418C124.906 56.2606 124.576 60.6108 122.407 60.8102C117.995 61.215 110.797 60.2637 108.52 55.8618C108.427 53.673 108.225 51.3867 108.285 49.7733C108.338 48.306 108.116 46.9452 108.225 45.5357L109.715 44.0425Z" fill="#FEE9DB"></path><path d="M133.57 31.5781C127.968 34.6665 119.744 32.703 119.744 32.703L122.336 28.6937C118.15 31.3483 115.155 30.8429 115.155 30.8429C115.155 30.8429 115.974 32.9358 115.208 35.9603C115.086 36.4598 114.913 36.9445 114.692 37.4063C114.573 37.6562 114.407 37.8792 114.203 38.0623C114 38.2454 113.764 38.3849 113.508 38.4727C113.252 38.5605 112.981 38.5949 112.712 38.5738C112.443 38.5528 112.181 38.4767 111.941 38.35C111.342 38.0212 110.552 37.8294 109.698 38.2617C107.863 39.1933 107.472 42.7824 109.776 44.029L108.284 45.5237C108.284 45.5237 105.758 45.1706 104.692 42.2421C104.138 40.7005 104.191 38.9964 104.839 37.4946C104.839 37.4946 100.008 29.2934 104.022 22.3389C105.606 19.5991 108.568 19.4103 108.568 19.4103C108.568 19.4103 110.152 14.6918 117.81 14.0631C125.467 13.4345 129.641 17.7086 129.641 17.7086C129.641 17.7086 135.096 18.0739 137.033 21.7772C138.561 24.689 137.705 27.3984 136.392 29.1869C136.509 30.9305 136.269 32.68 135.686 34.321C135.304 35.4084 134.695 36.3957 133.902 37.213C133.986 35.3279 133.875 33.4388 133.57 31.5781Z" fill="black"></path><path d="M114.361 49.5844C115.043 50.8768 115.915 52.053 116.944 53.0716C118.86 54.9697 121.802 56.7247 125.142 56.093C129.909 55.1797 132.072 48.1476 133.07 43.598C134.212 38.368 133.973 34.1821 133.567 31.5885C127.964 34.6768 119.741 32.7133 119.741 32.7133L122.332 28.7056C118.142 31.3525 115.151 30.8472 115.151 30.8472C115.151 30.8472 115.971 32.9401 115.204 35.9661C115.081 36.4652 114.908 36.9499 114.688 37.4121C114.447 37.9143 114.023 38.2975 113.509 38.4776C113.253 38.5651 112.982 38.5992 112.713 38.5781C112.444 38.5569 112.182 38.4808 111.942 38.3543C111.342 38.0255 110.551 37.8337 109.699 38.2675C107.868 39.199 107.46 42.7303 109.764 43.977C110.592 44.4296 111.554 44.5473 112.462 44.3073" stroke="black" stroke-width="1.20829" stroke-linecap="round" stroke-linejoin="round"></path><path d="M121.468 37.0547C122.388 37.0082 123.309 37.1319 124.188 37.42C124.595 37.5372 124.925 37.3881 125.064 37.0091C125.126 36.8219 125.115 36.6167 125.032 36.438C124.95 36.2593 124.802 36.1216 124.621 36.0547C123.646 35.6992 122.609 35.5622 121.578 35.6529C119.42 35.8051 117.859 37.4794 118.14 37.7427C118.422 38.0061 119.284 37.1598 121.468 37.0547Z" fill="black"></path><path d="M132.671 38.2414C132.847 38.0283 132.463 36.8837 131.114 36.3692C129.877 35.8974 128.933 36.1013 128.553 36.2931C128.392 36.3641 128.261 36.4916 128.183 36.653C128.105 36.8144 128.085 36.9992 128.127 37.1744C128.134 37.2505 128.157 37.3241 128.193 37.3906C128.231 37.4563 128.281 37.5137 128.341 37.5595C128.4 37.6049 128.469 37.6371 128.541 37.6539C128.613 37.6699 128.687 37.6699 128.759 37.6539C129.343 37.4974 129.953 37.4709 130.548 37.5763C131.787 37.765 132.519 38.4332 132.671 38.2414Z" fill="black"></path><path d="M126.26 45.8862C126.468 45.7766 127.47 45.1815 127.596 44.0856C127.734 42.8481 125.826 41.5406 125.63 41.7522C125.474 41.9165 126.392 42.9227 126.279 43.6715C126.191 44.2637 125.773 44.4981 125.529 44.6655C125.201 44.8816 125.048 45.2652 125.212 45.6199C125.257 45.7147 125.321 45.7983 125.4 45.8649C125.481 45.9303 125.574 45.977 125.673 46.0019C125.876 46.0329 126.082 45.9921 126.26 45.8862Z" fill="black"></path><path d="M121.194 48.4187C121.137 48.3585 121.092 48.2871 121.061 48.2087C121.031 48.1303 121.016 48.0465 121.017 47.962C121.019 47.8765 121.037 47.7921 121.07 47.7139C121.106 47.6356 121.156 47.5652 121.218 47.5069C121.424 47.2953 121.772 47.2893 122.082 47.5069C122.675 48.0098 123.37 48.3682 124.116 48.5557C125.792 49.029 127.722 48.5359 127.83 48.8738C127.937 49.2117 125.692 50.2346 123.809 49.816C122.121 49.4324 121.384 48.6424 121.194 48.4187Z" fill="black"></path><path d="M123.421 40.0182C123.614 39.1734 123.285 38.3697 122.684 38.2221C122.082 38.0744 121.439 38.6422 121.246 39.487C121.053 40.3317 121.383 41.1369 121.983 41.2831C122.583 41.4292 123.228 40.863 123.421 40.0182Z" fill="black"></path><path d="M130.707 40.6156C130.9 39.7708 130.572 38.9671 129.97 38.8195C129.369 38.6719 128.724 39.2396 128.531 40.0844C128.338 40.9292 128.668 41.7328 129.268 41.8805C129.868 42.0281 130.514 41.4604 130.707 40.6156Z" fill="black"></path><path d="M108.285 45.5286L109.794 44.0933" stroke="black" stroke-width="1.20829" stroke-linecap="round" stroke-linejoin="round"></path><path d="M108.2 54.4083C108.311 51.6685 108.209 48.7978 108.284 45.5237C108.284 45.5237 105.755 45.1721 104.692 42.2421C104.138 40.7005 104.191 38.9964 104.839 37.4946C104.839 37.4946 100.008 29.2934 104.022 22.3389C105.606 19.5991 108.568 19.4103 108.568 19.4103C108.568 19.4103 110.152 14.6918 117.81 14.0631C125.467 13.4345 129.641 17.7086 129.641 17.7086C129.641 17.7086 135.096 18.0739 137.033 21.7772C138.561 24.689 137.705 27.3984 136.392 29.1869C136.509 30.9305 136.269 32.6801 135.686 34.321C134.985 36.219 133.936 36.9938 133.936 36.9938" stroke="black" stroke-width="1.20829" stroke-linecap="round" stroke-linejoin="round"></path><path d="M94.7856 68.6882C97.7151 76.8635 99.4046 86.2245 97.7622 94.756L96.658 104.802" stroke="black" stroke-width="1.20829" stroke-linecap="round" stroke-linejoin="round"></path><path d="M124.839 56.1389L124.849 57.5788C124.853 58.2627 124.64 58.929 124.242 59.4755C123.844 60.0219 123.283 60.4182 122.645 60.6033C120.015 61.3643 115.244 61.751 109.407 57.728" stroke="black" stroke-width="1.20829" stroke-linecap="round" stroke-linejoin="round"></path><path d="M152.5 145C204.691 145 247 136.941 247 127C247 117.059 204.691 109 152.5 109C100.309 109 58 117.059 58 127C58 136.941 100.309 145 152.5 145Z" fill="white" stroke="black" stroke-width="1.20829" stroke-linecap="round" stroke-linejoin="round"></path><path d="M195.398 118.261L192.905 116.112C192.635 115.878 192.315 115.713 191.971 115.631L188.821 114.607L190.468 114.846C190.485 114.794 190.777 114.273 190.79 114.225L191.233 113.188L183.678 109.115C183.405 108.968 183.112 108.865 182.809 108.811C181.349 108.544 167.548 108.237 164.951 109.115C159.899 105.3 156.52 99.9956 154.287 98.0032C151.48 98.5644 142.874 100.622 142.874 100.622C142.874 100.622 141.569 104.304 144.184 109.115C145.975 112.409 156.277 121.594 173.369 117.951C175.06 119.056 177.138 118.914 178.869 118.13L184.102 116.923C185.188 116.813 186.28 117.074 187.209 117.666C187.209 117.666 190.566 119.595 191.429 119.823C192.609 120.145 193.848 120.167 195.038 119.887C195.2 119.845 195.348 119.758 195.465 119.634C195.582 119.511 195.664 119.357 195.701 119.188C195.739 119.02 195.73 118.844 195.676 118.68C195.623 118.517 195.526 118.372 195.398 118.261Z" fill="#FEE9DB"></path><path d="M176.862 113.967C176.862 113.967 182.984 113.984 184.778 114.23C186.573 114.477 187.843 118.748 180.814 118.402C177.991 118.262 176.186 120.305 173.369 118.463M191.246 113.699L183.683 109.626C183.41 109.479 183.116 109.377 182.813 109.321C181.354 109.05 176.748 107.411 174.152 108.289L164.951 109.626C162.269 107.622 156.495 102.568 154.848 98.3772" stroke="black" stroke-width="1.20829" stroke-linecap="round" stroke-linejoin="round"></path><path d="M122.481 55.908C122.481 55.908 133.664 55.9925 141.69 64.1617C146.568 69.1284 158.455 95.3012 158.455 95.3012C156.255 96.9502 150.058 100.248 142.874 100.248" stroke="black" stroke-width="1.20829" stroke-linecap="round" stroke-linejoin="round"></path><path d="M137.495 69.29C137.495 69.29 140.825 79.438 142.081 92.6926C143.337 105.947 143.249 109.012 143.249 109.012" stroke="black" stroke-width="1.20829" stroke-linecap="round" stroke-linejoin="round"></path><path d="M143.175 109.012C143.175 109.012 153.74 120.376 166.274 119.123" stroke="black" stroke-width="1.20829" stroke-linecap="round" stroke-linejoin="round"></path><path d="M180.804 114.337L134.717 116.76C133.581 116.854 133.321 118.453 134.365 118.925L152.416 127.376L200.881 122.681L180.804 114.337Z" fill="#9A9A9A" stroke="black" stroke-width="1.07404" stroke-linecap="round" stroke-linejoin="round"></path><path d="M138.634 118.991L153.917 125.813" stroke="black" stroke-width="1.07404" stroke-linecap="round" stroke-linejoin="round"></path><path d="M201.08 122.662L214.662 91.2444C215.371 89.7322 214.164 87.9385 212.544 88.0972L171.412 92.0841C169.645 92.2554 168.056 93.3953 167.283 95.0448L153.311 127.293L201.08 122.662Z" fill="#9A9A9A" stroke="black" stroke-width="1.07404" stroke-linecap="round" stroke-linejoin="round"></path><path d="M187.591 111.374C189.251 110.302 189.966 108.394 189.189 107.113C188.412 105.832 186.438 105.662 184.778 106.735C183.119 107.808 182.404 109.715 183.181 110.997C183.957 112.278 185.932 112.447 187.591 111.374Z" stroke="black" stroke-width="1.00557" stroke-linecap="round" stroke-linejoin="round"></path><path d="M106.752 130.739L135.267 126.274L153.767 133.266L120.76 138L106.752 130.739Z" fill="white" stroke="black" stroke-width="1.20829" stroke-linecap="round" stroke-linejoin="round"></path><path d="M89.8257 126.978L118.342 122.512L141.385 132.31L108.379 137.045L89.8257 126.978Z" fill="white" stroke="black" stroke-width="1.20829" stroke-linecap="round" stroke-linejoin="round"></path><path d="M117.645 130.588L126.671 129.082" stroke="black" stroke-width="1.00557" stroke-linecap="round" stroke-linejoin="round"></path><path d="M109.325 134.154L132.746 130.589" stroke="black" stroke-width="1.00557" stroke-linecap="round" stroke-linejoin="round"></path><path d="M109.746 131.923L114.948 131.126" stroke="black" stroke-width="1.00557" stroke-linecap="round" stroke-linejoin="round"></path><path d="M119.327 128.082L124.529 127.286" stroke="black" stroke-width="1.00557" stroke-linecap="round" stroke-linejoin="round"></path><path d="M132.675 123.267C131.872 121.087 129.995 116.233 128.973 115.524C127.647 114.61 126.1 116.242 126.1 116.242C126.1 116.242 119.839 114.257 117.645 114.257C116.595 114.257 105.484 115.524 92.3881 110.89C91.0685 110.423 92.5529 107.794 91.6397 106.025C90.143 106.961 75.9243 105.277 75.9243 105.277C75.1759 106.774 75.481 115.848 77.4209 119.121C84.9045 125.295 115.569 126.558 115.569 126.558L115.876 126.509C115.744 126.873 115.69 127.261 115.717 127.649C115.746 128.105 115.889 128.546 116.131 128.929C116.374 129.312 116.709 129.623 117.102 129.833C117.102 129.833 115.4 131.223 116.483 132.848C117.178 133.89 119.803 133.609 121.603 133.272C121.819 133.226 122.021 133.132 122.196 132.995C122.371 132.858 122.515 132.683 122.616 132.482C122.717 132.281 122.773 132.059 122.781 131.832C122.788 131.606 122.747 131.38 122.659 131.173L124.06 131.489C124.579 131.602 125.121 131.528 125.594 131.278C126.067 131.029 126.443 130.62 126.659 130.119L127.101 129.119C127.332 129.018 127.539 128.866 127.706 128.674C127.873 128.481 127.998 128.253 128.07 128.005C128.204 127.55 128.161 127.058 127.95 126.635L127.411 125.561C128.549 125.952 129.025 125.221 129.142 124.379L129.576 124.311L130.852 125.544C130.97 125.659 131.113 125.745 131.269 125.795C131.425 125.845 131.59 125.858 131.751 125.832C131.912 125.806 132.066 125.742 132.2 125.646C132.334 125.55 132.444 125.423 132.524 125.276C132.69 124.973 132.789 124.636 132.816 124.289C132.842 123.942 132.794 123.593 132.675 123.267Z" fill="#FEE9DB"></path><path d="M118.052 119.381C116.865 119.558 116.031 120.025 115.678 121.232C115.51 121.82 115.537 122.45 115.757 123.02C115.908 123.42 116.134 123.785 116.422 124.094C116.71 124.403 117.054 124.651 117.434 124.823C120.308 126.148 122.917 127.867 125.838 129.132C126.055 129.223 126.288 129.267 126.523 129.259C126.757 129.251 126.988 129.193 127.199 129.087C127.41 128.982 127.597 128.832 127.749 128.647C127.9 128.462 128.012 128.246 128.077 128.013C128.212 127.558 128.169 127.066 127.958 126.643L127.418 125.569" stroke="black" stroke-width="1.20829" stroke-linecap="round" stroke-linejoin="round"></path><path d="M117.582 124.891L117.552 124.9C116.987 125.072 116.497 125.438 116.162 125.939C115.828 126.439 115.671 127.043 115.717 127.649C115.751 128.217 115.963 128.757 116.319 129.19C116.676 129.624 117.159 129.926 117.695 130.053L124.058 131.49C124.578 131.602 125.119 131.528 125.592 131.279C126.065 131.029 126.441 130.62 126.657 130.12L127.1 129.12" stroke="black" stroke-width="1.20829" stroke-linecap="round" stroke-linejoin="round"></path><path d="M117.1 129.833C117.1 129.833 115.397 131.222 116.481 132.848C117.175 133.889 119.801 133.609 121.601 133.271C121.816 133.226 122.019 133.131 122.194 132.995C122.369 132.858 122.512 132.683 122.614 132.482C122.715 132.28 122.771 132.058 122.779 131.832C122.786 131.605 122.744 131.38 122.657 131.172" stroke="black" stroke-width="1.20829" stroke-linecap="round" stroke-linejoin="round"></path><path d="M126.1 116.246C126.1 116.246 127.65 114.606 128.973 115.527C129.995 116.237 131.872 121.091 132.675 123.27C132.797 123.598 132.846 123.949 132.821 124.298C132.795 124.647 132.695 124.987 132.528 125.292C132.449 125.439 132.338 125.566 132.204 125.662C132.07 125.758 131.917 125.822 131.756 125.848C131.594 125.874 131.429 125.861 131.274 125.811C131.118 125.761 130.975 125.675 130.856 125.56L129.581 124.327" stroke="black" stroke-width="1.20829" stroke-linecap="round" stroke-linejoin="round"></path><path d="M124.616 119.535L118.413 108.353L120.959 106.846L132.797 128.179L133.705 132.864L130.25 129.686L127.941 125.524L129.081 123.798L127.665 122.163L124.616 119.535Z" fill="#9A9A9A"></path><path d="M124.064 118.538L118.413 108.353L120.959 106.846L132.797 128.179L133.705 132.864L130.25 129.686L128.026 125.679" stroke="black" stroke-width="1.20829" stroke-linecap="round" stroke-linejoin="round"></path><path d="M118.589 103.656L116.955 104.622L118.874 108.08L120.507 107.113L118.589 103.656Z" fill="#9A9A9A" stroke="black" stroke-width="1.20829" stroke-linecap="round" stroke-linejoin="round"></path><path d="M121.589 107.106C122.123 106.791 122.881 107.118 123.28 107.838L126.188 113.309" stroke="black" stroke-width="1.20829" stroke-linecap="round" stroke-linejoin="round"></path><path d="M122.582 117.28C122.582 117.28 128.663 121.972 129.013 122.924C129.362 123.877 129.263 126.208 127.412 125.571C125.878 125.046 120.024 120.822 118.051 119.381C117.723 119.146 117.453 118.835 117.262 118.473C117.071 118.111 116.965 117.708 116.952 117.296C116.935 116.422 117.331 115.411 118.977 114.86C119.815 114.577 121.403 115.095 121.403 115.095" stroke="black" stroke-width="1.20829" stroke-linecap="round" stroke-linejoin="round"></path><path d="M75.8955 104.925C75.4589 109.291 75.4231 117.644 77.3922 118.957C80.1986 120.828 92.1723 125.318 115.184 126.815M91.7981 106.796V110.538C95.041 111.91 106.316 114.841 119.487 114.841" stroke="black" stroke-width="1.12254"></path><path d="M108.636 54.7856C108.636 54.7856 95.9749 57.1746 85.8111 69.0044C80.8162 74.8189 74.7729 93.3261 75.5212 104.364C79.5748 105.674 89.0291 108.443 96.6623 105.3" stroke="black" stroke-width="1.20829" stroke-linecap="round" stroke-linejoin="round"></path><path fill-rule="evenodd" clip-rule="evenodd" d="M111.412 73.1523L111.412 73.1519L111.962 73.0442L111.952 73.1098C111.909 73.4021 111.844 73.6539 111.755 73.8653C111.666 74.077 111.549 74.1966 111.405 74.2249C111.26 74.2533 111.163 74.1424 111.114 73.8916C111.055 73.5909 111.068 73.1343 111.154 72.5215C111.244 71.8841 111.341 71.4372 111.443 71.1806C111.546 70.9239 111.674 70.7805 111.828 70.7504C111.915 70.7333 111.994 70.7725 112.065 70.8672C112.136 70.9621 112.207 71.1397 112.278 71.4001L113.235 70.8791C113.137 70.5062 112.965 70.2217 112.719 70.0261C112.473 69.8306 112.154 69.7711 111.764 69.8475C110.804 70.0354 110.211 70.9416 109.983 72.5659C109.9 73.1875 109.901 73.7174 109.986 74.1546C110.058 74.5189 110.185 74.791 110.368 74.9703C110.55 75.15 110.791 75.2104 111.09 75.1518C111.263 75.1179 111.41 75.0549 111.53 74.963C111.649 74.8711 111.759 74.7372 111.86 74.5614L111.864 74.9652L112.681 74.8052L113.113 71.8684L111.551 72.1742L111.412 73.1519L111.412 73.1519L111.412 73.1523ZM108.633 73.4198C108.619 73.5408 108.61 73.6181 108.607 73.6518L108.535 73.055L108.22 70.6406L106.976 70.8842L106.219 76.0701L107.268 75.8648L107.654 73.157C107.675 73.0346 107.693 72.9129 107.706 72.7919C107.72 72.671 107.729 72.5936 107.732 72.5599C107.734 72.5926 107.739 72.6592 107.749 72.7589C107.758 72.859 107.775 72.9916 107.797 73.1577L108.129 75.6966L109.344 75.4588L110.1 70.2729L109.052 70.4782L108.685 73.0547C108.664 73.1771 108.646 73.2988 108.633 73.4198ZM105.101 76.7141L107.567 76.2313L107.428 77.2094L106.105 77.4685L105.954 78.4984L107.169 78.2606L107.023 79.2401L105.808 79.4779L105.626 80.6985L106.979 80.4338L106.84 81.4119L104.345 81.9003L105.101 76.7141ZM101.129 82.5297L101.129 82.5293L102.849 82.1924C103.168 82.1301 103.438 82.0027 103.661 81.8102C103.883 81.6177 104.07 81.3375 104.221 80.9698C104.372 80.6022 104.487 80.1241 104.567 79.5362C104.643 78.9774 104.645 78.5135 104.572 78.1446C104.488 77.712 104.31 77.413 104.04 77.2484C103.77 77.0835 103.435 77.0403 103.035 77.1187L101.885 77.3438L101.129 82.5293L101.129 82.5293L101.129 82.5297ZM102.656 81.3153C102.762 81.2945 102.858 81.2414 102.944 81.1562C103.029 81.0709 103.113 80.9068 103.193 80.6638C103.273 80.4207 103.341 80.0721 103.397 79.6163C103.47 79.0441 103.481 78.6278 103.43 78.3682C103.399 78.2086 103.349 78.1084 103.281 78.0673C103.213 78.0264 103.131 78.0151 103.034 78.0339L102.89 78.0622L102.41 81.3634L102.656 81.3153ZM108.938 75.9631L107.795 76.1868L107.038 81.3727L109.353 80.9196L109.491 79.9415L108.32 80.1709L108.938 75.9631ZM110.311 75.6945L111.453 75.4708L110.696 80.6567L109.554 80.8804L110.311 75.6945ZM113.245 73.4462C113.324 73.8473 113.482 74.1437 113.72 74.336C113.958 74.5284 114.286 74.5835 114.706 74.5014C115.159 74.4126 115.536 74.1401 115.837 73.6837C116.138 73.2274 116.343 72.5983 116.451 71.7966C116.535 71.2031 116.537 70.6968 116.455 70.2776C116.376 69.8768 116.218 69.5801 115.98 69.3878C115.742 69.1954 115.413 69.1403 114.994 69.2224C114.54 69.3112 114.164 69.5837 113.862 70.0401C113.561 70.4964 113.356 71.1255 113.248 71.9272C113.164 72.5206 113.163 73.027 113.245 73.4462ZM115.281 71.8414C115.195 72.4732 115.1 72.9197 114.999 73.1808C114.897 73.442 114.782 73.5853 114.651 73.6109C114.497 73.6411 114.397 73.54 114.352 73.3076C114.297 73.0295 114.319 72.5545 114.418 71.8825C114.505 71.2507 114.599 70.8042 114.7 70.543C114.802 70.2818 114.918 70.1385 115.048 70.113C115.202 70.0828 115.302 70.1839 115.348 70.4163C115.4 70.6851 115.378 71.1602 115.281 71.8414ZM102.656 76.7679L104.637 71.3424L106.177 71.0409L106.113 76.0911L105.014 76.3063L105.051 75.3908L104.132 75.5707L103.821 76.5399L102.656 76.7679ZM105.164 72.8427L105.198 72.2328C105.133 72.4773 105.074 72.6756 105.021 72.8281L104.466 74.5543L105.095 74.4312L105.164 72.8427ZM102.377 73.4277C102.329 73.5555 102.288 73.6633 102.267 73.7482C102.266 73.7051 102.254 73.6379 102.237 73.5453C102.219 73.4456 102.195 73.3164 102.174 73.1563L101.977 71.8637L100.849 72.0846L101.493 75.2764L101.235 77.0468L102.377 76.8232L102.623 75.1405L104.276 71.4135L102.996 71.6642L102.475 73.1611C102.442 73.2576 102.408 73.3467 102.377 73.4277Z" fill="black"></path></svg>