<svg xmlns="http://www.w3.org/2000/svg" width="234" height="167" viewBox="0 0 234 167" fill="none"><path d="M59.7954 140.468L102.261 134.542C102.261 134.542 105.984 122.287 107.734 120.004C109.485 117.721 113.432 115.07 115.454 112.013C116.878 109.254 118.116 106.404 119.16 103.481L121.518 96.3121L126.34 87.7545C126.34 87.7545 128.502 88.324 129.662 86.5852C130.822 84.8463 132.008 80.2675 131.034 78.5302C130.322 77.4017 129.287 76.5129 128.064 75.9782C128.064 75.9782 130.958 70.9917 130.479 69.0285C130.001 67.0652 127.157 65.0136 127.157 65.0136L122.874 63.7905C122.874 63.7905 121.811 60.2925 122.002 60.1613C122.193 60.0301 125.603 62.8344 127.626 62.0337C128.802 61.5867 129.79 60.7493 130.423 59.6614C130.423 59.6614 128.578 53.9335 126.712 52.1116C124.846 50.2896 120.632 50.3461 120.632 50.3461L120.052 45.0642C120.052 45.0642 124.765 41.9064 125.511 39.0447C126.258 36.183 126.741 34.0288 124.656 34.0104C122.571 33.9921 118.107 35.9653 118.107 35.9653L81.1422 47.9412L78.6441 46.8344L75.5844 48.0411C75.5844 48.0411 75.6888 52.5048 75.8928 55.8394C76.0967 59.174 74.4109 67.6035 73.7066 71.3915C73.0024 75.1796 72.32 78.2502 72.5168 82.2828C72.7135 86.3154 74.4767 98.2019 74.8959 101.581C75.3151 104.959 75.7928 109.475 75.3086 111.625C74.8245 113.775 59.7954 140.468 59.7954 140.468Z" fill="#FEE9DB"></path><path d="M81.591 48.4097L79.2118 27.8315L79.8746 25.526L82.4092 23.8654L85.7377 23.4618L113.389 19.791L116.639 22.3868L117.222 25.6901L121.247 53.6622C121.247 53.6622 120.49 56.1639 121.062 57.6088C121.634 59.0537 122.009 60.0903 122.009 60.0903L123.137 67.2038C123.137 67.2038 121.666 69.8661 121.806 72.6172C121.946 75.3683 122.854 75.7291 122.854 75.7291C122.854 75.7291 124.458 77.1389 124.398 77.1125C124.337 77.0861 124.81 80.0653 124.81 80.0653C124.81 80.0653 122.919 81.5009 123.44 83.4539C123.723 84.5708 124.141 85.6493 124.685 86.6652L125.854 87.5474C125.854 87.5474 126.986 91.2623 126.501 92.6196C126.015 93.9768 124.321 95.0755 123.295 95.2186L92.649 99.4342C92.649 99.4342 89.1766 99.2437 88.2908 95.9868C87.4051 92.7299 84.778 69.0323 84.778 69.0323C84.778 69.0323 85.9892 61.8536 84.9453 56.5888C83.9013 51.3239 81.591 48.4097 81.591 48.4097Z" fill="white"></path><path d="M97.9149 58.752L90.1123 60.0585C89.4961 60.1625 89.0217 59.5221 89.3013 58.9629L99.2809 38.96C99.5134 38.4957 100.131 38.3923 100.501 38.7564L116.452 54.4185C116.898 54.856 116.659 55.6156 116.042 55.719L108.292 57.0164L108.271 57.3366L110.972 73.4727C111.06 74 110.704 74.4973 110.178 74.5863L101.784 75.9913C101.256 76.0797 100.759 75.7236 100.67 75.1977L97.957 58.9896L97.9149 58.752Z" fill="#C0E5B5" stroke="black" stroke-width="1.6" stroke-linecap="round" stroke-linejoin="round"></path><path d="M54.4438 142.5L68.2628 120.729C68.2628 120.729 72.1984 118.088 78.2779 119.823C84.3575 121.558 93.2371 124.005 100.189 128.872C107.142 133.739 109.212 136.277 108.836 138.421C108.46 140.564 106.444 145 106.444 145C106.444 145 91.1446 146.699 75.9436 145C57.9557 142.997 54.4438 142.5 54.4438 142.5Z" fill="#FEDE47"></path><path d="M103.297 131.191C105.014 125.794 106.739 121.175 107.984 119.673C111.164 115.831 114.442 116.001 117.958 106.859C119.96 101.631 121.507 96.074 121.507 96.074" stroke="black" stroke-width="1.66971" stroke-linecap="round" stroke-linejoin="round"></path><path d="M72.1255 119.283C73.8527 115.771 75.085 112.676 75.258 110.7C75.8812 103.708 72.3806 87.7688 72.3829 81.7917C72.3815 74.9133 75.2582 66.7447 75.8457 58.9042C76.2928 52.7429 74.868 49.9313 75.6332 48.2345C76.0996 47.2067 78.8299 46.1681 80.994 48.0965C82.8015 49.7175 84.1541 52.0117 84.9917 56.5474C86.121 62.6106 84.1092 66.3939 84.882 71.9318" stroke="black" stroke-width="1.66971" stroke-linecap="round" stroke-linejoin="round"></path><path d="M101.989 24.6315L93.4681 25.8205C92.5477 25.9489 91.9057 26.7992 92.0341 27.7195C92.1625 28.6399 93.0128 29.2819 93.9332 29.1535L102.454 27.9646C103.374 27.8361 104.016 26.9859 103.888 26.0655C103.759 25.1451 102.909 24.5031 101.989 24.6315Z" fill="black"></path><path d="M125.807 87.5888L126.243 90.7126C126.761 94.426 124.887 95.3887 122.452 95.7286L93.2579 99.8023C92.0906 99.9652 90.9064 99.6578 89.9658 98.9475C89.0253 98.2373 88.4054 97.1825 88.2425 96.0152L84.8581 71.7612" stroke="black" stroke-width="1.66971" stroke-linecap="round" stroke-linejoin="round"></path><path d="M124.35 77.1498L124.802 80.3845" stroke="black" stroke-width="1.66971" stroke-linecap="round" stroke-linejoin="round"></path><path d="M121.927 59.7794L123.04 67.7573" stroke="black" stroke-width="1.66971" stroke-linecap="round" stroke-linejoin="round"></path><path d="M81.6275 48.6093L78.8818 28.9318C78.7189 27.7645 79.0263 26.5803 79.7365 25.6397C80.4467 24.6992 81.5015 24.0793 82.6688 23.9164L111.863 19.8427C112.441 19.7615 113.03 19.795 113.595 19.9414C114.16 20.0877 114.691 20.3438 115.157 20.6954C115.623 21.0471 116.016 21.4872 116.312 21.9906C116.608 22.4939 116.802 23.0509 116.882 23.6292L121.137 54.1222" stroke="black" stroke-width="1.66971" stroke-linecap="round" stroke-linejoin="round"></path><path d="M118.699 35.6824C119.72 34.9758 120.836 34.4181 122.014 34.0261C125.165 33.007 127.815 35.7 125.041 39.6375C123.609 41.5911 121.874 43.3037 119.902 44.7108" stroke="black" stroke-width="1.66971" stroke-linecap="round" stroke-linejoin="round"></path><path d="M120.703 50.1051C120.703 50.1051 123.537 50.1235 124.349 50.4111C126.003 50.9992 127.563 51.9359 129.075 54.7482C130.096 56.6357 130.645 59.2904 129.925 60.4059C129.205 61.5213 126.507 62.6647 123.937 61.5422C121.367 60.4197 120.717 57.1996 121.125 54.0933" stroke="black" stroke-width="1.66971" stroke-linecap="round" stroke-linejoin="round"></path><path d="M122.843 63.7858C127.145 64.3617 129.838 66.1162 130.382 68.3969C130.798 70.1251 129.24 74.1672 127.723 76.1215C127.191 76.8056 125.632 77.5633 124.351 77.1497C120.162 75.7913 122.089 69.245 123.039 67.7489" stroke="black" stroke-width="1.66971" stroke-linecap="round" stroke-linejoin="round"></path><path d="M127.843 76.2008C130.297 76.5902 131.319 78.5774 130.95 81.6435C130.571 84.7981 129.564 86.8858 128.725 87.2382C125.844 88.4418 124.107 86.6718 123.64 84.9813C123.446 84.1783 123.451 83.3404 123.654 82.5396C123.856 81.7388 124.25 80.9992 124.802 80.3846" stroke="black" stroke-width="1.66971" stroke-linecap="round" stroke-linejoin="round"></path><path d="M104.444 145L108.737 138.931C109.815 135.479 102.24 129.204 91.0844 124.187C79.9292 119.17 70.3965 117.882 68.3418 120.765L54.4437 143" stroke="black" stroke-width="1.66971" stroke-linecap="round" stroke-linejoin="round"></path><path d="M33.9393 62.15L33.9402 62.15C38.1344 62.1553 42.2718 61.2027 46.0256 59.3682C47.1963 58.7748 48.5456 58.6212 49.822 58.9351L49.8221 58.935L49.8353 58.9384L56.0681 60.5774C56.5434 60.7024 57.0441 60.7024 57.5194 60.5772C57.9946 60.4521 58.4262 60.2068 58.7716 59.8676C59.1169 59.5285 59.3638 59.1076 59.4892 58.6479C59.6147 58.1883 59.6147 57.7047 59.4894 57.245L57.8206 51.1236L57.8205 51.1236L57.817 51.1099C57.4948 49.8456 57.653 48.5097 58.2605 47.3532C60.8844 42.1668 61.7157 36.2832 60.6295 30.5926C59.543 24.8997 56.596 19.7072 52.2321 15.8032C47.8679 11.899 42.3247 9.49664 36.4419 8.96307C30.559 8.4295 24.6604 9.79413 19.6404 12.8483C14.6206 15.9024 10.7543 20.4785 8.62417 25.8807C6.49413 31.2827 6.21523 37.2186 7.82934 42.7898C9.4435 48.3612 12.8637 53.2669 17.5749 56.7616C22.2863 60.2565 28.0313 62.149 33.9393 62.15Z" fill="#FEDE47" stroke="black" stroke-width="1.7"></path><path d="M37.4502 30.981C36.6744 30.7772 35.6108 30.4347 34.6282 30.0304C34.1362 29.828 33.6527 29.6052 33.2303 29.371C32.8254 29.1464 32.4303 28.8862 32.1421 28.5927L32.1331 28.5842L32.1239 28.5748C31.8373 28.2849 31.5787 27.8822 31.3532 27.4685C31.1214 27.0432 30.8977 26.5557 30.6924 26.0594C30.2819 25.0675 29.9266 23.9965 29.7122 23.2263M37.4502 30.981L28.3411 40.6572C28.1319 39.8849 27.7871 38.8144 27.3907 37.8232C27.1924 37.3273 26.977 36.8405 26.7544 36.4158C26.5386 36.0039 26.2919 35.603 26.0193 35.3122C25.5187 34.772 24.5967 34.2731 23.7323 33.8812C22.8277 33.4712 21.8378 33.1143 21.0841 32.8953L20.8609 33.6635L21.0839 32.8953C20.8824 32.8368 20.7438 32.6522 20.7438 32.4424L20.7438 31.9331C20.7438 31.7001 20.8919 31.4928 21.1123 31.4171C21.87 31.1593 22.8627 30.754 23.765 30.3052C24.626 29.877 25.536 29.3467 26.0179 28.8083C26.5417 28.237 27.0224 27.2071 27.4015 26.2424C27.7973 25.2353 28.1366 24.1535 28.3414 23.3743L27.5677 23.171L28.3417 23.3729C28.4157 23.0893 28.6643 22.886 28.9569 22.8699L29.1966 22.8566C29.434 22.8435 29.6484 22.9973 29.7122 23.2263M37.4502 30.981C37.709 31.0502 37.8892 31.2847 37.8892 31.5527L37.8892 31.9888C37.8892 32.2803 37.701 32.5383 37.4238 32.6276C36.6463 32.8671 35.582 33.2599 34.5994 33.7079C33.6546 34.1386 32.6492 34.6795 32.1123 35.2457L32.1123 35.2457C31.8307 35.5427 31.5746 35.9517 31.3495 36.3742C31.1187 36.8076 30.8956 37.3033 30.6905 37.8077C30.2807 38.8156 29.9257 39.9007 29.7116 40.6796C29.7116 40.6797 29.7116 40.6797 29.7115 40.6798L29.6983 40.7279C29.6367 40.952 29.4316 41.1063 29.1992 41.1035L28.9127 41.1C28.6447 41.0968 28.4113 40.9161 28.3411 40.6574L37.4502 30.981ZM29.7122 23.2263L30.4827 23.0119L29.7122 23.2264C29.7122 23.2263 29.7122 23.2263 29.7122 23.2263Z" fill="white" stroke="black" stroke-width="1.6"></path><path d="M43.0331 48.9345C42.872 48.3636 42.6071 47.5735 42.3022 46.8391C42.0144 46.146 41.6377 45.3672 41.2195 44.9298C40.8126 44.4999 40.0815 44.105 39.4226 43.8004C38.7245 43.4776 37.9604 43.1913 37.376 43.0112L37.1405 43.7752L37.3759 43.0111C37.2921 42.9853 37.235 42.9079 37.235 42.8202L37.235 42.5209C37.235 42.4462 37.2844 42.3806 37.3562 42.36C37.945 42.1916 38.7127 41.9227 39.4109 41.6193C39.7606 41.4673 40.1039 41.3019 40.404 41.1307C40.6901 40.9675 40.9839 40.7729 41.2016 40.5504C41.4354 40.3168 41.6382 40.0054 41.8087 39.6993C41.9862 39.3806 42.1549 39.0192 42.3078 38.6552C42.6133 37.928 42.8746 37.1458 43.0327 36.5796L42.2622 36.3644L43.0331 36.5781C43.0597 36.4822 43.1466 36.4155 43.246 36.4147L43.4943 36.4125C43.5893 36.4116 43.6733 36.4743 43.6996 36.5656C43.8636 37.1355 44.1344 37.9263 44.4471 38.6614C44.6037 39.0294 44.7753 39.3942 44.9544 39.7155C45.1275 40.0262 45.3322 40.3413 45.5651 40.5758L45.574 40.5847L45.5806 40.5909C45.8133 40.826 46.1241 41.0323 46.4307 41.2068C46.7538 41.3908 47.1215 41.5669 47.4931 41.7274C48.2348 42.0478 49.0361 42.3252 49.6208 42.4942C49.7352 42.5279 49.8138 42.633 49.8138 42.7523L49.8138 43.0069C49.8138 43.1119 49.7439 43.2039 49.6431 43.2324C49.0555 43.3866 48.2524 43.6447 47.5093 43.9453C47.1363 44.0962 46.7672 44.2624 46.4427 44.4367C46.1296 44.605 45.8104 44.8057 45.5733 45.0375L45.5733 45.0375C45.337 45.2686 45.1306 45.5809 44.9571 45.8872C44.7773 46.2045 44.6053 46.5653 44.4485 46.9293C44.1354 47.6563 43.8643 48.4401 43.7001 49.0063L44.4681 49.2293L43.7 49.0065C43.6781 49.0818 43.6046 49.1367 43.521 49.1336L43.2746 49.1243C43.1615 49.1201 43.064 49.0434 43.0331 48.9345ZM43.0331 48.9345L42.2632 49.1518L43.0331 48.9343C43.0331 48.9344 43.0331 48.9344 43.0331 48.9345Z" fill="white" stroke="black" stroke-width="1.6"></path><path d="M160.838 120.896L160.837 120.896C157.694 121.006 154.57 120.397 151.711 119.117C150.765 118.678 149.69 118.592 148.685 118.876L148.685 118.875L148.671 118.879L143.996 120.279L144.223 121.04L143.996 120.279C143.673 120.376 143.33 120.387 143.002 120.312C142.674 120.238 142.373 120.08 142.13 119.856C141.886 119.633 141.709 119.352 141.613 119.043C141.517 118.733 141.506 118.404 141.581 118.089L140.91 117.93L141.581 118.089L142.688 113.413L142.688 113.413L142.691 113.399C142.913 112.385 142.752 111.326 142.238 110.422C140.142 106.604 139.371 102.218 140.04 97.9285C140.711 93.6368 142.787 89.6723 145.958 86.6368C149.129 83.6011 153.223 81.6606 157.619 81.112C162.014 80.5634 166.469 81.4372 170.308 83.5991C174.147 85.7609 177.159 89.0919 178.892 93.0849C180.624 97.0777 180.982 101.517 179.914 105.731C178.846 109.945 176.407 113.707 172.966 116.444C169.523 119.182 165.266 120.746 160.838 120.896Z" fill="#FEDE47" stroke="black" stroke-width="1.7"></path><path d="M169.945 96.9323L169.713 97.698C169.125 97.5197 168.355 97.2352 167.653 96.9149C166.992 96.6136 166.258 96.2228 165.85 95.7978C165.411 95.3496 165.009 94.5509 164.699 93.8329C164.37 93.073 164.083 92.2556 163.906 91.6644L164.673 91.4352L163.906 91.663C163.867 91.5312 163.747 91.4397 163.609 91.4368L163.428 91.4329C163.339 91.431 163.26 91.4912 163.239 91.5776C163.095 92.173 162.851 93.0003 162.563 93.7694C162.419 94.1543 162.259 94.5359 162.091 94.8718C161.928 95.196 161.733 95.5267 161.504 95.7735L161.496 95.7832L161.489 95.7897C161.26 96.0386 160.95 96.2561 160.645 96.4391C160.322 96.6323 159.955 96.8167 159.583 96.9844C158.842 97.3192 158.037 97.6085 157.448 97.7848L165.123 104.829C165.015 105.291 164.613 105.624 164.14 105.646L163.923 105.656C163.472 105.676 163.064 105.39 162.93 104.959L162.918 104.923L163.682 104.685L163.693 104.721C163.72 104.805 163.799 104.861 163.887 104.857L164.103 104.847C164.219 104.841 164.318 104.76 164.345 104.646M169.945 96.9323L169.712 97.6977C169.802 97.725 169.864 97.8062 169.868 97.8999L169.881 98.2854C169.883 98.3579 169.837 98.4232 169.768 98.4458L170.017 99.2061L169.768 98.4458C169.195 98.6337 168.446 98.9326 167.763 99.2702C167.12 99.5883 166.402 100.004 166.008 100.458C165.792 100.705 165.607 101.033 165.451 101.356C165.29 101.691 165.137 102.071 164.998 102.455C164.721 103.223 164.485 104.05 164.345 104.646M169.945 96.9323C170.362 97.0592 170.652 97.4373 170.667 97.8729L170.68 98.2584C170.694 98.6866 170.424 99.0729 170.017 99.2061L166.425 95.241C166.999 95.8446 168.836 96.5962 169.945 96.9323ZM164.345 104.646L165.122 104.829L164.345 104.646C164.345 104.646 164.345 104.646 164.345 104.646Z" fill="white" stroke="black" stroke-width="1.6"></path><path d="M150.147 106.165C149.586 106.43 148.979 106.663 148.534 106.809C148.53 106.81 148.527 106.814 148.528 106.818L148.534 106.998C148.989 107.102 149.603 107.277 150.175 107.487C150.465 107.593 150.756 107.712 151.014 107.84C151.261 107.962 151.527 108.115 151.733 108.303L151.733 108.303C151.937 108.49 152.113 108.74 152.255 108.972C152.404 109.216 152.547 109.491 152.677 109.767C152.927 110.298 153.149 110.87 153.291 111.297L153.432 111.287C153.434 111.287 153.435 111.286 153.435 111.284C153.545 110.841 153.727 110.229 153.942 109.658C154.141 109.128 154.417 108.497 154.749 108.125C155.074 107.758 155.649 107.426 156.138 107.179C156.655 106.919 157.22 106.684 157.662 106.53L157.657 106.386C157.206 106.27 156.633 106.089 156.108 105.882C155.835 105.774 155.564 105.655 155.324 105.529C155.099 105.41 154.853 105.26 154.663 105.079C154.461 104.89 154.289 104.642 154.149 104.41C154.001 104.165 153.861 103.889 153.734 103.613C153.484 103.069 153.266 102.485 153.129 102.054L152.986 102.058C152.874 102.499 152.689 103.099 152.472 103.661C152.362 103.948 152.238 104.235 152.107 104.491C151.981 104.736 151.825 104.998 151.636 105.201L151.628 105.21L151.623 105.215C151.435 105.417 151.188 105.591 150.957 105.734C150.709 105.886 150.428 106.032 150.147 106.165ZM157.953 107.276L157.705 106.56L157.691 106.52C157.691 106.52 157.691 106.52 157.691 106.52L157.705 106.56L157.953 107.276ZM153.123 102.036C153.123 102.037 153.124 102.037 153.124 102.038L153.147 102.03L153.887 101.797L153.147 102.029L153.123 102.036Z" fill="white" stroke="black" stroke-width="1.6"></path></svg>