<svg xmlns="http://www.w3.org/2000/svg" width="280" height="168" viewBox="0 0 280 168" fill="none"><path d="M54.6168 21.1769C54.3153 26.2209 54.0515 29.4582 53.8255 30.8884C54.7296 28.7808 56.1983 25.8822 58.2319 22.1929L69.6421 1.18811H89.639L55.0683 54.1523L46.0305 81.3686H28.1804L37.6702 52.7971L37.8962 1.18811H55.5203L54.6168 21.1769Z" fill="#F5F5F5"></path><path d="M53.0024 81.3687L94.5497 1.18823H118.598L106.969 81.3687H89.8082L92.2916 66.9136H77.9533L71.1794 81.3687H53.0024ZM99.4045 26.7102L101.211 17.1113C99.7058 20.8006 98.3884 23.7742 97.2596 26.0328L85.1793 51.7811H95.0015L99.4045 26.7102Z" fill="#F5F5F5"></path><path d="M151.694 50.3127C151.845 49.7858 152.185 48.581 152.713 46.6989C153.317 44.8168 153.959 42.9346 154.638 41.0525L167.774 1.18823H184.193L157.469 81.3687H138.445L140.937 39.9232C141.088 37.2128 141.238 35.0675 141.39 33.4863C141.541 31.8301 141.654 30.7381 141.729 30.2112C141.578 30.7381 141.201 31.9428 140.597 33.825C140.068 35.7071 139.465 37.5892 138.785 39.4713L124.971 81.3687H108.552L135.275 1.18823H154.752L152.374 40.6006L151.694 50.3127Z" fill="#F5F5F5"></path><path d="M194.996 51.2685L199.965 36.2029H224.36L209.226 81.4001H196.464L197.593 74.9916C195.56 77.4651 193.49 79.2638 191.382 80.3881C189.349 81.4377 186.977 81.9623 184.266 81.9623C179.598 81.9623 176.135 80.2758 173.876 76.903C171.692 73.455 170.6 68.7329 170.6 62.7368C170.6 55.5412 172.144 47.1461 175.231 37.5522C183.438 12.5174 195.034 0 210.017 0C216.116 0 220.709 1.94894 223.796 5.84637C226.958 9.66911 228.727 14.6908 229.104 20.9124L213.179 26.1966C212.878 21.8493 212.313 18.8136 211.485 17.0897C210.732 15.3657 209.678 14.5034 208.323 14.5034C205.913 14.5034 203.542 16.3772 201.207 20.1253C198.948 23.8729 196.2 30.6562 192.963 40.4751C189.876 49.9193 188.332 57.1149 188.332 62.0619C188.332 66.1843 189.462 68.2459 191.72 68.2459C193.979 68.2459 196.088 66.7093 198.045 63.6361C200.003 60.5629 201.735 56.7777 203.24 52.2805L203.579 51.2685H194.996Z" fill="#F5F5F5"></path><path d="M241.373 83.1501C234.853 83.1501 230.095 81.2672 227.098 77.5015C224.101 73.6602 222.602 68.4259 222.602 61.7981C222.602 54.8687 224.101 46.8096 227.098 37.6213C231.07 25.1938 235.977 15.8167 241.822 9.49037C247.666 3.16361 254.11 0 261.154 0C267.673 0 272.432 1.92063 275.429 5.7619C278.426 9.52765 279.924 14.7247 279.924 21.3525C279.924 28.2819 278.426 36.3405 275.429 45.5293C271.457 57.9568 266.549 67.3335 260.705 73.6602C254.86 79.987 248.416 83.1501 241.373 83.1501ZM243.171 68.8025C245.194 68.8025 247.329 66.8819 249.577 63.0406C251.9 59.1993 254.635 52.3832 257.782 42.5922C261.229 32.0476 262.953 24.5534 262.953 20.11C262.953 16.2687 261.753 14.3481 259.356 14.3481C257.332 14.3481 255.16 16.2687 252.837 20.11C250.589 23.9513 247.891 30.7674 244.744 40.5584C241.297 50.9524 239.574 58.4462 239.574 63.0406C239.574 66.8819 240.773 68.8025 243.171 68.8025Z" fill="#F5F5F5"></path><path d="M0.406006 167.489L26.9356 87.9028H44.8099C51.0301 87.9028 55.9014 89.6217 59.4235 93.0588C63.0207 96.4965 64.8193 101.765 64.8193 108.864C64.8193 114.918 63.4329 122.241 60.6601 130.835C57.7371 139.877 54.5897 147.088 51.2174 152.469C47.9197 157.774 44.3225 161.623 40.4253 164.014C36.5286 166.331 32.107 167.489 27.1605 167.489H0.406006ZM26.8234 153.029C28.4723 153.029 30.046 152.506 31.5446 151.46C33.1188 150.339 34.8422 147.985 36.7159 144.398C38.6643 140.811 40.7253 135.505 42.8986 128.481C45.6714 119.662 47.0578 113.124 47.0578 108.864C47.0578 106.249 46.6084 104.53 45.7089 103.708C44.8098 102.811 43.6108 102.363 42.1117 102.363H39.8634L23.0014 153.029H26.8234Z" fill="#F5F5F5"></path><path d="M78.4016 87.9028H116.818L111.861 102.923H91.2445L85.9499 118.728H104.877L99.8068 133.749H80.8802L74.5712 152.469H95.6386L90.6813 167.489H51.8142L78.4016 87.9028Z" fill="#F5F5F5"></path><path d="M120.558 87.9028H138.094L116.784 152.469H134.765L129.881 167.489H94.3643L120.558 87.9028Z" fill="#F5F5F5"></path><path d="M160.509 87.9028H178.283L151.735 167.489H133.962L160.509 87.9028Z" fill="#F5F5F5"></path></svg>