<svg xmlns="http://www.w3.org/2000/svg" width="325" height="324" viewBox="0 0 325 324" fill="none"><g clip-path="url(#clip0_2053_2375)"><path d="M259.5 260.5C276.448 260.927 288.604 258.862 288.604 258.862L284.447 239.58L283.138 237.737L274.492 237.139C271.579 237.323 266.792 238.132 263.388 238.163C259.682 238.201 255.981 238.121 252.299 237.923L228.096 236.738L225.041 239.592C225.041 239.592 225.207 253.75 227 259.953C227 259.953 248.379 260.237 259.5 260.5Z" fill="#FFF492"></path><path d="M225.075 239.039C224.9 241.728 224.763 253.734 227 260" stroke="black" stroke-linecap="round" stroke-linejoin="round"></path><path d="M288.753 258.879C287.223 251.914 284.141 238.824 284.093 237.183" stroke="black" stroke-linecap="round" stroke-linejoin="round"></path><path d="M267.813 138.056C267.813 138.056 280.375 139.818 288.206 145.08C296.037 150.342 315.803 176.503 316.777 187.657C317.096 191.326 316.44 194.594 314.091 198.696C309.678 206.403 302.22 212.351 302.22 212.351C301.085 213.389 298.68 214.023 297.869 213.47L294.269 218.304C291.965 224.589 283.741 219.899 282.188 215.514L282.171 209.12C282.265 208.971 282.37 208.834 282.487 208.712L285.913 204.302C284.743 200.394 289.351 194.363 294.711 189.436L285.829 177.552L267.813 138.056Z" fill="#C0E5B5" stroke="black" stroke-linecap="round" stroke-linejoin="round"></path><path d="M297.752 188.311C300.052 187.163 301.49 186.653 304.808 186.477" stroke="black" stroke-linecap="round"></path><path d="M287.812 177.101C287.656 183.034 287.48 189.503 287.768 196.373C287.768 196.373 290.672 219.133 290.441 227.389C290.348 230.966 290.762 234.042 288.981 236.655L288.075 237.994L288.063 247.655C281.731 250.716 246.404 252.778 224.187 249.503C224.249 247.018 224.183 243.789 224.27 240.68C219.01 237.985 220.216 228.769 220.919 214.44C222.583 180.579 206.728 149.782 236.785 139.473C256.125 133.699 267.874 138.098 267.874 138.098C267.874 138.098 278.956 140.688 280.561 141.45" fill="#C0E5B5"></path><path d="M287.812 177.101C287.656 183.034 287.48 189.503 287.768 196.373C287.768 196.373 290.672 219.133 290.441 227.389C290.348 230.966 290.762 234.042 288.981 236.655L288.075 237.994L288.063 247.655C281.731 250.716 246.404 252.778 224.187 249.503C224.249 247.018 224.183 243.789 224.27 240.68C219.01 237.985 220.216 228.769 220.919 214.44C222.583 180.579 206.728 149.782 236.785 139.473C256.125 133.699 267.874 138.098 267.874 138.098C267.874 138.098 278.956 140.688 280.561 141.45" stroke="black" stroke-linecap="round" stroke-linejoin="round"></path><path d="M242.631 241.807C238.126 241.716 224.231 240.585 224.231 240.585" stroke="black" stroke-linecap="round" stroke-linejoin="round"></path><path d="M276.733 240.29C284.4 239.711 287.857 238.115 287.857 238.115" stroke="black" stroke-linecap="round" stroke-linejoin="round"></path><path d="M247.079 143.312C243.724 142.353 241.553 140.847 241.598 139.209C241.668 136.551 247.548 134.553 254.731 134.742C261.914 134.934 267.678 137.244 267.607 139.902C267.551 141.963 263.999 143.63 259.056 144.186" fill="#C0E5B5"></path><path d="M247.079 143.312C243.724 142.353 241.553 140.847 241.598 139.209C241.668 136.551 247.548 134.553 254.731 134.742C261.914 134.934 267.678 137.244 267.607 139.902C267.551 141.963 263.999 143.63 259.056 144.186" stroke="black" stroke-linecap="round" stroke-linejoin="round"></path><path d="M245.802 132.18L245.928 129.593L245.885 129.277C245.544 127.134 245.33 124.969 245.252 122.8C243.229 121.507 242.396 118.567 243.524 117.037C243.611 116.923 243.71 116.816 243.815 116.717C243.875 116.659 243.943 116.604 244.012 116.558L244.209 116.425C244.355 116.345 244.507 116.276 244.661 116.22C244.836 116.163 245.017 116.122 245.198 116.095C245.313 116.07 245.432 116.054 245.553 116.047C245.659 116.046 245.769 116.05 245.875 116.063L246.081 116.102C246.146 116.114 246.208 116.133 246.269 116.154L246.502 116.231C246.572 116.256 246.637 116.286 246.701 116.326L246.836 116.395C246.901 116.429 246.959 116.465 247.018 116.504C247.082 116.543 247.144 116.585 247.202 116.633C247.529 116.888 247.821 117.19 248.061 117.529C248.093 117.553 248.113 117.589 248.121 117.627C252.623 116.125 251.611 107.766 251.611 107.766C260.151 112.844 259.489 106.701 259.489 106.701C259.489 106.701 272.006 108.322 276.399 110.627C275.946 114.373 272.792 131.506 266.65 136.336L265.174 137.284L264.656 137.548C264.45 137.651 264.239 137.742 264.023 137.818L264.052 138.034L263.804 139.479C256.007 141.888 250.03 141.225 245.581 138.916C245.569 138.887 245.719 135.498 245.716 135.49L245.802 132.18Z" fill="#FCE7D9"></path><path d="M275.254 114.681C275.254 114.681 273.29 139.852 259.643 138.374C254.627 137.827 251.883 132.654 251.883 132.654" stroke="black" stroke-linecap="round"></path><path d="M260.082 115.626C261.187 115.804 262.248 116.173 263.224 116.72C263.309 116.777 263.406 116.814 263.507 116.833C263.607 116.852 263.713 116.848 263.811 116.823C263.912 116.798 264.004 116.752 264.088 116.688C264.168 116.625 264.235 116.546 264.283 116.455C264.335 116.365 264.366 116.265 264.379 116.165C264.389 116.062 264.379 115.959 264.351 115.858C264.32 115.761 264.271 115.669 264.201 115.588C264.134 115.511 264.052 115.445 263.959 115.399C262.901 114.768 261.725 114.363 260.501 114.209C257.944 113.887 255.733 115.372 255.997 115.732C256.26 116.092 257.502 115.221 260.082 115.626Z" fill="black"></path><path d="M272.997 119.609C273.26 119.406 273.097 118.023 271.656 117.124C270.803 116.502 269.74 116.236 268.692 116.377C268.271 116.474 267.984 116.668 267.957 117.103C267.95 117.191 267.964 117.28 267.992 117.363C268.02 117.446 268.066 117.523 268.125 117.589C268.183 117.654 268.256 117.708 268.335 117.748C268.414 117.787 268.503 117.809 268.591 117.81C269.329 117.845 270.06 117.988 270.757 118.239C272.288 118.812 272.771 119.768 272.997 119.609Z" fill="black"></path><path d="M264.509 127.628C264.94 127.493 265.333 127.263 265.66 126.95C265.986 126.639 266.237 126.257 266.391 125.835C266.771 124.45 264.75 122.618 264.478 122.827C264.206 123.038 265.452 124.369 265.154 125.334C264.929 125.991 264.2 126.13 263.879 126.273C263.695 126.323 263.54 126.442 263.437 126.602C263.334 126.763 263.296 126.954 263.329 127.143C263.359 127.261 263.417 127.371 263.501 127.46C263.586 127.55 263.688 127.616 263.806 127.656C264.035 127.727 264.284 127.716 264.509 127.628Z" fill="black"></path><path d="M265.387 131.965C265.482 131.945 265.568 131.905 265.646 131.847C265.723 131.793 265.786 131.72 265.832 131.635C265.877 131.55 265.905 131.459 265.913 131.365C265.92 131.268 265.907 131.174 265.875 131.082C265.813 130.91 265.691 130.767 265.53 130.679C265.368 130.592 265.18 130.568 265.002 130.613C264.089 130.785 263.153 130.516 262.252 130.285C259.501 129.718 258.872 128.277 258.572 128.55C258.276 128.822 259.683 131.231 261.884 131.873C263.01 132.281 264.241 132.31 265.387 131.965Z" fill="black"></path><path d="M260.591 121.289C259.886 121.016 259.655 120.044 260.02 119.112C260.385 118.181 261.249 117.646 261.937 117.921C262.624 118.196 262.873 119.165 262.499 120.097C262.126 121.028 261.291 121.52 260.591 121.289Z" fill="black"></path><path d="M268.628 123.154C267.922 122.882 267.694 121.907 268.071 120.975C268.445 120.044 269.303 119.517 269.982 119.792C270.661 120.067 270.918 121.04 270.545 121.968C270.171 122.9 269.315 123.441 268.628 123.154Z" fill="black"></path><path d="M245.5 123.068C246.093 123.336 246.726 123.507 247.372 123.575" stroke="black" stroke-linecap="round"></path><path d="M247.146 116.568C247.602 116.896 247.983 117.313 248.268 117.795" stroke="black" stroke-linecap="round" stroke-linejoin="round"></path><path d="M241.728 114.923L241.869 115.961C242.34 119.797 243.342 123.482 245.372 126.772L245.473 126.932L245.758 123.166C242.294 121.968 241.927 117.079 244.7 116.173C245.11 116.029 245.548 115.988 245.975 116.053C246.403 116.118 246.808 116.289 247.156 116.547C248.168 116.412 247.967 116.851 248.239 117.473C248.608 118.324 252.211 117.183 253.483 115.431C254.756 113.679 254.353 109.853 254.353 109.853L254.592 109.874L254.549 109.552C255.579 109.826 256.654 109.886 257.708 109.73C258.771 109.554 259.788 109.162 260.694 108.58L259.634 112.244C259.634 112.244 264.7 112.971 266.746 113.28L267.142 113.28L267.426 113.243C269.9 113.008 275.125 110.868 275.482 110.688C275.488 110.708 275.49 110.732 275.49 110.752C275.48 112.685 275.346 114.612 275.094 116.526C275.056 116.655 275.04 116.787 275.041 116.92C274.99 117.331 274.932 117.693 274.878 117.987L274.85 118.077C274.765 118.595 274.678 119.121 274.57 119.649C275.669 119.038 276.577 118.135 277.196 117.042C278.145 115.368 278.59 112.55 278.745 110.628C285.748 103.643 273.156 96.8307 273.156 96.8307C272.319 95.4343 270.905 94.2858 269.565 93.4122C268.069 92.4363 266.404 91.729 264.676 91.2711C263.66 91.0031 262.711 90.8716 261.68 90.8627C261.08 90.857 258.396 90.3087 257.999 90.8008C258.597 90.0583 259.199 89.3159 259.798 88.5763C257.406 89.0897 255.111 90.0463 253.056 91.3658C252.027 92.0254 251.059 92.7773 250.167 93.6098C249.951 93.8099 248.665 95.3172 248.464 95.3084C247.398 95.2518 246.334 95.4397 245.353 95.8556C244.372 96.2715 243.497 96.904 242.8 97.7069C237.028 104.569 241.728 114.923 241.728 114.923Z" fill="black" stroke="black" stroke-linecap="round" stroke-linejoin="round"></path><path d="M245.498 123.077C245.798 127.452 245.129 137.419 245.289 138.609C245.452 139.798 257.802 143.175 263.827 139.206L263.727 138.374" stroke="black" stroke-linecap="round" stroke-linejoin="round"></path><path d="M275.706 191.082C276.849 192.56 282.901 189.849 288.477 184.451C294.054 179.052 297.048 173.016 295.905 171.539C294.763 170.061 288.85 173.941 283.271 179.336C277.694 184.734 274.563 189.605 275.706 191.082Z" fill="white" stroke="black" stroke-linecap="round" stroke-linejoin="round"></path><path d="M277.083 190.881C277.083 190.881 280.235 185.825 284.168 181.696C288.918 176.713 294.468 172.746 292.555 176.309C289.509 181.991 277.083 190.881 277.083 190.881Z" fill="#C0E5B5" stroke="black" stroke-linecap="round" stroke-linejoin="round"></path><path d="M277.679 188.834C277.902 190.578 265.238 195.883 257.105 197.875C248.971 199.87 246.767 192.256 254.898 190.261C263.032 188.27 277.456 187.09 277.679 188.834Z" fill="white" stroke="black" stroke-linecap="round" stroke-linejoin="round"></path><path d="M276.496 189.913C276.496 189.913 270.544 190.608 264.466 191.242C251.658 192.577 250.19 195.445 254.229 195.651C260.672 195.973 276.496 189.913 276.496 189.913Z" fill="#C0E5B5" stroke="black" stroke-linecap="round" stroke-linejoin="round"></path><path d="M252.295 218.321C239.664 237.143 244.748 243.638 247.546 250.559C250.148 256.994 250.237 260.444 255.688 260.523L290.736 261.028C296.183 261.107 300.41 257.524 304.212 252.088C307.575 247.277 301.667 222.835 298.129 216.737C294.591 210.639 280.918 194.133 278.497 190.101C276.457 186.702 274.139 188.067 272.232 190.01C271.746 190.507 258.951 208.402 252.295 218.321Z" fill="white" stroke="black" stroke-linecap="round" stroke-linejoin="round"></path><path d="M251.852 237.663C251.852 237.663 248.429 246.598 256.906 252.938L251.852 237.663Z" fill="white"></path><path d="M251.852 237.663C251.852 237.663 248.429 246.598 256.906 252.938" stroke="black" stroke-linecap="round" stroke-linejoin="round"></path><path d="M270.139 201.603L259.451 218.424" stroke="black" stroke-linecap="round" stroke-linejoin="round"></path><path d="M274.153 188.857L277.478 210.13" stroke="black" stroke-linecap="round" stroke-linejoin="round"></path><path d="M275.922 188.882L285.576 213.449" stroke="black" stroke-linecap="round" stroke-linejoin="round"></path><path d="M231.779 175.984L226.019 198.781C222.488 207.393 214.901 221.081 209.535 216.806C203.223 211.92 202.255 205.049 203.52 197.883C206.779 179.391 209.983 167.228 216.12 154.73C222.769 141.191 240.873 138.321 240.873 138.321" fill="#C0E5B5"></path><path d="M231.779 175.984L226.019 198.781C222.488 207.393 214.901 221.081 209.535 216.806C203.223 211.92 202.255 205.049 203.52 197.883C206.779 179.391 209.983 167.228 216.12 154.73C222.769 141.191 240.873 138.321 240.873 138.321" stroke="black" stroke-linecap="round" stroke-linejoin="round"></path><path d="M225.163 198.769C225.163 198.769 249.061 203.043 247.888 210.443C255.932 214.656 252.945 221.034 248.957 223.84C247.303 224.205 243.728 223.517 241.578 222.649C239.43 227.393 226.155 222.975 223.518 222.454C217.24 221.217 212.712 219.264 209.535 216.806" fill="#C0E5B5"></path><path d="M225.163 198.769C225.163 198.769 249.061 203.043 247.888 210.443C255.932 214.656 252.945 221.034 248.957 223.84C247.303 224.205 243.728 223.517 241.578 222.649C239.43 227.393 226.155 222.975 223.518 222.454C217.24 221.217 212.712 219.264 209.535 216.806" stroke="black" stroke-linecap="round" stroke-linejoin="round"></path><path d="M226.198 198.646C219.718 198.661 216.658 202.237 216.658 202.237" stroke="black" stroke-linecap="round" stroke-linejoin="round"></path><path d="M238.045 216.345C236.726 209.899 243.091 208.871 243.091 208.871L248.108 209.674" stroke="black" stroke-linecap="round" stroke-linejoin="round"></path><path d="M269.894 213.558C271.278 213.693 271.849 211.604 270.476 211.087L266.865 209.715C265.642 209.25 263.896 208.8 262.594 208.737L257.269 208.416C256.767 208.385 256.724 207.666 257.219 207.576L262.089 206.692L267.477 207.615C269.031 207.39 268.428 205.21 267.738 204.867C263.455 202.311 259.581 202.564 254.677 203.091C253.266 203.239 251.955 203.989 251.114 205.128L244.763 212.38C242.725 214.972 243.958 223.977 250.123 222.843C256.288 221.71 258.007 219.481 258.007 219.481L264.144 218.692C265.939 218.385 266.833 217.013 267.705 215.55L269.894 213.558Z" fill="#FEE9DB"></path><path d="M255.004 217.228L260.401 216.107C261.032 215.978 261.674 215.917 262.318 215.926L267.42 216.005C268.396 215.899 269.467 214.786 269.338 213.871" stroke="black" stroke-linecap="round" stroke-linejoin="round"></path><path d="M255.044 212.537C255.044 212.537 259.417 211.973 261.273 212.132C262.197 212.007 269.181 213.327 269.181 213.327C269.756 213.379 270.374 212.914 270.504 212.51C270.621 212.19 270.608 211.842 270.468 211.531C270.331 211.223 270.077 210.978 269.763 210.852C269.763 210.852 267.212 209.687 266.107 209.247C264.894 208.762 262.328 208.236 261.021 208.287C258.559 208.376 257.219 208.421 256.062 207.748L261.092 206.253L264.296 207.003C264.296 207.003 267.74 208.331 268.439 206.748C268.644 206.288 268.707 205.417 267.73 204.87L263.591 203.046C262.097 202.3 261.443 202.367 259.783 202.541L254.666 203.094C253.962 203.167 253.282 203.387 252.669 203.737C252.055 204.088 251.522 204.563 251.103 205.131L244.749 212.377C240.912 216.036 244.659 223.754 248.733 222.979C255.001 222.531 258.257 220.097 258.257 220.097L264.143 219.216C265.334 219.012 267.48 218.348 266.989 216.736" stroke="black" stroke-linecap="round" stroke-linejoin="round"></path><path d="M100.5 259.5C100.5 259.5 99.4279 247.075 98.1655 234.824C96.906 222.573 49.9503 210.379 45.8903 232.117C41.8303 253.856 43 260 43 260L70 260L100.5 259.5Z" fill="black" stroke="black" stroke-linecap="round" stroke-linejoin="round"></path><path d="M64.0001 145.772L58.7407 146.992C51.3851 149.124 33.7832 165.348 25.2602 167.699C11.7891 171.414 7.84651 175.372 9.46398 180.617C10.0766 182.603 10.8771 183.639 12.5672 185.281C13.4892 186.095 13.5436 187.648 14.4159 188.017C15.1973 188.335 17.1466 188.599 18.5423 188.321C28.8186 186.293 38.0697 183.239 38.0697 183.239C43.0947 181.877 52.445 176.86 52.445 176.86" fill="#E9B68E"></path><path d="M64.0001 145.772L58.7407 146.992C51.3851 149.124 33.7832 165.348 25.2602 167.699C11.7891 171.414 7.84651 175.372 9.46398 180.617C10.0766 182.603 10.8771 183.639 12.5672 185.281C13.4892 186.095 13.5436 187.648 14.4159 188.017C15.1973 188.335 17.1466 188.599 18.5423 188.321C28.8186 186.293 38.0697 183.239 38.0697 183.239C43.0947 181.877 52.445 176.86 52.445 176.86" stroke="black" stroke-linecap="round" stroke-linejoin="round"></path><path d="M64.0009 145.772L58.7415 146.992C53.5282 148.501 43.1661 157.094 34.5386 162.805C30.9945 165.152 38.0705 183.239 38.0705 183.239C43.0955 181.877 52.4458 176.86 52.4458 176.86" fill="white"></path><path d="M64.0009 145.772L58.7415 146.992C53.5282 148.501 43.1661 157.094 34.5386 162.805C30.9945 165.152 38.0705 183.239 38.0705 183.239C43.0955 181.877 52.4458 176.86 52.4458 176.86" stroke="black" stroke-linecap="round" stroke-linejoin="round"></path><path d="M15.9425 188.363C5.95241 187.132 8.26169 162.627 8.78243 151.918C9.21174 143.044 9.18024 135.594 9.18024 135.594C5.61987 131.281 3.94214 125.501 5.39117 123.778C6.8402 122.055 7.4988 120.642 8.23805 120.193C8.97735 119.742 9.46443 119.978 10.0804 119.681C10.6963 119.383 11.4183 118.286 12.2018 118.044C12.9824 117.802 14.2205 118.003 14.463 117.991C15.3915 117.94 15.4682 117.337 16.8244 117.133C17.5883 117.02 17.7784 116.752 18.9279 117.97L20.5809 134.286C20.5809 134.286 20.3443 137.581 21.0069 142.242C22.3777 151.89 25.2013 167.348 25.1185 171.247" fill="#E9B68E"></path><path d="M15.9425 188.363C5.95241 187.132 8.26169 162.627 8.78243 151.918C9.21174 143.044 9.18024 135.594 9.18024 135.594C5.61987 131.281 3.94214 125.501 5.39117 123.778C6.8402 122.055 7.4988 120.642 8.23805 120.193C8.97735 119.742 9.46443 119.978 10.0804 119.681C10.6963 119.383 11.4183 118.286 12.2018 118.044C12.9824 117.802 14.2205 118.003 14.463 117.991C15.3915 117.94 15.4682 117.337 16.8244 117.133C17.5883 117.02 17.7784 116.752 18.9279 117.97L20.5809 134.286C20.5809 134.286 20.3443 137.581 21.0069 142.242C22.3777 151.89 25.2013 167.348 25.1185 171.247" stroke="black" stroke-linecap="round" stroke-linejoin="round"></path><path d="M16.3444 135.662C17.1759 135.374 18.7933 135.294 20.0021 134.66L20.5778 134.283C22.6888 132.549 24.9558 129.633 25.965 126.855C27.2788 123.243 30.7915 118.969 31.9636 117.602C32.21 117.317 32.3426 116.93 32.1374 116.612C31.8773 116.21 31.3078 115.745 30.0656 115.825C27.9303 115.962 22.5684 122.656 22.5684 122.656C21.6302 121.126 19.8183 118.914 18.9248 117.967" fill="#E9B68E"></path><path d="M16.3444 135.662C17.1759 135.374 18.7933 135.294 20.0021 134.66L20.5778 134.283C22.6888 132.549 24.9558 129.633 25.965 126.855C27.2788 123.243 30.7915 118.969 31.9636 117.602C32.21 117.317 32.3426 116.93 32.1374 116.612C31.8773 116.21 31.3078 115.745 30.0656 115.825C27.9303 115.962 22.5684 122.656 22.5684 122.656C21.6302 121.126 19.8183 118.914 18.9248 117.967" stroke="black" stroke-linecap="round" stroke-linejoin="round"></path><path d="M18.0011 127.026C18.4501 127.645 20.4289 126.89 20.6475 125.456C21.0249 124.693 20.1064 121.183 18.6813 117.967C17.9487 116.31 15.4356 117.646 15.4356 117.646" fill="#E9B68E"></path><path d="M18.0011 127.026C18.4501 127.645 20.4289 126.89 20.6475 125.456C21.0249 124.693 20.1064 121.183 18.6813 117.967C17.9487 116.31 15.4356 117.646 15.4356 117.646" stroke="black" stroke-linecap="round" stroke-linejoin="round"></path><path d="M15.4878 120.092L17.8116 126.558C17.8116 126.558 17.858 126.824 18.0028 127.026" stroke="black" stroke-linecap="round" stroke-linejoin="round"></path><path d="M18.0029 127.026C17.9618 128.858 15.7092 129.341 14.8592 128.245" stroke="black" stroke-linecap="round" stroke-linejoin="round"></path><path d="M14.8573 128.247L11.4858 121.489" stroke="black" stroke-linecap="round" stroke-linejoin="round"></path><path d="M14.8576 128.247C15.2319 129.955 13.9876 130.597 12.9161 130.113" stroke="black" stroke-linecap="round" stroke-linejoin="round"></path><path d="M8.18994 124.034C8.18994 124.034 11.8411 129.63 12.9127 130.114" stroke="black" stroke-linecap="round" stroke-linejoin="round"></path><path d="M12.9177 130.114C12.9177 130.114 13.5335 131.881 11.0893 132.126C8.64513 132.37 4.88135 125.974 4.88135 125.974" stroke="black" stroke-linecap="round" stroke-linejoin="round"></path><path d="M45.4367 155.121C47.7798 153.482 52.5021 149.547 57.9023 147.372C63.2995 145.193 74.4504 143.375 85.297 145.655C94.796 149.594 102.827 155.978 106.302 159.619C104.398 174.024 99.5403 184.311 97.5998 200.241C96.1721 211.965 99.2764 227.014 99.3924 236.8C99.4268 239.738 43.3298 242.045 44.8163 232.19C46.2373 222.777 49.747 214.618 50.241 207.406C50.7795 199.561 49.4484 193.721 49.4892 191.501C44.0647 185.735 43.1585 181.569 44.2124 177.534C45.2663 173.499 50.8751 165.868 51.9268 161.987" fill="white"></path><path d="M45.4367 155.121C47.7798 153.482 52.5021 149.547 57.9023 147.372C63.2995 145.193 74.4504 143.375 85.297 145.655C94.796 149.594 102.827 155.978 106.302 159.619C104.398 174.024 99.5403 184.311 97.5998 200.241C96.1721 211.965 99.2764 227.014 99.3924 236.8C99.4268 239.738 43.3298 242.045 44.8163 232.19C46.2373 222.777 49.747 214.618 50.241 207.406C50.7795 199.561 49.4484 193.721 49.4892 191.501C44.0647 185.735 43.1585 181.569 44.2124 177.534C45.2663 173.499 50.8751 165.868 51.9268 161.987" stroke="black" stroke-linecap="round" stroke-linejoin="round"></path><path d="M101.409 122.235C100.913 126.54 97.9592 130.562 92.6034 130.888C85.1162 131.902 84.5222 127.399 79.7533 119.192L70.1535 99.2892C83.9668 84.9551 99.0983 99.297 95.8459 118.72C94.9246 124.212 99.9356 124.231 101.409 122.235Z" fill="black" stroke="black" stroke-linecap="round" stroke-linejoin="round"></path><path d="M65.2763 104.152L82.851 111.34L84.0666 108.388C86.1764 103.261 84.2395 97.012 79.0929 94.9142C73.9934 92.8348 68.6261 96.0123 66.5348 101.093L65.2763 104.152Z" fill="#00ADFF" stroke="black" stroke-linecap="round" stroke-linejoin="round"></path><path d="M54.2249 116.95C54.2249 116.95 55.3099 123.269 55.9776 126.961C56.6454 130.652 57.0199 135.008 60.4654 139.294C63.0401 142.5 67.1017 144.22 67.1017 144.22L65.7943 147.391C65.7943 147.391 68.3996 152.778 80.4052 149.06C85.5422 146.698 86.7834 146.477 86.7834 146.477C86.7834 146.477 85.2004 142.119 84.3572 137.894C83.7461 134.778 83.3455 131.621 83.1637 128.449C83.1637 128.449 83.4587 128.476 84.8978 126.833C85.5647 126.071 86.5057 124.338 84.7848 121.756C83.064 119.172 79.5882 121.287 79.5882 121.287L75.9694 112.831C75.9694 112.831 64.1652 109.338 64.124 109.12L54.2249 116.95Z" fill="#E9B68E"></path><path d="M85.692 123.858C84.7826 121.762 84.3492 120.059 82.0503 120.474C80.6106 120.727 79.8891 120.557 78.4258 120.607L74.1106 113.726L72.2867 112.139C72.2867 112.139 70.3501 114.888 67.9432 116.035C65.5392 117.181 64.3878 117.324 64.3878 117.324L65.5825 114.177L65.7655 111.939C65.7655 111.939 61.1616 117.911 58.481 118.979C55.8003 120.048 54.4874 120.736 54.4874 120.736C54.4874 120.736 53.6209 125.705 56.3625 131.473C49.974 130.268 51.1932 121.328 51.1932 121.328C48.9624 121.729 47.4505 120.231 47.2315 119.023C47.2315 119.023 50.3941 116.904 50.5177 113.663C50.7459 110.95 51.878 107.432 55.6625 103.375C59.672 99.0761 65.6995 100.114 65.6995 100.114C65.6995 100.114 69.0315 97.3141 73.1222 97.6323C75.9055 97.8491 80.7436 98.5846 86.3398 105.976C91.4199 112.682 91.7743 119.05 91.6678 123.773C91.4326 134.35 83.9762 135.686 83.9762 135.686L83.1586 128.446C83.1615 128.454 86.6014 125.956 85.692 123.858Z" fill="black" stroke="black" stroke-linecap="round" stroke-linejoin="round"></path><path d="M67.0308 145.129C67.0308 145.129 62.6158 147.831 69.4215 150.029C76.2271 152.228 87.0897 146.428 87.0897 146.428C87.0897 146.428 86.7852 146.233 85.1758 142.068C85.1758 142.068 84.5197 140.642 83.7301 135.57C83.1433 131.791 83.1451 130.03 83.1589 128.454" stroke="black" stroke-linecap="round" stroke-linejoin="round"></path><path d="M79.2301 132.068C79.2301 132.068 78.5714 135.331 75.9583 139.096C73.309 142.913 69.1202 144.479 67.3259 144.123C65.5315 143.77 60.138 140.77 57.1676 133.452C55.4587 129.221 54.8742 123.849 54.7163 120.66C56.033 120.128 57.2865 119.46 58.4622 118.667C63.552 115.265 65.9089 111.234 65.9089 111.234C65.9089 111.234 66.0188 112.425 65.4611 114.632C65.2047 115.606 64.8484 116.55 64.3981 117.45C64.3981 117.45 68.8451 115.803 71.0108 113.561C71.4428 113.11 71.8485 112.636 72.225 112.141C76.0567 116.075 76.0504 122.252 80.4639 121.087C80.4639 121.087 81.7784 119.887 83.6255 120.885C85.4726 121.884 85.9076 124.506 84.835 126.555C83.5102 129.087 81.0998 128.628 81.0998 128.628" stroke="black" stroke-linecap="round" stroke-linejoin="round"></path><path d="M66.4999 132.102C66.493 131.758 66.217 131.639 65.8529 131.475C65.3891 131.265 65.0678 131.216 64.8804 130.889C64.618 130.438 65.0648 127.731 64.7854 127.639C64.4151 127.504 63.3487 130.97 63.5849 131.595C63.7843 132.11 65.0496 132.679 65.6756 132.709C66.2332 132.764 66.5062 132.485 66.4999 132.102Z" fill="black"></path><path d="M65.1275 136.978C64.6091 136.865 64.3765 136.399 64.541 136.06C64.7054 135.72 65.005 135.642 65.4451 135.648C66.1711 135.712 66.902 135.634 67.5965 135.42C69.1005 135.012 69.6502 134.18 69.9151 134.458C70.183 134.736 69.571 135.784 68.5218 136.417C67.4882 136.989 66.2887 137.189 65.1275 136.978Z" fill="black"></path><path d="M56.6056 125.774C56.3663 125.567 56.6933 124.197 58.1698 123.031C59.1112 122.29 60.5303 122.031 61.0563 122.027C61.6442 122.032 61.889 122.271 61.9577 122.629C61.9985 122.874 61.8434 123.178 61.3417 123.345C60.724 123.557 60.1901 123.493 58.9583 124.082C57.2979 124.895 56.8973 126.035 56.6056 125.774Z" fill="black"></path><path d="M66.4709 122.429C66.332 122.43 66.1938 122.387 66.0797 122.308C65.9626 122.23 65.8726 122.12 65.8183 121.992C65.747 121.815 65.7439 121.617 65.8056 121.436C65.8674 121.254 65.9937 121.1 66.1576 121.002C66.4917 120.783 67.8093 120.186 70.1512 120.476C72.7053 120.799 74.1304 122.174 73.828 122.447C73.5257 122.719 72.5833 121.887 70.1788 121.84C67.9573 121.802 67.1825 122.466 66.4709 122.429Z" fill="black"></path><path d="M67.2409 126.11C67.1193 126.141 66.9895 126.124 66.8811 126.064C66.7726 126.003 66.6914 125.899 66.6547 125.781C66.5475 125.429 66.6521 125.141 66.9373 124.827C67.1835 124.56 67.9578 123.929 69.5705 123.77C71.4997 123.582 72.5573 124.62 72.34 124.935C72.1228 125.25 71.6691 124.745 69.8002 125.054C68.0231 125.347 67.8961 125.958 67.2409 126.11Z" fill="black"></path><path d="M62.4024 127.101C62.4647 127.09 62.5241 127.064 62.5749 127.027C62.6256 126.992 62.6706 126.946 62.7039 126.89C62.7372 126.838 62.7587 126.776 62.7685 126.714C62.7783 126.653 62.7733 126.588 62.7564 126.529C62.6755 126.198 62.4981 125.998 62.0985 125.842C61.7724 125.716 60.882 125.376 59.5052 125.775C57.8495 126.255 57.4864 127.466 57.72 127.658C57.9536 127.847 58.2122 127.332 59.8686 127.005C61.2968 126.728 61.8103 127.184 62.4024 127.101Z" fill="black"></path><path d="M42.2547 196.386C40.4506 194.045 21.9232 190.629 17.988 186.699C13.243 181.962 13.1845 176.995 22.0323 179.17C30.4413 181.235 42.2547 196.386 42.2547 196.386Z" fill="#F1FBFF" stroke="black" stroke-linecap="round" stroke-linejoin="round"></path><path d="M41.7056 197.63C45.215 192.564 47.4359 178.496 49.5721 173.585C50.8587 170.622 54.5203 172.428 57.0928 174.553C59.4434 176.493 60.871 178.513 59.0323 181.238C55.0166 187.195 41.7056 197.63 41.7056 197.63Z" fill="#F1FBFF" stroke="black" stroke-linecap="round" stroke-linejoin="round"></path><path d="M42.2632 197.182C42.2632 197.182 48.0034 185.353 52.0915 177.041C53.4156 174.35 56.8867 177.681 55.7338 179.565C54.5809 181.448 42.2632 197.182 42.2632 197.182Z" fill="#F8F8F6" stroke="black" stroke-linecap="round" stroke-linejoin="round"></path><path d="M20.9575 183.24L42.2551 196.386" stroke="black" stroke-linecap="round" stroke-linejoin="round"></path><path d="M44.7969 196.865C50.2698 203.995 57.5536 212.586 62.4648 219.117C66.8745 224.977 71.0371 232.407 70.7909 240.055C70.6621 244.074 69.2914 247.948 67.5934 251.567C65.9625 255.043 63.8329 260.314 59.4254 260.251C59.4254 260.251 26.265 259.773 26.2266 259.772C20.0819 259.684 14.6501 254.831 13.1566 248.777C10.5995 238.407 14.9884 227.669 22.0072 219.181C26.6082 213.616 34.5271 202.131 37.4914 198.598C39.2743 196.467 42.3084 193.624 44.7969 196.865Z" fill="white" stroke="black" stroke-linecap="round" stroke-linejoin="round"></path><path d="M18.9798 247.727C18.9798 247.727 17.9356 257.853 32.325 259.716" stroke="black" stroke-linecap="round" stroke-linejoin="round"></path><path d="M63.9226 246.525C63.9226 246.525 61.5436 257.421 47.4943 255.119" stroke="black" stroke-linecap="round" stroke-linejoin="round"></path><path d="M44.7827 202.007L54.4105 215.045" stroke="black" stroke-linecap="round" stroke-linejoin="round"></path><path d="M45.5854 208.358L48.9449 218.409" stroke="black" stroke-linecap="round" stroke-linejoin="round"></path><path d="M36.051 204.78L29.2626 215.33" stroke="black" stroke-linecap="round" stroke-linejoin="round"></path><path d="M42.7572 195.407C42.5886 195.416 32.5138 220.155 32.5138 220.155L42.7572 195.407Z" fill="white"></path><path d="M42.7572 195.407C42.5886 195.416 32.5138 220.155 32.5138 220.155" stroke="black" stroke-linecap="round" stroke-linejoin="round"></path><path d="M94.7074 187.49C96.0669 194.234 96.617 198.71 96.617 198.71C98.351 206.941 100.158 218.947 100.158 218.947C106.982 219.266 110.45 218.046 111.22 217.301C114.514 214.111 115.67 207.488 115.098 198.178C114.043 180.97 112.63 176.06 110.537 167.553" fill="#E9B68E"></path><path d="M94.7074 187.49C96.0669 194.234 96.617 198.71 96.617 198.71C98.351 206.941 100.158 218.947 100.158 218.947C106.982 219.266 110.45 218.046 111.22 217.301C114.514 214.111 115.67 207.488 115.098 198.178C114.043 180.97 112.63 176.06 110.537 167.553" stroke="black" stroke-linecap="round" stroke-linejoin="round"></path><path d="M92.9571 170.808C92.8503 178.217 93.9362 183.649 94.7081 187.49C95.0418 189.144 95.3273 190.659 95.5649 192.009C96.3028 196.161 114.649 191.659 114.403 189.037C113.436 178.811 112.201 174.319 110.535 167.55C109.655 163.973 107.515 160.393 104.485 157.831" fill="white"></path><path d="M92.9571 170.808C92.8503 178.217 93.9362 183.649 94.7081 187.49C95.0418 189.144 95.3273 190.659 95.5649 192.009C96.3028 196.161 114.649 191.659 114.403 189.037C113.436 178.811 112.201 174.319 110.535 167.55C109.655 163.973 107.515 160.393 104.485 157.831" stroke="black" stroke-linecap="round" stroke-linejoin="round"></path><path d="M100.437 199.416C100.437 199.416 75.8139 195.833 71.4381 195.205C67.0652 194.576 64.7592 193.848 64.7592 193.848C58.9002 189.316 56.0944 188.412 51.9381 187.312L54.4903 190.845L57.0326 191.586C53.5994 190.544 44.0979 190.266 41.2954 190.564C38.4575 190.865 38.9289 193.414 41.2497 193.529C42.9062 193.612 50.8677 193.927 50.9997 195.016C51.0845 195.692 49.3869 195.8 46.7787 195.948C43.5583 196.131 40.3591 195.464 40.3441 197.322C40.3365 198.465 42.3785 199.263 46.2309 199.1C50.0833 198.941 51.88 198.31 51.88 198.31C51.88 198.31 50.6657 198.714 47.124 199.052C43.5823 199.389 41.2171 198.869 41.2171 198.869C41.2171 198.869 41.2561 200.672 43.8653 201.479C46.4746 202.288 52.2212 201.293 52.2212 201.293C52.2212 201.293 51.602 201.402 48.6811 201.716C45.7603 202.03 43.5946 201.811 43.5946 201.811C43.5946 201.811 43.9413 204.202 46.5059 204.418C49.0675 204.638 51.4098 204.489 52.8662 204.51C53.6085 204.465 55.7806 204.852 58.7243 204.594C61.668 204.336 63.4172 204.338 63.4172 204.338C63.4172 204.338 68.308 206.137 74.6353 208.924C83.5905 212.867 95.4259 218.299 100.401 219.189C108.889 220.705 111.819 216.653 111.819 216.653" fill="#E9B68E"></path><path d="M100.437 199.416C100.437 199.416 75.8139 195.833 71.4381 195.205C67.0652 194.576 64.7592 193.848 64.7592 193.848C58.9002 189.316 56.0944 188.412 51.9381 187.312L54.4903 190.845L57.0326 191.586C53.5994 190.544 44.0979 190.266 41.2954 190.564C38.4575 190.865 38.9289 193.414 41.2497 193.529C42.9062 193.612 50.8677 193.927 50.9997 195.016C51.0845 195.692 49.3869 195.8 46.7787 195.948C43.5583 196.131 40.3591 195.464 40.3441 197.322C40.3365 198.465 42.3785 199.263 46.2309 199.1C50.0833 198.941 51.88 198.31 51.88 198.31C51.88 198.31 50.6657 198.714 47.124 199.052C43.5823 199.389 41.2171 198.869 41.2171 198.869C41.2171 198.869 41.2561 200.672 43.8653 201.479C46.4746 202.288 52.2212 201.293 52.2212 201.293C52.2212 201.293 51.602 201.402 48.6811 201.716C45.7603 202.03 43.5946 201.811 43.5946 201.811C43.5946 201.811 43.9413 204.202 46.5059 204.418C49.0675 204.638 51.4098 204.489 52.8662 204.51C53.6085 204.465 55.7806 204.852 58.7243 204.594C61.668 204.336 63.4172 204.338 63.4172 204.338C63.4172 204.338 68.308 206.137 74.6353 208.924C83.5905 212.867 95.4259 218.299 100.401 219.189C108.889 220.705 111.819 216.653 111.819 216.653" stroke="black" stroke-linecap="round" stroke-linejoin="round"></path><path d="M190.5 260L191.616 237.614L159.184 232.728L131.351 236.745L130.5 260L160.111 260L190.5 260Z" fill="#FFF492"></path><path d="M190.599 259.449L191.451 242.931C192.066 237.179 190.256 231.777 190.256 231.777" stroke="black" stroke-linecap="round" stroke-linejoin="round"></path><path d="M130.884 259.74L131.023 242.11C131.24 234.24 133.414 226.908 133.414 226.908" stroke="black" stroke-linecap="round" stroke-linejoin="round"></path><path d="M160.096 255.404L160.148 259.811" stroke="black" stroke-linecap="round" stroke-linejoin="round"></path><path d="M194.755 150.514C202.695 159.479 206.767 171.373 215.338 193.717L188.338 202.503C187.919 214.798 193.649 235.24 193.686 238.374C186.777 241.921 174.667 244.286 162.338 243.787C161.499 243.751 160.466 239.171 159.625 239.12C158.739 239.066 158.042 243.545 157.157 243.474C147.043 242.665 135.744 240.62 129.085 238.056C131.547 227.364 133.504 218.706 134.211 199.323L104.238 190.964C113.926 170.285 119.174 157.928 129.324 148.472C134.11 146.072 134.425 146.578 144.876 144.714C147.055 141.988 148.234 141.596 150.868 140.879C157.388 140.971 170.719 140.78 170.99 140.639C171.874 140.193 174.974 142.411 177.377 143.574C189.647 146.973 191.183 148.223 194.755 150.514Z" fill="#FFE500"></path><path d="M170.187 134.966C177.938 135.523 185.262 130.639 185.262 130.639C185.262 130.639 185.656 99.2219 172.285 92.5196C167.634 89.8575 164.023 91.7289 164.023 91.7289C162.859 91.1083 161.579 90.7334 160.262 90.6349C158.946 90.5364 157.623 90.7088 156.378 91.1445C146.667 94.7424 143.37 106.433 141.696 108.815C142.632 109.058 142.647 109.203 143.613 109.223L138.62 127.221C138.62 127.221 146.156 133.303 151.646 133.698C158.725 135.597 163.597 136.271 170.187 134.966Z" fill="black" stroke="black" stroke-linecap="round" stroke-linejoin="round"></path><path d="M170.297 133.286L171.107 141.283C168.548 144.327 166.817 145.754 161.218 148.566L161.201 148.557C155.84 145.955 153.572 144.856 150.836 141.521L151.762 132.212C151.017 129.636 150.619 127.527 149.895 122.356C145.339 120.538 144.032 114.224 149.789 113.512L150.831 108.658L159.212 105.33L158.392 107.082L156.666 108.91C161.921 108.841 164.822 107.855 169.959 104.683L172.354 109.884L175.981 115.33C181.443 117.073 179.906 124.064 174.078 124.133C172.646 128.981 171.839 131.464 170.297 133.286Z" fill="#EFC9B4"></path><path d="M161.813 125.426C161.538 125.425 161.361 125.393 161.226 125.167C161.061 124.909 161.139 124.659 161.393 124.436C161.737 124.135 162.122 123.911 162.226 123.6C162.384 123.119 161.617 121.196 161.891 121.074C162.164 120.951 163.656 123.226 163.589 123.994C163.55 124.452 162.351 125.407 161.813 125.426Z" fill="black"></path><path d="M155.872 112.978C157.169 112.817 157.874 112.922 158.468 113.072C158.76 113.143 159.165 113.308 159.333 113.155C159.467 113.033 159.548 112.162 159.06 111.752C158.342 111.149 156.903 111.376 155.898 111.635C155.079 111.856 154.288 112.172 153.544 112.576C152.666 113.014 152.048 113.047 152.103 113.307C152.159 113.57 152.852 113.644 153.697 113.412C154.409 113.216 155.138 113.068 155.872 112.978Z" fill="black"></path><path d="M168.839 113.86C168.022 113.586 167.155 113.491 166.299 113.579C166.001 113.604 165.571 113.698 165.432 113.522C165.318 113.379 165.381 112.508 165.929 112.183C166.737 111.706 168.122 112.165 169.071 112.582C170.019 112.999 170.617 113.5 171.241 113.892C172.064 114.425 172.825 114.716 172.724 114.965C172.623 115.214 171.756 115.054 170.952 114.701C170.268 114.367 169.563 114.086 168.839 113.86Z" fill="black"></path><path d="M161.556 130.224C163.605 130.3 164.78 128.939 164.622 128.624C164.484 128.345 163.789 129.066 161.71 128.933C160.887 128.885 160.08 128.694 159.325 128.365C158.873 128.176 158.653 128.258 158.491 128.421C158.395 128.52 158.34 128.651 158.335 128.787C158.33 128.922 158.376 129.058 158.466 129.163C158.776 129.591 159.929 130.165 161.556 130.224Z" fill="black"></path><path d="M166.109 117.915C166.133 116.708 166.808 115.739 167.618 115.757C168.427 115.775 169.063 116.768 169.037 117.975C169.013 119.182 168.337 120.15 167.528 120.133C166.722 120.118 166.086 119.125 166.109 117.915Z" fill="black"></path><path d="M155.163 117.15C155.24 115.944 155.96 115.009 156.766 115.059C157.571 115.111 158.165 116.13 158.086 117.337C158.007 118.543 157.29 119.479 156.484 119.426C155.678 119.379 155.087 118.357 155.163 117.15Z" fill="black"></path><path d="M170.514 133.702C170.514 133.702 170.297 136.889 171.042 141.156" stroke="black" stroke-linecap="round" stroke-linejoin="round"></path><path d="M152.037 131.975C152.037 131.975 151.812 137.291 150.941 141.39" stroke="black" stroke-linecap="round" stroke-linejoin="round"></path><path d="M150.924 108.653C150.219 111.206 150.386 112.557 149.75 113.432C149.183 114.213 147.775 113.344 146.706 114.716C145.351 116.458 145.825 118.819 146.783 120.052C148.129 121.791 149.799 122.107 149.799 122.107C149.975 124.289 150.025 127.362 150.786 129.294C153.269 135.586 157.614 138.379 160.595 138.575C163.58 138.768 167.872 137.398 171.636 131.444C173.073 129.173 173.465 126.139 174.203 123.973C174.203 123.973 176.074 124.527 177.863 122.785C179.364 121.326 179.692 118.853 179.081 117.43C178.183 115.332 175.909 115.432 175.909 115.432C174.14 111.097 171.807 109.985 169.948 104.474C168.844 105.636 167.11 106.825 164.456 107.888C160.706 109.386 156.358 109.059 156.358 109.059C157.128 108.493 157.821 107.822 158.411 107.071C158.845 106.461 159.212 105.804 159.5 105.11C159.494 105.107 156.74 106.938 150.924 108.653Z" stroke="black" stroke-linecap="round" stroke-linejoin="round"></path><path d="M134.942 165.831C134.942 165.831 128.596 176.691 133.161 184.913C133.379 185.967 133.567 187.054 133.728 188.167" stroke="black" stroke-linecap="round" stroke-linejoin="round"></path><path d="M129.083 237.985C129.083 237.985 134.978 215.616 134.463 197.25" stroke="black" stroke-linecap="round" stroke-linejoin="round"></path><path d="M186.006 165.289C186.006 165.289 194.33 177.414 187.704 186.674C186.522 208.256 192.095 230.357 193.887 238.233C186.624 242.378 171.677 244.133 162.266 243.5C161.504 242.491 159.686 238.638 159.686 238.638L157.157 243.559C147.577 242.785 134.885 240.407 129.222 238.049" stroke="black" stroke-linecap="round" stroke-linejoin="round"></path><path d="M145.064 144.581C136.747 146.39 132.862 145.733 127.394 149.996C120.347 155.485 114.19 171.22 105.472 188.752" stroke="black" stroke-linecap="round" stroke-linejoin="round"></path><path d="M177.132 143.888C185.266 146.394 189.804 146.43 194.892 151.14C201.444 157.205 208.63 174.425 214.698 192.347" stroke="black" stroke-linecap="round" stroke-linejoin="round"></path><path d="M144.471 144.958C148.25 148.901 150.694 150.895 156.042 153.797C156.042 153.797 158.457 149.828 161.36 148.892C164.351 149.825 166.795 153.928 166.795 153.928C171.303 151.743 175.854 147.814 177.624 144.308" stroke="black" stroke-linecap="round" stroke-linejoin="round"></path><path d="M177.883 144.108C176.374 142.549 174.362 141.156 171.918 140.723C171.547 140.659 171.193 140.857 170.993 141.175C168.858 144.591 163.554 147.257 161.293 148.697C159.048 147.245 153.343 144.974 151.186 141.673C151.001 141.391 150.69 141.195 150.356 141.243C147.967 141.58 145.373 143.808 144.606 144.954" stroke="black" stroke-linecap="round" stroke-linejoin="round"></path><path d="M157.353 159.088C157.373 158.337 157.905 157.741 158.54 157.759C159.175 157.777 159.671 158.399 159.648 159.153C159.629 159.904 159.097 160.5 158.462 160.482C157.83 160.464 157.331 159.841 157.353 159.088Z" fill="black"></path><path d="M156.072 198.727C156.091 197.977 156.623 197.381 157.258 197.399C157.893 197.416 158.389 198.039 158.367 198.793C158.347 199.544 157.815 200.14 157.18 200.122C156.545 200.104 156.049 199.481 156.072 198.727Z" fill="black"></path><path d="M155.167 217.798C155.187 217.048 155.719 216.451 156.354 216.469C156.989 216.487 157.485 217.11 157.462 217.864C157.442 218.618 156.911 219.211 156.276 219.193C155.644 219.175 155.148 218.552 155.167 217.798Z" fill="black"></path><path d="M161.468 149.276C161.551 157.834 161.363 161.696 160.876 168.031" stroke="black" stroke-linecap="round" stroke-linejoin="round"></path><path d="M159.429 173.25C159.121 173.693 158.667 177.961 158.667 177.961C159.177 178.457 160.31 178.571 160.866 177.704C162.201 177.962 162.868 177.158 163.343 175.963C163.343 175.963 169.344 176.583 168.89 180.662C167.922 183.87 163.593 184.674 163.593 184.674C159.091 185.846 158.78 187.114 159.12 189.178C159.12 189.178 165.19 186.6 169.479 187.554C173.767 188.505 178.548 188.698 179.359 188.188C180.546 189.484 184.227 191.979 185.019 193.198C188.591 192.215 189.851 186.996 190.948 184.099C190.948 184.099 185.18 180.408 184.163 179.604C183.147 178.8 177.016 174.688 171.926 171.348C171.926 171.348 166.869 169.337 166.053 169.41C165.233 169.484 159.74 172.81 159.429 173.25Z" fill="#EFC9B4"></path><path d="M160.869 177.704C160.313 178.574 159.18 178.457 158.67 177.961C158.67 177.961 159.121 173.693 159.432 173.25C159.743 172.807 165.236 169.484 166.053 169.41C166.869 169.337 171.925 171.348 171.925 171.348C177.016 174.688 183.147 178.8 184.163 179.604C185.18 180.408 190.948 184.099 190.948 184.099C189.851 186.996 188.591 192.212 185.019 193.198C184.227 191.979 180.543 189.484 179.359 188.188C178.551 188.698 173.767 188.505 169.479 187.554C165.19 186.603 159.12 189.178 159.12 189.178C158.78 187.114 159.091 185.843 163.593 184.674C163.593 184.674 167.924 183.87 168.89 180.662C169.344 176.58 163.343 175.963 163.343 175.963" stroke="black" stroke-linecap="round" stroke-linejoin="round"></path><path d="M172.774 174.099C172.774 174.099 168.148 171.146 166.327 171.417C164.506 171.689 161.14 174.173 161.14 174.173L160.364 177.567C162.043 178.148 162.817 177.299 163.345 175.963" stroke="black" stroke-linecap="round" stroke-linejoin="round"></path><path d="M163.344 175.964C163.393 175.841 163.439 175.715 163.482 175.586C164.484 175.135 165.945 174.855 166.737 174.419L171.241 177.644C172.032 180.563 173.626 182.551 176.472 183.708" stroke="black" stroke-linecap="round" stroke-linejoin="round"></path><path d="M180.135 195.752C185.779 193.692 188.406 187.691 189.435 182.343C195.165 185.795 204.195 188.435 209.41 192.96L215.006 192.34C215.006 192.34 221.763 215.521 209.291 212.838C194.181 208.741 180.135 195.752 180.135 195.752Z" fill="#FFE500"></path><path d="M180.135 195.752C184.539 195.273 188.392 188.089 189.418 182.74C194.734 185.373 204.596 189.707 209.41 192.96" stroke="black" stroke-linecap="round" stroke-linejoin="round"></path><path d="M180.135 195.752C180.135 195.752 192.97 208.702 208.084 212.8C222.419 215.757 214.56 191.721 214.56 191.721" stroke="black" stroke-linecap="round" stroke-linejoin="round"></path><path d="M180.135 195.752C179.251 194.962 179.536 192.574 181.27 190.36" stroke="black" stroke-linecap="round" stroke-linejoin="round"></path><path d="M185.721 200.501C188.954 199.272 191.601 196.206 192.605 193.549" stroke="black" stroke-linecap="round" stroke-linejoin="round"></path><path d="M189.175 193.399C189.534 192.738 190.186 192.394 190.628 192.633C191.071 192.873 191.137 193.604 190.779 194.265C190.418 194.925 189.769 195.269 189.326 195.03C188.88 194.791 188.814 194.059 189.175 193.399Z" fill="black"></path><path d="M154.737 172.458C155.554 173.13 158.103 175.467 158.103 175.467C158.103 175.467 157.945 175.983 157.543 176.381C157.246 176.677 156.815 176.906 156.216 176.812C155.506 176.699 154.718 175.969 153.827 175.502C153.827 175.502 149.747 177.078 149.123 179.77C149.168 183.468 154.842 184.601 154.842 184.601C157.51 185.832 158.831 187.038 157.758 189.114C152.676 186.643 150.112 185.576 146.056 186.177C143.702 187.501 141.648 187.937 138.744 187.491L133.621 191.603C130.407 189.898 129.965 184.696 130.292 182.686C133.829 180.195 135.905 178.629 140.272 174.582C140.272 174.582 142.587 172.03 143.789 171.623C144.546 171.366 145.805 171.387 146.604 171.472C147.073 171.523 147.401 171.581 147.401 171.581C147.401 171.581 153.922 171.784 154.737 172.458Z" fill="#EFC9B4"></path><path d="M158.108 175.464C158.108 175.464 155.556 173.13 154.742 172.455C153.924 171.781 147.406 171.578 147.406 171.578C147.406 171.578 147.082 171.52 146.61 171.469C146.61 171.469 149.714 169.484 151.306 169.522C151.492 169.528 151.657 169.551 151.796 169.6C152.916 169.99 155.962 171.221 157.299 171.959C157.542 172.095 157.73 172.212 157.838 172.305C158.535 172.907 160.148 175.423 160.148 175.423C159.811 175.992 159.488 176.306 159.028 176.429C158.651 176.529 158.185 176.499 157.551 176.378C157.947 175.98 158.108 175.464 158.108 175.464Z" fill="#F2D1A5"></path><path d="M151.794 169.603C151.656 169.553 151.491 169.53 151.305 169.525C151.305 169.525 153.74 168.261 155.018 168.536C156.297 168.81 157.297 171.959 157.297 171.959C155.958 171.227 152.914 169.996 151.794 169.603Z" fill="#F2D1A5"></path><path d="M156.219 176.809C156.817 176.903 157.249 176.674 157.546 176.378C158.182 176.499 158.649 176.529 159.022 176.428L159.214 178.708C157.645 178.918 156.847 178.694 156.219 176.809Z" fill="#F2D1A5"></path><path d="M139.766 181.747C142.342 180.762 144.053 177.903 145.936 175.792C145.936 175.792 149.18 175.002 150.518 174.986C151.857 174.97 152.961 175.042 153.832 175.5" stroke="black" stroke-linecap="round" stroke-linejoin="round"></path><path d="M156.219 176.809C156.817 176.903 157.249 176.674 157.546 176.378" stroke="black" stroke-linecap="round" stroke-linejoin="round"></path><path d="M156.219 176.809C156.848 178.695 157.645 178.918 159.214 178.711L159.023 176.431" stroke="black" stroke-linecap="round" stroke-linejoin="round"></path><path d="M156.219 176.809C155.508 176.696 154.721 175.966 153.83 175.499" stroke="black" stroke-linecap="round" stroke-linejoin="round"></path><path d="M146.609 171.472C147.078 171.523 147.406 171.581 147.406 171.581C147.406 171.581 153.927 171.784 154.741 172.458C155.559 173.13 158.108 175.467 158.108 175.467C158.108 175.467 157.95 175.983 157.548 176.381" stroke="black" stroke-linecap="round" stroke-linejoin="round"></path><path d="M146.607 171.472C145.805 171.384 144.549 171.365 143.792 171.623C142.59 172.029 140.275 174.582 140.275 174.582C135.908 178.628 133.835 180.195 130.295 182.686C129.968 184.693 130.41 189.898 133.623 191.603L138.747 187.491C141.654 187.936 143.705 187.501 146.059 186.177C150.115 185.575 152.679 186.643 157.761 189.114C158.834 187.035 157.516 185.832 154.845 184.601C154.845 184.601 149.171 183.47 149.126 179.77C149.75 177.078 153.83 175.502 153.83 175.502" stroke="black" stroke-linecap="round" stroke-linejoin="round"></path><path d="M146.61 171.472C146.61 171.472 149.714 169.487 151.306 169.525" stroke="black" stroke-linecap="round" stroke-linejoin="round"></path><path d="M157.546 176.378C158.182 176.499 158.649 176.529 159.023 176.428" stroke="black" stroke-linecap="round" stroke-linejoin="round"></path><path d="M151.305 169.528C151.491 169.533 151.656 169.556 151.794 169.606C152.914 169.996 155.961 171.227 157.297 171.965" stroke="black" stroke-linecap="round" stroke-linejoin="round"></path><path d="M151.305 169.528C151.305 169.528 153.74 168.264 155.018 168.539C156.297 168.813 157.297 171.962 157.297 171.962" stroke="black" stroke-linecap="round" stroke-linejoin="round"></path><path d="M157.298 171.962C157.542 172.098 157.729 172.215 157.837 172.308C158.535 172.91 160.147 175.425 160.147 175.425C159.811 175.995 159.487 176.308 159.027 176.431" stroke="black" stroke-linecap="round" stroke-linejoin="round"></path><path d="M138.536 195.768C133.183 192.621 130.979 187.037 130.41 181.618C124.408 184.574 116.158 187.631 111.632 190.493L105.029 189.191C105.029 189.191 95.5219 212.04 110.058 210.312C125.466 207.509 138.536 195.768 138.536 195.768Z" fill="#FFE500"></path><path d="M138.533 195.768C134.529 194.8 129.577 185.768 130.727 182.056C124.724 185.012 114.126 187.646 109.599 190.508" stroke="black" stroke-linecap="round" stroke-linejoin="round"></path><path d="M138.534 195.768C138.534 195.768 125.244 207.211 109.836 210.014C94.475 211.2 105.402 188.875 105.402 188.875" stroke="black" stroke-linecap="round" stroke-linejoin="round"></path><path d="M138.534 195.768C140.439 194.791 139.006 190.67 137.288 188.937" stroke="black" stroke-linecap="round" stroke-linejoin="round"></path><path d="M131.915 200.544C128.759 199.132 126.287 195.921 125.434 193.211" stroke="black" stroke-linecap="round" stroke-linejoin="round"></path><path d="M128.044 195.231C127.591 194.626 127.555 193.895 127.958 193.595C128.361 193.294 129.055 193.54 129.504 194.144C129.956 194.749 129.993 195.48 129.59 195.78C129.187 196.081 128.493 195.832 128.044 195.231Z" fill="black"></path><path d="M129.44 139.319C129.44 139.319 130.044 137.808 129.676 135.443C129.235 132.618 127.819 131.455 126.472 131.618C125.673 131.715 124.94 132.332 124.652 133.279C124.867 133.509 124.987 133.808 124.991 134.124C124.993 134.436 124.876 134.741 124.666 134.973C124.453 135.206 124.161 135.349 123.848 135.374C123.534 135.402 123.222 135.309 122.974 135.117C122.049 135.489 121.5 136.274 121.477 137.077C121.437 138.432 122.73 139.729 125.591 139.906C127.988 140.058 129.44 139.319 129.44 139.319Z" stroke="black" stroke-miterlimit="10" stroke-linecap="round" stroke-linejoin="round"></path><path d="M128.008 122.12C128.008 122.12 129.559 120.655 130.424 117.64C131.457 114.04 130.416 111.881 128.722 111.335C127.716 111.011 126.505 111.344 125.64 112.313C125.771 112.704 125.747 113.127 125.576 113.502C125.405 113.876 125.099 114.172 124.719 114.332C124.338 114.491 123.913 114.503 123.525 114.362C123.137 114.221 122.819 113.942 122.629 113.577C121.324 113.514 120.239 114.147 119.768 115.088C118.974 116.676 119.798 118.93 123.099 120.706C125.87 122.201 128.008 122.12 128.008 122.12Z" stroke="black" stroke-miterlimit="10" stroke-linecap="round" stroke-linejoin="round"></path><path d="M200.432 140.218C202.714 140.142 203.775 139.138 203.775 138.057C203.776 137.418 203.356 136.779 202.628 136.462C202.425 136.609 202.176 136.677 201.925 136.646C201.675 136.619 201.446 136.498 201.283 136.307C201.12 136.116 201.032 135.874 201.042 135.623C201.051 135.373 201.155 135.136 201.332 134.959C201.124 134.196 200.556 133.69 199.922 133.592C198.851 133.433 197.695 134.326 197.282 136.565C196.932 138.442 197.379 139.659 197.379 139.659C197.379 139.659 198.519 140.285 200.432 140.218Z" stroke="black" stroke-miterlimit="10" stroke-linecap="round" stroke-linejoin="round"></path><path d="M206.433 116.388C209.022 115.088 209.709 113.366 209.133 112.123C208.789 111.385 207.966 110.875 206.958 110.893C206.804 111.171 206.55 111.379 206.25 111.481C205.947 111.579 205.619 111.563 205.328 111.432C205.038 111.301 204.808 111.065 204.685 110.772C204.562 110.478 204.555 110.151 204.663 109.852C204.018 109.083 203.088 108.802 202.305 109.029C200.985 109.411 200.131 111.057 200.85 113.859C201.451 116.207 202.616 117.372 202.616 117.372C202.616 117.372 204.263 117.479 206.433 116.388Z" stroke="black" stroke-miterlimit="10" stroke-linecap="round" stroke-linejoin="round"></path><path d="M116.494 127.736C117.238 127.747 117.85 127.154 117.86 126.413C117.871 125.671 117.277 125.061 116.533 125.05C115.789 125.04 115.177 125.632 115.166 126.374C115.156 127.116 115.75 127.725 116.494 127.736Z" stroke="black" stroke-miterlimit="10" stroke-linecap="round" stroke-linejoin="round"></path><path d="M195.825 130.076C197.561 130.101 198.988 128.718 199.013 126.988C199.038 125.257 197.651 123.834 195.915 123.809C194.179 123.784 192.752 125.166 192.727 126.897C192.702 128.627 194.089 130.051 195.825 130.076Z" stroke="black" stroke-miterlimit="10" stroke-linecap="round" stroke-linejoin="round"></path><path fill-rule="evenodd" clip-rule="evenodd" d="M285.23 231.821L285.229 231.821L285.243 230.899L285.345 230.936C285.801 231.105 286.184 231.296 286.494 231.51C286.804 231.725 286.957 231.954 286.954 232.196C286.95 232.439 286.739 232.557 286.319 232.551C285.815 232.543 285.085 232.367 284.128 232.022C283.133 231.66 282.446 231.353 282.068 231.101C281.69 230.849 281.503 230.594 281.506 230.335C281.508 230.19 281.598 230.076 281.775 229.994C281.951 229.912 282.261 229.858 282.705 229.832L282.191 228.116C281.557 228.147 281.041 228.328 280.643 228.657C280.245 228.987 280.041 229.479 280.032 230.133C280.009 231.741 281.265 233.003 283.802 233.92C284.774 234.266 285.627 234.444 286.359 234.454C286.97 234.463 287.451 234.35 287.801 234.117C288.152 233.884 288.331 233.518 288.338 233.016C288.343 232.726 288.291 232.469 288.184 232.245C288.076 232.022 287.898 231.799 287.65 231.577L288.301 231.707L288.32 230.338L283.741 228.648L283.703 231.266L285.229 231.821L285.229 231.821L285.23 231.821ZM284.718 236.384C284.908 236.448 285.029 236.488 285.082 236.505L284.098 236.418L280.106 236.106L280.076 238.19L288.164 241.167L288.189 239.41L283.963 237.87C283.773 237.794 283.583 237.725 283.393 237.662C283.203 237.598 283.082 237.559 283.029 237.542C283.082 237.55 283.191 237.564 283.354 237.582C283.519 237.601 283.738 237.62 284.012 237.64L288.21 237.967L288.24 235.932L280.152 232.955L280.126 234.712L284.148 236.176C284.338 236.252 284.528 236.321 284.718 236.384ZM288.821 243.184L288.88 239.052L290.407 239.607L290.375 241.825L291.981 242.417L292.01 240.382L293.537 240.949L293.508 242.984L295.41 243.69L295.443 241.424L296.97 241.98L296.91 246.16L288.821 243.184ZM296.831 251.549L296.831 251.549L296.872 248.666C296.88 248.133 296.767 247.654 296.532 247.231C296.298 246.807 295.911 246.412 295.37 246.045C294.83 245.677 294.1 245.329 293.181 245.001C292.307 244.69 291.561 244.529 290.943 244.52C290.218 244.51 289.677 244.694 289.321 245.072C288.964 245.451 288.781 245.975 288.771 246.646L288.743 248.572L296.831 251.549L296.831 251.549L296.831 251.549ZM295.395 248.68C295.398 248.502 295.345 248.33 295.237 248.163C295.129 247.996 294.893 247.806 294.529 247.595C294.165 247.383 293.627 247.156 292.913 246.911C292.017 246.6 291.351 246.44 290.916 246.434C290.648 246.43 290.47 246.476 290.381 246.572C290.292 246.667 290.246 246.796 290.244 246.958L290.24 247.2L295.389 249.092L295.395 248.68ZM288.914 236.756L288.886 238.671L296.974 241.647L297.03 237.77L295.503 237.214L295.475 239.178L288.914 236.756ZM288.947 234.458L288.974 232.544L297.062 235.52L297.035 237.435L288.947 234.458ZM286.325 228.972C286.997 228.982 287.527 228.828 287.918 228.51C288.308 228.193 288.508 227.683 288.518 226.98C288.529 226.22 288.218 225.521 287.586 224.882C286.954 224.243 286.011 223.7 284.758 223.253C283.831 222.917 283.017 222.743 282.315 222.733C281.643 222.723 281.112 222.878 280.722 223.195C280.332 223.513 280.131 224.023 280.121 224.726C280.11 225.485 280.421 226.184 281.053 226.824C281.685 227.463 282.628 228.006 283.881 228.452C284.808 228.789 285.622 228.962 286.325 228.972ZM284.433 225.152C285.42 225.505 286.107 225.808 286.493 226.06C286.878 226.312 287.07 226.547 287.067 226.766C287.063 227.024 286.866 227.15 286.477 227.145C286.011 227.138 285.254 226.942 284.206 226.554C283.219 226.201 282.533 225.898 282.147 225.646C281.761 225.393 281.57 225.159 281.573 224.94C281.576 224.682 281.773 224.556 282.162 224.561C282.613 224.568 283.37 224.765 284.433 225.152ZM288.078 247.134L280.02 242.107L280.057 239.527L288.162 241.343L288.135 243.184L286.675 242.815L286.652 244.354L288.107 245.183L288.078 247.134ZM282.613 241.767L281.643 241.506C282.014 241.693 282.313 241.856 282.541 241.993L285.13 243.471L285.146 242.417L282.613 241.767ZM282.608 246.454C282.798 246.575 282.957 246.678 283.087 246.739C283.017 246.726 282.905 246.723 282.75 246.719C282.584 246.715 282.368 246.709 282.103 246.688L279.956 246.567L279.929 248.457L285.283 248.504L288.045 249.52L288.072 247.605L285.448 246.64L280.012 242.714L279.981 244.859L282.213 246.205C282.357 246.292 282.488 246.377 282.608 246.454Z" fill="#FEDE47"></path><path fill-rule="evenodd" clip-rule="evenodd" d="M29.1847 233.131L29.1841 233.13L29.1973 232.209L29.2996 232.246C29.7555 232.415 30.1383 232.606 30.4483 232.82C30.7588 233.035 30.9117 233.264 30.9082 233.506C30.9047 233.749 30.6935 233.867 30.2732 233.861C29.7694 233.853 29.0393 233.677 28.0821 233.332C27.0873 232.97 26.4008 232.663 26.0226 232.411C25.6445 232.159 25.4573 231.904 25.461 231.645C25.4631 231.5 25.5528 231.386 25.7294 231.304C25.9061 231.222 26.216 231.168 26.6592 231.142L26.1453 229.426C25.5118 229.457 24.9957 229.638 24.5976 229.967C24.1995 230.297 23.9957 230.789 23.9863 231.443C23.9631 233.051 25.2201 234.313 27.7565 235.23C28.7285 235.575 29.5814 235.754 30.3139 235.764C30.9244 235.773 31.4055 235.66 31.7559 235.427C32.107 235.194 32.2858 234.828 32.293 234.326C32.2972 234.036 32.2456 233.779 32.1383 233.555C32.031 233.332 31.8529 233.109 31.6042 232.887L32.2553 233.017L32.275 231.648L27.6956 229.958L27.6579 232.575L29.1841 233.13L29.184 233.131L29.1847 233.131ZM28.6722 237.694C28.8622 237.758 28.9837 237.797 29.0368 237.815L28.0521 237.728L24.0602 237.416L24.0302 239.5L32.1183 242.477L32.1436 240.719L27.9174 239.18C27.7276 239.104 27.5378 239.035 27.3478 238.972C27.1578 238.908 27.0363 238.869 26.9832 238.851C27.0364 238.86 27.1455 238.874 27.3091 238.892C27.4733 238.911 27.6922 238.93 27.967 238.95L32.1651 239.277L32.1944 237.242L24.1063 234.265L24.0809 236.022L28.1025 237.486C28.2923 237.562 28.4822 237.631 28.6722 237.694ZM32.7754 244.494L32.8349 240.362L34.3617 240.917L34.3298 243.135L35.9357 243.727L35.9651 241.692L37.4917 242.259L37.4624 244.294L39.3649 245L39.3976 242.734L40.9244 243.29L40.8641 247.47L32.7754 244.494ZM40.786 252.859L40.7854 252.859L40.8269 249.976C40.8346 249.443 40.7213 248.964 40.487 248.54C40.2528 248.117 39.8651 247.722 39.3247 247.355C38.7844 246.987 38.0541 246.639 37.1353 246.311C36.2618 246 35.516 245.839 34.8978 245.83C34.173 245.82 33.6317 246.004 33.2754 246.382C32.9183 246.761 32.7353 247.285 32.7256 247.956L32.6979 249.882L40.7854 252.859L40.7854 252.859L40.786 252.859ZM39.3497 249.99C39.3523 249.812 39.2995 249.64 39.1914 249.473C39.0832 249.306 38.8475 249.116 38.4836 248.905C38.1196 248.693 37.5817 248.466 36.8674 248.221C35.9714 247.909 35.3053 247.75 34.8702 247.744C34.6029 247.74 34.4249 247.786 34.3354 247.882C34.2467 247.977 34.2004 248.106 34.1981 248.268L34.1946 248.51L39.3438 250.402L39.3497 249.99ZM32.8682 238.066L32.8406 239.98L40.9287 242.957L40.9846 239.08L39.4578 238.524L39.4295 240.488L32.8682 238.066ZM32.9013 235.768L32.9289 233.854L41.017 236.83L40.9894 238.745L32.9013 235.768ZM30.2793 230.282C30.9514 230.292 31.4819 230.138 31.8721 229.82C32.2623 229.503 32.4625 228.993 32.4726 228.29C32.4836 227.53 32.173 226.831 31.5407 226.192C30.9085 225.553 29.9658 225.01 28.7125 224.563C27.786 224.227 26.9716 224.053 26.2693 224.043C25.5978 224.033 25.0666 224.188 24.6764 224.505C24.2862 224.823 24.086 225.333 24.0759 226.036C24.0649 226.795 24.3756 227.494 25.0078 228.134C25.64 228.773 26.5828 229.316 27.8361 229.762C28.7625 230.099 29.5769 230.272 30.2793 230.282ZM28.3875 226.462C29.3748 226.815 30.0613 227.118 30.4472 227.37C30.8331 227.622 31.0244 227.857 31.0213 228.076C31.0175 228.334 30.821 228.46 30.4316 228.455C29.9657 228.448 29.2088 228.252 28.161 227.864C27.1737 227.511 26.4872 227.208 26.1013 226.956C25.7155 226.703 25.5241 226.469 25.5273 226.25C25.531 225.992 25.7276 225.866 26.117 225.871C26.5674 225.878 27.3243 226.075 28.3875 226.462ZM32.033 248.444L23.9745 243.417L24.0117 240.837L32.1165 242.653L32.09 244.494L30.6292 244.125L30.6071 245.664L32.0611 246.493L32.033 248.444ZM26.5676 243.077L25.5976 242.816C25.969 243.003 26.2681 243.166 26.4956 243.303L29.085 244.781L29.1002 243.727L26.5676 243.077ZM26.563 247.764C26.7523 247.885 26.9118 247.988 27.0415 248.049C26.9718 248.036 26.8595 248.033 26.7048 248.029C26.5381 248.025 26.3223 248.019 26.0576 247.998L23.9107 247.877L23.8835 249.767L29.238 249.814L31.9992 250.83L32.0268 248.915L29.4024 247.95L23.9663 244.024L23.9354 246.169L26.1674 247.515C26.3112 247.602 26.4431 247.687 26.563 247.764Z" fill="#FEDE47"></path></g><defs><clipPath id="clip0_2053_2375"><rect x="5.30957" y="0.717773" width="319" height="318" rx="16" transform="rotate(0.825812 5.30957 0.717773)" fill="white"></rect></clipPath></defs></svg>