<?xml version="1.0" encoding="utf-8"?>
<!-- Generator: Adobe Illustrator 25.2.1, SVG Export Plug-In . SVG Version: 6.00 Build 0)  -->
<svg version="1.1" id="Lager_1" xmlns="http://www.w3.org/2000/svg" xmlns:xlink="http://www.w3.org/1999/xlink" x="0px" y="0px"
	 viewBox="0 0 841.89 595.28" style="enable-background:new 0 0 841.89 595.28;" xml:space="preserve">
<style type="text/css">
	.st0{fill:#FFFFFF;}
</style>
<g>
	<path class="st0" d="M209.84,430.73l42.05-126.51h28.33c9.86,0,17.61,2.73,23.25,8.2c5.64,5.46,8.46,13.84,8.46,25.12
		c0,9.62-2.2,21.26-6.59,34.92c-4.63,14.37-9.59,25.81-14.88,34.3c-5.29,8.49-11.02,14.61-17.19,18.35
		c-6.18,3.74-13.19,5.61-21.03,5.61H209.84z M251.72,407.74c2.61,0,5.14-0.86,7.57-2.58c2.43-1.72,5.17-5.43,8.2-11.14
		s6.26-14.13,9.71-25.3c4.39-14.01,6.59-24.41,6.59-31.18c0-4.16-0.71-6.92-2.14-8.29c-1.42-1.36-3.33-2.05-5.7-2.05h-3.56
		l-26.73,80.54H251.72z"/>
	<path class="st0" d="M331.14,304.22h60.76l-7.84,23.88h-32.61l-8.37,25.12h29.93L365,377.1h-29.93l-9.98,29.76h33.32l-7.84,23.88
		h-61.47L331.14,304.22z"/>
	<path class="st0" d="M397.5,304.22h28.15l-34.21,102.63h28.87l-7.84,23.88h-57.02L397.5,304.22z"/>
	<path class="st0" d="M459.44,304.22h28.15l-42.05,126.51h-28.15L459.44,304.22z"/>
	<path class="st0" d="M428.54,244.55c0.24-0.83,0.8-2.73,1.69-5.7c0.89-2.97,1.87-5.94,2.94-8.91l20.67-62.9h25.84l-42.05,126.51
		h-29.93l3.92-65.39c0.24-4.28,0.47-7.69,0.71-10.25c0.24-2.55,0.42-4.25,0.53-5.08c-0.24,0.83-0.8,2.73-1.69,5.7
		c-0.89,2.97-1.87,5.94-2.94,8.91l-21.74,66.1h-25.84l42.05-126.51h30.65l-3.74,62.18L428.54,244.55z"/>
	<path class="st0" d="M497.43,245.8l7.84-23.88h38.49l-23.88,71.63h-20.13l1.78-10.16c-3.21,3.92-6.45,6.74-9.71,8.46
		c-3.27,1.72-7.04,2.58-11.31,2.58c-7.37,0-12.8-2.7-16.3-8.11c-3.5-5.4-5.26-12.86-5.26-22.36c0-11.4,2.44-24.71,7.31-39.91
		c12.95-39.67,31.24-59.51,54.88-59.51c9.62,0,16.9,3.06,21.83,9.18c4.93,6.12,7.69,14.11,8.29,23.96l-25.12,8.38
		c-0.48-6.89-1.34-11.7-2.58-14.43c-1.25-2.73-2.94-4.1-5.08-4.1c-3.8,0-7.51,2.97-11.14,8.91c-3.62,5.94-7.99,16.69-13.1,32.25
		c-4.87,14.97-7.31,26.37-7.31,34.21c0,6.54,1.78,9.8,5.35,9.8c3.56,0,6.89-2.43,9.98-7.31c3.09-4.87,5.82-10.87,8.2-18l0.53-1.6
		H497.43z"/>
	<path class="st0" d="M546.68,286.87c-4.75-6-7.13-14.22-7.13-24.68c0-10.93,2.38-23.64,7.13-38.13
		c6.29-19.6,14.08-34.39,23.34-44.37c9.27-9.98,19.48-14.97,30.65-14.97c10.33,0,17.88,3,22.63,9c4.75,6,7.13,14.23,7.13,24.68
		c0,10.93-2.38,23.64-7.13,38.13c-6.3,19.6-14.08,34.39-23.34,44.37c-9.27,9.98-19.48,14.97-30.65,14.97
		C558.97,295.87,551.43,292.87,546.68,286.87z M582.4,264.15c3.62-6.06,7.93-16.81,12.92-32.25c5.46-16.63,8.2-28.45,8.2-35.46
		c0-6.06-1.9-9.09-5.7-9.09c-3.21,0-6.62,3.03-10.25,9.09c-3.62,6.06-7.93,16.81-12.92,32.25c-5.47,16.39-8.2,28.21-8.2,35.46
		c0,6.06,1.9,9.09,5.7,9.09C575.37,273.24,578.78,270.21,582.4,264.15z"/>
	<path class="st0" d="M272.89,293.55l72.2-126.51h37.95l-24.98,126.51h-27.08l5.12-22.81h-22.63l-11.89,22.81H272.89z
		 M350.64,207.31l3.64-15.15c-2.68,5.82-5.01,10.51-6.97,14.08l-21.19,40.62h15.5L350.64,207.31z"/>
	<path class="st0" d="M277.65,215.8c1.43-3.32,4.45-7.9,7.66-13.72l19.32-35.03h31.54l-56.56,85.46l-13.64,41.05h-28.15l14.35-43.19
		l-0.45-83.32h27.8l-1.33,33.43C277.71,208.43,278.01,213.54,277.65,215.8z"/>
</g>
</svg>
