<svg width="3966" height="3966" viewBox="0 0 3966 3966" fill="none" xmlns="http://www.w3.org/2000/svg">
<rect width="3966" height="3966" rx="510" fill="#FFE033"/>
<path d="M443.624 2959.67L751.928 2032.11H959.64C1031.93 2032.11 1088.75 2052.13 1130.11 2092.24C1171.46 2132.27 1192.13 2193.71 1192.13 2276.41C1192.13 2346.94 1176 2432.29 1143.82 2532.44C1109.87 2637.8 1073.5 2721.67 1034.72 2783.92C995.932 2846.17 953.921 2891.04 908.683 2918.46C863.372 2945.88 811.976 2959.59 754.494 2959.59H443.624V2959.67ZM750.682 2791.11C769.818 2791.11 788.367 2784.8 806.184 2772.19C824 2759.58 844.089 2732.38 866.305 2690.51C888.52 2648.65 912.203 2586.92 937.497 2505.02C969.684 2402.3 985.814 2326.05 985.814 2276.41C985.814 2245.91 980.609 2225.67 970.124 2215.63C959.713 2205.66 945.709 2200.6 928.333 2200.6H902.231L706.251 2791.11H750.682Z" fill="black"/>
<path d="M1332.98 2032.11H1778.46L1720.98 2207.2H1481.89L1420.52 2391.37H1639.96L1581.23 2566.46H1361.79L1288.62 2784.66H1532.92L1475.43 2959.74H1024.75L1332.98 2032.11Z" fill="black"/>
<path d="M1819.52 2032.11H2025.91L1775.09 2784.58H1986.76L1929.28 2959.67H1511.21L1819.52 2032.11Z" fill="black"/>
<path d="M2273.65 2032.11H2480.04L2171.74 2959.67H1965.35L2273.65 2032.11Z" fill="black"/>
<path d="M2047.1 1594.62C2048.86 1588.54 2052.97 1574.61 2059.49 1552.83C2066.02 1531.05 2073.2 1509.28 2081.05 1487.5L2232.6 1026.33H2422.05L2113.75 1953.88H1894.31L1923.05 1474.45C1924.81 1443.07 1926.49 1418.07 1928.25 1399.3C1930.01 1380.6 1931.33 1368.14 1932.14 1362.06C1930.38 1368.14 1926.27 1382.07 1919.75 1403.85C1913.22 1425.62 1906.04 1447.4 1898.19 1469.17L1738.8 1953.81H1549.34L1857.65 1026.26H2082.37L2054.95 1482.15L2047.1 1594.62Z" fill="black"/>
<path d="M2552.19 1603.79L2609.67 1428.7H2891.88L2716.79 1953.88H2569.2L2582.25 1879.39C2558.72 1908.13 2534.96 1928.81 2511.06 1941.42C2487.08 1954.03 2459.44 1960.33 2428.14 1960.33C2374.1 1960.33 2334.29 1940.54 2308.63 1900.87C2282.96 1861.28 2270.06 1806.59 2270.06 1736.93C2270.06 1653.35 2287.95 1555.76 2323.66 1444.32C2418.6 1153.46 2552.7 1008 2726.03 1008C2796.56 1008 2849.94 1030.44 2886.08 1075.31C2922.23 1120.18 2942.47 1178.76 2946.86 1250.98L2762.69 1312.42C2759.17 1261.9 2752.86 1226.64 2743.77 1206.62C2734.61 1186.6 2722.22 1176.56 2706.53 1176.56C2678.66 1176.56 2651.46 1198.34 2624.85 1241.89C2598.31 1285.44 2566.27 1364.25 2528.8 1478.34C2493.1 1588.1 2475.21 1671.68 2475.21 1729.16C2475.21 1777.11 2488.26 1801.01 2514.43 1801.01C2540.53 1801.01 2564.95 1783.2 2587.6 1747.42C2610.26 1711.71 2630.27 1667.72 2647.72 1615.44L2651.61 1603.71H2552.19V1603.79Z" fill="black"/>
<path d="M2913.29 1904.91C2878.46 1860.92 2861.01 1800.65 2861.01 1723.96C2861.01 1643.82 2878.46 1550.63 2913.29 1444.39C2959.4 1300.69 3016.52 1192.25 3084.41 1119.08C3152.38 1045.91 3227.24 1009.32 3309.13 1009.32C3384.87 1009.32 3440.23 1031.32 3475.05 1075.31C3509.88 1119.3 3527.33 1179.64 3527.33 1256.26C3527.33 1336.39 3509.88 1429.58 3475.05 1535.82C3428.86 1679.52 3371.82 1787.96 3303.93 1861.14C3235.96 1934.31 3161.1 1970.89 3079.21 1970.89C3003.39 1970.89 2948.11 1948.9 2913.29 1904.91ZM3175.18 1738.33C3201.72 1693.9 3233.32 1615.08 3269.91 1501.87C3309.94 1379.95 3330.03 1293.28 3330.03 1241.89C3330.03 1197.46 3316.1 1175.24 3288.24 1175.24C3264.7 1175.24 3239.7 1197.46 3213.09 1241.89C3186.54 1286.32 3154.94 1365.14 3118.36 1478.34C3078.25 1598.51 3058.24 1685.17 3058.24 1738.33C3058.24 1782.76 3072.17 1804.97 3100.03 1804.97C3123.64 1804.97 3148.64 1782.76 3175.18 1738.33Z" fill="black"/>
<path d="M905.896 1953.88L1435.26 1026.33H1713.5L1530.35 1953.88H1331.8L1369.34 1786.64H1203.42L1116.25 1953.88H905.896ZM1475.95 1321.58L1502.64 1210.51C1482.99 1253.18 1465.9 1287.56 1451.53 1313.74L1296.17 1611.56H1409.81L1475.95 1321.58Z" fill="black"/>
<path d="M940.797 1383.83C951.281 1359.49 973.424 1325.91 996.959 1283.24L1138.61 1026.4H1369.86L955.167 1652.98L855.161 1953.96H648.769L753.981 1637.29L750.682 1026.4H954.507L944.756 1271.51C941.237 1329.8 943.436 1367.26 940.797 1383.83Z" fill="black"/>
</svg>
